<svg width="18" height="20" viewBox="0 0 18 20" fill="none" xmlns="http://www.w3.org/2000/svg">
<path d="M7.55002 15.5777C8.04476 15.0834 8.53949 14.5892 9.03422 14.0949C9.99485 13.1353 10.9577 12.1733 11.9183 11.2137C12.5617 10.5709 13.2051 9.92816 13.8462 9.28763C13.9505 9.18346 14.0525 9.07486 14.1435 8.95739C14.2611 8.80668 14.3787 8.65596 14.4763 8.48973C14.5717 8.32351 14.6449 8.14841 14.7181 7.9711C14.8401 7.67411 14.8956 7.3749 14.9355 7.05796C15.0864 5.88993 14.5739 4.6266 13.6443 3.89962C13.1563 3.51841 12.5994 3.2325 11.9804 3.14162C11.3592 3.05075 10.7181 3.07292 10.128 3.30342C9.63323 3.49846 9.19396 3.76221 8.81237 4.13899C8.76578 4.18554 8.71919 4.23208 8.6726 4.27862C8.00261 4.94797 7.33261 5.61731 6.66261 6.28666C5.69089 7.25743 4.71696 8.23042 3.74524 9.20119C3.09521 9.85059 2.44518 10.5 1.79515 11.1494C1.38916 11.555 1.01867 12.0049 0.759097 12.5213C0.219994 13.5852 0.0646966 14.7709 0.293205 15.939C0.506185 17.0294 1.12959 18.0822 1.99038 18.787C2.48512 19.1926 3.01091 19.4962 3.61435 19.7135C4.13127 19.8996 4.69256 19.9905 5.24053 19.9994C5.79295 20.0082 6.36311 19.924 6.88668 19.7489C7.499 19.545 8.03145 19.2436 8.53727 18.8468C8.77244 18.6629 8.97876 18.4501 9.1873 18.2418C9.92164 17.5082 10.656 16.7745 11.3903 16.0409C12.3554 15.0768 13.3182 14.1149 14.2833 13.1508C14.8579 12.5767 15.4325 12.0027 16.0071 11.4286C17.3404 10.0966 18.0947 8.23707 17.9904 6.34872C17.9305 5.24275 17.6133 4.15007 17.0343 3.20147C16.4441 2.23291 15.5966 1.4062 14.605 0.854326C13.6377 0.315747 12.5395 0.0209695 11.4325 0.00102215C10.3143 -0.0189252 9.20283 0.253689 8.21115 0.765671C7.58774 1.08705 7.02645 1.52589 6.53172 2.02014C6.29434 2.25729 6.05917 2.49223 5.82179 2.72938C4.91663 3.63366 4.01147 4.53794 3.10852 5.44C2.28767 6.26006 1.46903 7.07791 0.648171 7.89796C0.517277 8.02873 0.386384 8.1595 0.25549 8.29026C-0.0728523 8.61828 -0.0972562 9.22114 0.25549 9.54473C0.610456 9.87054 1.16065 9.89492 1.51118 9.54473C1.73747 9.31866 1.96154 9.0948 2.18783 8.86874C2.7225 8.33459 3.25938 7.79823 3.79405 7.26408C4.42855 6.6302 5.06305 5.99631 5.69755 5.36243C6.21891 4.84158 6.74026 4.32074 7.26162 3.79989C7.52118 3.54057 7.77632 3.27239 8.04698 3.02416C8.16456 2.91555 8.2888 2.8136 8.41525 2.71608C8.35535 2.76262 8.29545 2.80917 8.23555 2.85571C8.62601 2.5565 9.04975 2.30827 9.50012 2.11544C9.42912 2.14426 9.35813 2.17529 9.28714 2.2041C9.76856 2.00241 10.2722 1.86499 10.7891 1.79407C10.7114 1.80515 10.6316 1.81623 10.5539 1.8251C11.0686 1.75861 11.5878 1.75861 12.1002 1.8251C12.0226 1.81402 11.9427 1.80293 11.8651 1.79407C12.382 1.86499 12.8856 2.00019 13.367 2.2041C13.296 2.17529 13.225 2.14426 13.154 2.11544C13.6066 2.30827 14.0304 2.5565 14.4186 2.85571C14.3587 2.80917 14.2988 2.76262 14.2389 2.71608C14.6294 3.01972 14.9799 3.36991 15.2838 3.75999C15.2372 3.70015 15.1906 3.64031 15.1441 3.58047C15.4436 3.97055 15.692 4.39388 15.8851 4.8438C15.8562 4.77288 15.8252 4.70195 15.7963 4.63103C15.9982 5.11198 16.1357 5.6151 16.2067 6.13151C16.1956 6.05394 16.1846 5.97415 16.1757 5.89658C16.2422 6.41078 16.2422 6.92941 16.1757 7.44139C16.1868 7.36382 16.1979 7.28403 16.2067 7.20645C16.1357 7.72287 16.0004 8.22599 15.7963 8.70694C15.8252 8.63602 15.8562 8.56509 15.8851 8.49417C15.692 8.94631 15.4436 9.36964 15.1441 9.7575C15.1906 9.69766 15.2372 9.63782 15.2838 9.57797C14.9688 9.98357 14.5916 10.336 14.2278 10.6995C13.6488 11.2779 13.0697 11.8564 12.4907 12.4349C11.7652 13.1596 11.0398 13.8844 10.3143 14.6091C9.69535 15.2275 9.07416 15.8481 8.45519 16.4665C8.1934 16.728 7.93161 16.9917 7.66761 17.2533C7.53893 17.3818 7.40138 17.5015 7.25718 17.6145C7.31708 17.568 7.37698 17.5215 7.43688 17.4749C7.15513 17.6899 6.84675 17.8694 6.52063 18.0091C6.59162 17.9802 6.66261 17.9492 6.73361 17.9204C6.3853 18.0667 6.01924 18.1664 5.64431 18.2196C5.72195 18.2085 5.80182 18.1975 5.87947 18.1886C5.49566 18.2396 5.10964 18.2396 4.72583 18.1886C4.80348 18.1997 4.88335 18.2108 4.961 18.2196C4.58607 18.1664 4.22001 18.0667 3.8717 17.9204C3.94269 17.9492 4.01368 17.9802 4.08468 18.0091C3.75855 17.8694 3.45018 17.6899 3.16842 17.4749C3.22832 17.5215 3.28822 17.568 3.34812 17.6145C3.05972 17.3907 2.80015 17.1314 2.57608 16.8432C2.62266 16.9031 2.66925 16.9629 2.71584 17.0228C2.50064 16.7413 2.32094 16.4332 2.18118 16.1074C2.21002 16.1783 2.24108 16.2493 2.26992 16.3202C2.12349 15.9722 2.02366 15.6065 1.97042 15.2319C1.98151 15.3095 1.9926 15.3893 2.00148 15.4669C1.95045 15.0834 1.95045 14.6978 2.00148 14.3144C1.99038 14.3919 1.97929 14.4717 1.97042 14.5493C2.02366 14.1747 2.12349 13.809 2.26992 13.4611C2.24108 13.532 2.21002 13.6029 2.18118 13.6738C2.32094 13.348 2.50064 13.04 2.71584 12.7585C2.66925 12.8183 2.62266 12.8782 2.57608 12.938C2.86005 12.5723 3.21279 12.2531 3.53892 11.9251C4.11574 11.3489 4.69255 10.7726 5.26937 10.1963C5.98374 9.48267 6.69589 8.77121 7.41026 8.05754C8.02479 7.44361 8.63711 6.83189 9.25164 6.21795C9.52674 5.94312 9.80184 5.66607 10.0792 5.39124C10.1635 5.30702 10.2522 5.22945 10.3476 5.15631C10.2877 5.20285 10.2278 5.2494 10.1679 5.29594C10.352 5.15631 10.5495 5.04106 10.7625 4.95019C10.6915 4.979 10.6205 5.01003 10.5495 5.03884C10.7669 4.94797 10.9954 4.88591 11.2284 4.85267C11.1507 4.86375 11.0708 4.87483 10.9932 4.88369C11.2461 4.85045 11.5012 4.85045 11.7519 4.88369C11.6743 4.87261 11.5944 4.86153 11.5168 4.85267C11.7497 4.88591 11.976 4.94797 12.1956 5.03884C12.1246 5.01003 12.0536 4.979 11.9827 4.95019C12.1956 5.04106 12.3931 5.15631 12.5772 5.29594C12.5173 5.2494 12.4574 5.20285 12.3975 5.15631C12.5861 5.30259 12.7525 5.46882 12.8989 5.65721C12.8523 5.59737 12.8057 5.53752 12.7591 5.47768C12.8989 5.66164 13.0143 5.8589 13.1052 6.07167C13.0764 6.00075 13.0453 5.92982 13.0165 5.8589C13.1074 6.0761 13.1696 6.30439 13.2028 6.53711C13.1918 6.45954 13.1807 6.37975 13.1718 6.30217C13.2051 6.55484 13.2051 6.80972 13.1718 7.06017C13.1829 6.9826 13.194 6.90281 13.2028 6.82524C13.1696 7.05796 13.1074 7.28403 13.0165 7.50345C13.0453 7.43252 13.0764 7.3616 13.1052 7.29068C13.0143 7.50345 12.8989 7.70071 12.7591 7.88467C12.8057 7.82482 12.8523 7.76498 12.8989 7.70514C12.6704 7.99992 12.3798 8.2548 12.118 8.51855C11.6166 9.01945 11.1152 9.52035 10.6138 10.0213C9.99041 10.6441 9.36922 11.2646 8.74581 11.8874C8.20227 12.4304 7.65651 12.9757 7.11297 13.5187C6.84675 13.7847 6.57609 14.0462 6.3143 14.3166C6.30987 14.321 6.30765 14.3232 6.30321 14.3277C5.97487 14.6557 5.95046 15.2585 6.30321 15.5821C6.6493 15.9035 7.1995 15.9301 7.55002 15.5777Z" fill="#7998B4"/>
</svg>
