<?xml version="1.0" encoding="utf-8"?><svg xmlns="http://www.w3.org/2000/svg" xmlns:xlink="http://www.w3.org/1999/xlink"><style>:root>svg{display:none}:root>svg:target{display:block}</style><svg fill="none" viewBox="0 0 20 24" id="article-type-text" xmlns="http://www.w3.org/2000/svg"><path fill-rule="evenodd" clip-rule="evenodd" d="M0 3.25A3.25 3.25 0 013.25 0H17v4.5h3V24H3a3 3 0 01-3-3V3.25zm2 3.001V21a1 1 0 001 1h15V6.5H3.25A3.24 3.24 0 012 6.251zM2 3.25c0 .69.56 1.25 1.25 1.25H15V2H3.25C2.56 2 2 2.56 2 3.25z" fill="#fff"/><path fill-rule="evenodd" clip-rule="evenodd" d="M4 10a1 1 0 011-1h9a1 1 0 110 2H5a1 1 0 01-1-1zm0 4a1 1 0 011-1h9a1 1 0 110 2H5a1 1 0 01-1-1zm0 4a1 1 0 011-1h5a1 1 0 110 2H5a1 1 0 01-1-1z" fill="#fff"/></svg><svg fill="none" viewBox="0 0 25 24" id="article-type-video" xmlns="http://www.w3.org/2000/svg"><path fill-rule="evenodd" clip-rule="evenodd" d="M22 12c0 5.523-4.477 10-10 10S2 17.523 2 12 6.477 2 12 2s10 4.477 10 10zm-3.364 10A11.989 11.989 0 0024 12c0-6.627-5.373-12-12-12S0 5.373 0 12c0 6.29 4.84 11.45 11 11.959V24h13.5v-2h-5.864zM12 7a1 1 0 100-2 1 1 0 000 2zm0 2a3 3 0 100-6 3 3 0 000 6zm1 9a1 1 0 11-2 0 1 1 0 012 0zm2 0a3 3 0 11-6 0 3 3 0 016 0zm2-6a1 1 0 102 0 1 1 0 00-2 0zm-2 0a3 3 0 106 0 3 3 0 00-6 0zm-9 1a1 1 0 110-2 1 1 0 010 2zm0 2a3 3 0 110-6 3 3 0 010 6z" fill="#fff"/></svg><svg fill="none" viewBox="0 0 72 62" id="bow" xmlns="http://www.w3.org/2000/svg"><path d="M28.93 57.204a27.794 27.794 0 01-13.166-3.318 27.99 27.99 0 01-10.057-9.171 28.211 28.211 0 01-4.573-12.858 28.259 28.259 0 011.992-13.509 28.09 28.09 0 018.085-10.97 27.855 27.855 0 0112.27-5.838 27.765 27.765 0 0113.557.67A27.898 27.898 0 0148.68 9.231a.82.82 0 01.259.585.825.825 0 01-.06.322.82.82 0 01-.179.272.813.813 0 01-.59.24.814.814 0 01-.581-.26 26.235 26.235 0 00-16.02-7.625c-6.056-.6-12.13.931-17.19 4.333a26.45 26.45 0 00-10.557 14.32 26.616 26.616 0 00.869 17.81 26.407 26.407 0 0011.9 13.212 26.16 26.16 0 0017.53 2.616 26.273 26.273 0 0015.2-9.166 26.564 26.564 0 005.97-16.788 26.712 26.712 0 00-.624-5.74.829.829 0 01.11-.617.82.82 0 01.51-.361.805.805 0 01.615.107.81.81 0 01.23.222.819.819 0 01.126.293 28.283 28.283 0 01-.067 12.466c-.95 4.098-2.8 7.93-5.418 11.212a27.971 27.971 0 01-9.702 7.752 27.8 27.8 0 01-12.08 2.768z" fill="currentColor" stroke="currentColor" stroke-width=".5"/><path d="M7.409 29.949a.812.812 0 01-.576-.24.822.822 0 01-.239-.58 22.574 22.574 0 016.541-15.902 22.296 22.296 0 0115.798-6.601c.216 0 .423.086.575.24a.822.822 0 01.239.58.822.822 0 01-.239.579.812.812 0 01-.575.24 20.668 20.668 0 00-14.638 6.11 20.925 20.925 0 00-6.072 14.727.82.82 0 01-.229.597.81.81 0 01-.586.25z" fill="currentColor" stroke="currentColor" stroke-width=".5"/><path d="M28.932 45.537a16.254 16.254 0 01-7.67-1.923 16.368 16.368 0 01-5.876-5.322 16.498 16.498 0 01-2.703-7.474 16.528 16.528 0 011.101-7.877 16.432 16.432 0 014.648-6.433 16.296 16.296 0 017.107-3.484 16.238 16.238 0 017.9.282 16.31 16.31 0 016.844 3.981.827.827 0 01.027 1.164.814.814 0 01-1.156.027 14.657 14.657 0 00-9.392-4.097 14.64 14.64 0 00-9.773 3.064 14.804 14.804 0 00-5.415 8.74c-.706 3.473-.15 7.085 1.568 10.179s4.483 5.465 7.791 6.68a14.616 14.616 0 0010.237-.056 14.729 14.729 0 007.718-6.767 14.872 14.872 0 001.457-10.194.825.825 0 01.114-.618.816.816 0 01.515-.355.811.811 0 01.614.116.82.82 0 01.353.518 16.55 16.55 0 01-.104 7.258 16.493 16.493 0 01-3.198 6.506 16.369 16.369 0 01-5.67 4.488 16.27 16.27 0 01-7.037 1.597zM9.545 61a.8.8 0 01-.435-.126.817.817 0 01-.23-.22.822.822 0 01-.139-.612.823.823 0 01.114-.298l4.886-7.811a.82.82 0 01.21-.263.811.811 0 01.633-.175.81.81 0 01.315.117.818.818 0 01.241.235.823.823 0 01-.026.954l-4.886 7.817a.822.822 0 01-.293.278.815.815 0 01-.39.104zm38.77 0a.804.804 0 01-.394-.101.81.81 0 01-.295-.281l-4.886-7.816a.823.823 0 010-.935.818.818 0 01.237-.227.81.81 0 01.633-.1.812.812 0 01.295.144.817.817 0 01.214.25l4.886 7.81a.822.822 0 01.103.62.822.822 0 01-.131.292.817.817 0 01-.233.218.767.767 0 01-.429.126z" fill="currentColor" stroke="currentColor" stroke-width=".5"/><path d="M28.93 29.949a.811.811 0 01-.502-.171.82.82 0 01-.29-.446.824.824 0 01.042-.531.817.817 0 01.36-.392l23.722-13.11a.81.81 0 01.92.064.816.816 0 01.208.249.823.823 0 01-.092.922.816.816 0 01-.254.202L29.32 29.846a.789.789 0 01-.39.103z" fill="currentColor" stroke="currentColor" stroke-width=".5"/><path d="M59.435 18.625a.85.85 0 01-.206-.027l-7.568-2.026 1.998-7.614a.821.821 0 01.14-.287.816.816 0 01.238-.212.811.811 0 01.618-.083.812.812 0 01.285.14.818.818 0 01.21.24.825.825 0 01.083.622l-1.574 6.03 5.971 1.606a.82.82 0 01.545.315.83.83 0 01-.15 1.16.817.817 0 01-.606.164l.016-.027z" fill="currentColor" stroke="currentColor" stroke-width=".5"/><path d="M64.823 15.545a.944.944 0 01-.211-.027l-7.568-2.027 2.041-7.614a.823.823 0 01.14-.287.816.816 0 01.239-.211.811.811 0 01.618-.084.813.813 0 01.285.141.823.823 0 01.293.862l-1.596 6.008 5.971 1.606a.815.815 0 01.467.335.823.823 0 01-.137 1.071.811.811 0 01-.536.205l-.006.022z" fill="currentColor" stroke="currentColor" stroke-width=".5"/><path d="M70.21 12.47a.711.711 0 01-.212-.027l-7.568-2.021 2.014-7.614a.821.821 0 01.14-.287.816.816 0 01.239-.211.811.811 0 01.618-.084.813.813 0 01.285.14.82.82 0 01.313.543.825.825 0 01-.02.32l-1.596 6.008 5.971 1.6a.815.815 0 01.468.336.824.824 0 01.13.563.821.821 0 01-.27.51.811.811 0 01-.54.202l.027.022zM34.308 31.625a.823.823 0 01-.228-.033l-6.324-1.857 1.39-6.21a.821.821 0 01.128-.293.815.815 0 01.526-.337.811.811 0 01.318.007.82.82 0 01.51.363.83.83 0 01.108.62l-1.085 4.709 4.885 1.425a.815.815 0 01.457.343.823.823 0 01.121.56.82.82 0 01-.272.503.812.812 0 01-.534.2z" fill="currentColor" stroke="currentColor" stroke-width=".5"/></svg><svg viewBox="0 0 18 20" id="clip" xmlns="http://www.w3.org/2000/svg"><path d="M7.55 15.578l1.484-1.483 2.884-2.881 1.928-1.926a4.347 4.347 0 00.63-.798c.096-.166.169-.342.242-.519.122-.297.178-.596.217-.913.151-1.168-.361-2.431-1.29-3.158-.489-.382-1.046-.667-1.665-.758-.62-.091-1.262-.07-1.852.161a3.822 3.822 0 00-1.316.836l-.14.14-2.01 2.008L3.746 9.2l-1.95 1.948c-.406.406-.776.856-1.036 1.372a5.265 5.265 0 00-.466 3.418 5.001 5.001 0 001.697 2.848 5.4 5.4 0 001.624.927 5.085 5.085 0 001.627.285 5 5 0 001.646-.25 5.394 5.394 0 001.65-.902c.235-.184.442-.397.65-.605l2.203-2.201 2.893-2.89 1.724-1.722c1.333-1.332 2.088-3.192 1.983-5.08a6.75 6.75 0 00-.956-3.148A6.682 6.682 0 0014.605.854a6.799 6.799 0 00-3.173-.853 6.785 6.785 0 00-3.22.765 6.837 6.837 0 00-1.68 1.254l-.71.71-2.713 2.71-2.46 2.458-.394.392c-.328.328-.352.931 0 1.255.355.326.906.35 1.256 0l.677-.676 1.606-1.605 1.904-1.902L7.262 3.8c.26-.26.514-.528.785-.776.118-.108.242-.21.368-.308l-.18.14c.391-.3.815-.548 1.265-.74-.07.028-.142.06-.213.088.482-.202.985-.339 1.502-.41a8.563 8.563 0 01-.235.031 6.018 6.018 0 011.546 0 8.517 8.517 0 00-.235-.03c.517.07 1.02.205 1.502.41l-.213-.09a5.78 5.78 0 011.265.74l-.18-.139c.39.304.74.654 1.045 1.044l-.14-.18c.3.39.548.814.741 1.264l-.089-.213c.202.481.34.984.41 1.5a8.582 8.582 0 01-.03-.234 6.006 6.006 0 010 1.544c.01-.077.022-.157.03-.235a5.882 5.882 0 01-.41 1.5l.09-.212a5.776 5.776 0 01-.742 1.264l.14-.18c-.315.406-.692.758-1.056 1.122l-1.737 1.735-2.177 2.174-1.859 1.857c-.262.262-.523.526-.787.787a4.556 4.556 0 01-.41.361l.179-.14c-.282.216-.59.395-.916.535l.213-.089a4.411 4.411 0 01-1.09.3c.078-.011.158-.022.235-.031-.383.05-.77.05-1.153 0 .077.01.157.022.235.03a4.411 4.411 0 01-1.09-.299l.214.09a4.307 4.307 0 01-.917-.535l.18.14a4.378 4.378 0 01-.772-.772l.14.18a4.298 4.298 0 01-.535-.916l.089.213a4.4 4.4 0 01-.3-1.088c.012.078.023.157.031.235a4.357 4.357 0 010-1.153 8.416 8.416 0 00-.03.235c.053-.374.152-.74.299-1.088l-.089.213c.14-.326.32-.634.535-.915l-.14.179c.284-.366.637-.685.963-1.013l1.73-1.729L7.41 8.058l1.842-1.84c.275-.275.55-.552.827-.827.085-.084.173-.162.269-.235l-.18.14c.184-.14.382-.255.595-.346-.072.029-.143.06-.213.089.217-.091.445-.153.678-.186a8.575 8.575 0 01-.235.03c.253-.033.508-.033.759 0a8.517 8.517 0 00-.235-.03c.233.033.459.095.679.186l-.213-.089c.213.091.41.206.594.346l-.18-.14c.19.147.355.313.502.501l-.14-.18c.14.185.255.382.346.595-.029-.071-.06-.142-.088-.213.09.217.153.445.186.678a8.986 8.986 0 01-.031-.235c.033.253.033.508 0 .758a8.21 8.21 0 00.03-.235 2.798 2.798 0 01-.185.678c.028-.07.06-.141.088-.212-.09.212-.206.41-.346.594l.14-.18c-.229.295-.52.55-.781.814l-1.504 1.502-1.868 1.866-1.633 1.632c-.266.266-.537.527-.799.798l-.01.01c-.33.329-.354.931 0 1.255.345.321.895.348 1.246-.004z"/></svg><svg fill="none" viewBox="0 0 7 15" id="contacts-fb" xmlns="http://www.w3.org/2000/svg"><path d="M4.5 4.78v-1.1c0-.52.36-.65.62-.65h1.52V.7L4.54.68C2.2.68 1.67 2.42 1.67 3.53v1.23H.33v2.72h1.36v6.81h2.72V7.5h2.02l.26-2.73H4.5v.02z" fill="#fff"/></svg><svg fill="none" viewBox="0 0 15 15" id="contacts-in" xmlns="http://www.w3.org/2000/svg"><path d="M7.5 11.61a4.1 4.1 0 100-8.22 4.1 4.1 0 000 8.22zM4.38 7.5c0-1.71 1.4-3.12 3.1-3.12a3.1 3.1 0 11-3.1 3.12z" fill="#fff"/><path d="M11.6 14.33H3.4a2.78 2.78 0 01-2.78-2.78V3.47A2.79 2.79 0 013.41.69h8.18a2.79 2.79 0 012.79 2.78v8.06a2.8 2.8 0 01-2.79 2.8zM3.4 1.69c-.97 0-1.77.8-1.77 1.78v8.06c0 .98.8 1.78 1.78 1.78h8.18c.98 0 1.78-.8 1.78-1.78V3.47c0-.98-.8-1.78-1.78-1.78H3.41z" fill="#fff"/></svg><svg fill="none" viewBox="0 0 16 10" id="contacts-vk" xmlns="http://www.w3.org/2000/svg"><path fill-rule="evenodd" clip-rule="evenodd" d="M8.07 9.54h.9s.27-.03.41-.18c.13-.13.12-.4.12-.4s-.01-1.2.55-1.38c.55-.18 1.26 1.17 2.02 1.69.57.39 1 .3 1 .3l2.02-.03s1.05-.06.55-.9c-.04-.06-.29-.6-1.5-1.73-1.26-1.17-1.1-.98.43-3 .93-1.25 1.3-2 1.18-2.32-.1-.31-.79-.23-.79-.23l-2.27.01s-.17-.02-.3.06c-.11.07-.2.24-.2.24s-.35.96-.83 1.77c-1.01 1.72-1.42 1.8-1.58 1.7-.39-.25-.29-1-.29-1.53 0-1.66.25-2.36-.5-2.54-.24-.06-.42-.1-1.05-.1-.81-.01-1.5 0-1.89.19-.25.13-.45.4-.33.42.15.02.49.1.67.34.23.32.22 1.03.22 1.03s.14 1.96-.3 2.2c-.31.17-.73-.17-1.64-1.73-.46-.8-.8-1.68-.8-1.68s-.07-.17-.2-.25c-.14-.11-.34-.14-.34-.14l-2.16.01s-.32 0-.44.15c-.1.13-.01.38-.01.38s1.69 3.96 3.6 5.95c1.75 1.82 3.75 1.7 3.75 1.7z" fill="#fff"/></svg><svg fill="none" viewBox="0 0 13 9" id="contacts-yt" xmlns="http://www.w3.org/2000/svg"><path fill-rule="evenodd" clip-rule="evenodd" d="M3.57 8.74h5.88A2.86 2.86 0 0012.3 5.9V3.11A2.86 2.86 0 009.45.26H3.57A2.86 2.86 0 00.72 3.1v2.78a2.86 2.86 0 002.85 2.85zm1.42-2.13l3.86-2.08c.13-.08.13-.27 0-.37L5 2.06c-.12-.06-.28.04-.28.18v4.2c0 .16.16.24.28.17z" fill="#fff"/></svg><svg fill="none" viewBox="0 0 40 40" id="fb" xmlns="http://www.w3.org/2000/svg"><rect x="1.25" y="1.25" width="37.5" height="37.5" rx="18.75" stroke="currentColor" stroke-width="2.5"/><path fill-rule="evenodd" clip-rule="evenodd" d="M15 16.613h2.142v-2.01c0-.885.023-2.251.69-3.098C18.534 10.61 19.5 10 21.16 10c2.703 0 3.841.372 3.841.372l-.535 3.063s-.894-.25-1.727-.25c-.833 0-1.58.289-1.58 1.093v2.335h3.418l-.239 2.993H21.16V30h-4.017V19.606H15v-2.993z" fill="currentColor"/></svg><svg fill="none" viewBox="0 0 23 23" id="footer-fb" xmlns="http://www.w3.org/2000/svg"><path d="M18.87 0H3.27A3.27 3.27 0 000 3.26v15.62c0 1.8 1.47 3.26 3.26 3.26h15.62c1.8 0 3.26-1.47 3.26-3.26V3.26c0-1.8-1.47-3.26-3.27-3.26zm-.2 11.82h-2.63v9.5H12.1v-9.5h-1.97V8.54h1.97V6.57c0-2.67 1.1-4.26 4.26-4.26H19V5.6h-1.64c-1.23 0-1.31.46-1.31 1.31l-.01 1.64H19l-.35 3.28z" fill="#fff"/></svg><svg fill="none" viewBox="0 0 23 22" id="footer-in" xmlns="http://www.w3.org/2000/svg"><path d="M11.72 7.33a3.68 3.68 0 000 7.34 3.68 3.68 0 000-7.34zm11 3.67c0-1.52.01-3.02-.07-4.54-.09-1.76-.49-3.32-1.78-4.61-1.29-1.3-2.85-1.7-4.6-1.78C14.73 0 13.23 0 11.71 0S8.7 0 7.18.07C5.42.16 3.86.56 2.57 1.85 1.27 3.14.87 4.7.79 6.45.71 7.99.72 9.49.72 11s-.01 3.02.07 4.54c.09 1.76.5 3.32 1.78 4.61 1.29 1.3 2.85 1.7 4.61 1.78 1.52.08 3.03.07 4.54.07 1.52 0 3.03.01 4.54-.07 1.76-.09 3.33-.49 4.61-1.78 1.3-1.29 1.7-2.85 1.78-4.6.09-1.53.07-3.03.07-4.55zm-11 5.64a5.64 5.64 0 11-.02-11.27 5.64 5.64 0 01.02 11.27zm5.87-10.2a1.32 1.32 0 110-2.63 1.32 1.32 0 010 2.63z" fill="#fff"/></svg><svg fill="none" viewBox="0 0 23 22" id="footer-vk" xmlns="http://www.w3.org/2000/svg"><path d="M15.1 0H8.35C2.18 0 .72 1.46.72 7.62v6.76C.72 20.54 2.18 22 8.35 22h6.75c6.16 0 7.62-1.46 7.62-7.62V7.62C22.72 1.46 21.25 0 15.1 0zm3.38 15.7h-1.6c-.6 0-.79-.49-1.87-1.59-.95-.92-1.37-1.04-1.6-1.04-.33 0-.42.1-.42.55v1.44c0 .39-.13.62-1.15.62-1.7 0-3.57-1.02-4.9-2.93-1.98-2.8-2.52-4.9-2.52-5.33 0-.23.09-.45.54-.45h1.6c.4 0 .56.19.71.62.8 2.29 2.11 4.29 2.66 4.29.2 0 .3-.1.3-.6V8.9c-.07-1.09-.64-1.18-.64-1.57 0-.18.15-.37.4-.37h2.51c.34 0 .47.19.47.59v3.18c0 .35.15.47.25.47.2 0 .37-.12.74-.5 1.15-1.29 1.97-3.27 1.97-3.27a.7.7 0 01.7-.45h1.6c.48 0 .59.24.48.59-.2.93-2.16 3.7-2.16 3.7-.16.27-.23.4 0 .7.18.24.73.72 1.1 1.15A6.9 6.9 0 0119.01 15c.15.45-.08.68-.53.68z" fill="#fff"/></svg><svg fill="none" viewBox="0 0 29 21" id="footer-yt" xmlns="http://www.w3.org/2000/svg"><path d="M28.14 3.15A3.58 3.58 0 0025.62.62C23.4.01 14.44 0 14.44 0S5.5-.01 3.26.58A3.66 3.66 0 00.74 3.12c-.6 2.23-.6 6.87-.6 6.87s0 4.66.58 6.88a3.58 3.58 0 002.52 2.52C5.5 20 14.42 20 14.42 20s8.95.01 11.18-.58a3.6 3.6 0 002.53-2.51c.59-2.24.6-6.88.6-6.88s.02-4.66-.59-6.9zM11.58 14.29V5.72l7.44 4.3-7.44 4.27z" fill="#fff"/></svg><svg fill="none" viewBox="0 0 90 40" id="logo-desktop" xmlns="http://www.w3.org/2000/svg"><g clip-path="url(#anclip0)"><path d="M13.724 10.169h.82a1.04 1.04 0 01.757.335c.204.223.316.515.314.818v19.782h3.349V8.896h-5.24v1.273zM4.948 8.896h-3.51S.466 10.706 0 14.93h1.016c.633-4.202 2.185-4.927 3.688-4.927 1.265 0 2.026 1.175 2.056 2.426v6.812H5.627c-.749 0-1.033-.537-1.393-3.301h-.928v7.443h.936c.36-2.751.646-3.001 1.392-3.001h1.128v7.157c0 1.5-.98 2.359-2.058 2.359-1.078 0-2.568-.638-3.391-4.027H.222c.763 3.98 2.41 5.232 4.584 5.232h.147c2.47 0 5.095-2.186 5.095-7.002v-7.698c0-4.63-2.438-7.503-5.1-7.503m20.308-.005h-1.592l-4.656 11.292 3.59 10.916h3.354l-4.466-13.192 3.77-9.016z" fill="#3F5265"/><path d="M36.063 30.151c.866 0 1.58-1 1.61-2.226V12.077c-.03-1.238-.749-2.22-1.61-2.22-.86 0-1.579 1-1.609 2.23v15.831c.03 1.25.749 2.233 1.61 2.233z" fill="#C60440"/><path d="M35.494 40l3.68-10.239a4.165 4.165 0 01-1.399.976 4.157 4.157 0 01-1.672.332h-.09c-2.947 0-4.74-2.69-4.85-6.23v-4.126L24.218 40h11.276zm3.112-40l-3.231 8.988a3.848 3.848 0 01.643-.06h.09c2.994 0 4.79 3.38 4.868 6.975v8.866L49.904 0H38.606z" fill="#C60440"/><path d="M86.704 8.908L83.34 22.386V8.908h-5.155v1.273h.913a.997.997 0 01.749.335c.202.224.312.516.31.818v19.758h1.995l4.564-17.702v17.702h3.296V8.908h-3.308zm-39.278 1.286h.145a1.034 1.034 0 01.766.332 1.197 1.197 0 01.32.818V31.08h3.356V10.194h2.881v20.885h3.351V11.344a1.208 1.208 0 01.315-.818 1.04 1.04 0 01.768-.332h.145v-1.27H47.426v1.27zM69.47 29.886c-1.083 0-2.066-.855-2.066-2.35V12.44c.035-1.25.798-2.399 2.066-2.399 1.839 0 3.244 1.17 3.87 5.03h1.088c-.686-3.962-1.882-6.148-1.882-6.148h-3.343c-2.96 0-5.1 2.871-5.1 7.488v7.685c0 4.502 2.445 6.983 5.097 6.983h.14c3.014 0 4.978-2.426 5.45-7.738h-1.18c-.52 6.17-2.92 6.545-4.128 6.545" fill="#3F5265"/></g><defs><clipPath id="anclip0"><path fill="#fff" d="M0 0h90v40H0z"/></clipPath></defs></svg><svg fill="none" viewBox="0 0 89 40" id="logo-mobile" xmlns="http://www.w3.org/2000/svg"><g clip-path="url(#aoclip0)" fill="#fff"><path d="M13.572 10.169h.812c.14.001.28.032.408.09a1.031 1.031 0 01.34.245 1.204 1.204 0 01.31.818v19.782h3.312V8.896h-5.182v1.273zM4.893 8.896H1.421S.461 10.706 0 14.931h1.004c.627-4.202 2.162-4.927 3.647-4.927 1.251 0 2.004 1.175 2.033 2.426v6.812h-1.12c-.74 0-1.021-.537-1.377-3.3H3.27v7.442h.926c.355-2.751.639-3.001 1.377-3.001h1.115v7.158c0 1.5-.97 2.358-2.036 2.358s-2.539-.638-3.353-4.027H.22c.755 3.98 2.383 5.232 4.532 5.232h.146c2.443 0 5.039-2.186 5.039-7.002v-7.698c0-4.63-2.411-7.503-5.044-7.503m20.083-.005H23.4l-4.604 11.292 3.55 10.916h3.317l-4.417-13.192 3.728-9.016zm10.686 21.256c.856 0 1.562-1 1.591-2.226V12.077c-.03-1.238-.74-2.22-1.591-2.22s-1.562 1-1.592 2.23v15.831c.03 1.25.74 2.234 1.592 2.234z"/><path d="M35.1 40l3.64-10.239a4.119 4.119 0 01-1.384.976 4.071 4.071 0 01-1.654.332h-.089c-2.914 0-4.688-2.69-4.797-6.23v-4.126L23.95 40H35.1zm3.078-40l-3.196 8.988a3.764 3.764 0 01.637-.06h.044a.318.318 0 00.045 0c2.96 0 4.737 3.38 4.814 6.975v8.866L49.35 0H38.178zM85.74 8.908l-3.326 13.478V8.908h-5.098v1.273h.903a.975.975 0 01.406.087.987.987 0 01.335.248c.2.224.309.516.306.818v19.758h1.974l4.513-17.702v17.702h3.26V8.908H85.74zM46.9 10.194h.143a1.013 1.013 0 01.414.085c.13.058.247.142.344.247.204.223.317.515.316.818V31.08h3.319V10.194h2.85v20.885h3.313V11.344a1.215 1.215 0 01.311-.818 1.032 1.032 0 01.346-.247 1.018 1.018 0 01.414-.085h.143v-1.27H46.9v1.27zm21.798 19.692c-1.07 0-2.043-.855-2.043-2.35V12.44c.035-1.25.79-2.399 2.043-2.399 1.819 0 3.208 1.17 3.827 5.03h1.076c-.678-3.962-1.86-6.148-1.86-6.148h-3.307c-2.926 0-5.043 2.871-5.043 7.488v7.685c0 4.502 2.418 6.983 5.04 6.983h.139c2.98 0 4.923-2.426 5.389-7.738h-1.167c-.514 6.17-2.887 6.545-4.082 6.545"/></g><defs><clipPath id="aoclip0"><path fill="#fff" d="M0 0h89v40H0z"/></clipPath></defs></svg><svg fill="none" viewBox="0 0 31 30" id="pinkman" xmlns="http://www.w3.org/2000/svg"><path d="M30.004 15c0-8.282-6.718-15-15.004-15S0 6.718 0 15s6.718 15 15 15 15.004-6.714 15.004-15z" fill="#000"/><path d="M20.199 8.126c1.176.704 2.584 2.115 2.469 4.465 0 2.234-1.177 3.526-2.235 4.23a8.466 8.466 0 01-4.23 1.177h-2.704v4.938h-3.292V7.072h6.111c.942-.004 2.588.23 3.881 1.054z" fill="#EA0076"/><path d="M19.692 8.349c1.102.663 2.428 1.985 2.316 4.193 0 2.097-1.102 3.31-2.096 3.97a7.91 7.91 0 01-3.97 1.102h-2.536v4.633h-3.087V7.355h5.735c.882 0 2.428.22 3.638.994z" fill="#DA026F"/><path d="M19.189 8.569c1.032.618 2.268 1.854 2.164 3.917 0 1.96-1.032 3.091-1.959 3.713a7.417 7.417 0 01-3.713 1.032h-2.372v4.33h-2.882V7.642h5.359c.826 0 2.268.205 3.403.928z" fill="#CA0468"/><path d="M18.683 8.788c.957.578 2.108 1.725 2.015 3.643 0 1.82-.957 2.874-1.821 3.452a6.864 6.864 0 01-3.452.957H13.22v4.025h-2.685V7.928h4.986c.767 0 2.108.19 3.162.86z" fill="#BA0561"/><path d="M18.18 9.012c.887.532 1.952 1.594 1.862 3.37 0 1.683-.886 2.659-1.683 3.191a6.369 6.369 0 01-3.191.887h-2.041v3.724h-2.48V8.21h4.61c.704 0 1.948.179 2.923.8v.002z" fill="#AA0759"/><path d="M17.674 9.232c.815.488 1.791 1.467 1.709 3.094 0 1.55-.815 2.443-1.549 2.931a5.864 5.864 0 01-2.931.816H13.03v3.418h-2.279V8.498h4.238c.648 0 1.787.164 2.685.734z" fill="#9A0952"/><path d="M17.167 9.451c.741.447 1.631 1.337 1.561 2.82 0 1.41-.741 2.226-1.412 2.67a5.31 5.31 0 01-2.674.74h-1.705v3.117h-2.078V8.781h3.858c.596.004 1.635.153 2.45.67z" fill="#8A0B4B"/><path d="M16.665 9.675c.67.402 1.474 1.206 1.407 2.547 0 1.274-.67 2.01-1.273 2.413a4.821 4.821 0 01-2.413.67h-1.542v2.816h-1.877v-9.05h3.486c.536 0 1.474.134 2.212.603v.001z" fill="#7A0D44"/><path d="M16.158 9.894c.596.358 1.315 1.077 1.255 2.272 0 1.136-.599 1.795-1.136 2.152a4.31 4.31 0 01-2.152.6h-1.374v2.51h-1.676v-8.07h3.109c.481 0 1.315.12 1.974.536z" fill="#6A0F3D"/><path d="M15.652 10.118c.525.317 1.154.946 1.102 1.996 0 .998-.525 1.575-.998 1.892a3.767 3.767 0 01-1.892.525h-1.206v2.208h-1.471V9.641h2.733c.421 0 1.154.108 1.732.477z" fill="#5A1036"/><path d="M15.149 10.338c.454.272.998.815.953 1.724 0 .86-.454 1.359-.86 1.63a3.264 3.264 0 01-1.631.455h-1.043v1.903h-1.27V9.928h2.358c.357 0 .994.093 1.493.41z" fill="#4A122E"/><path d="M14.643 10.557c.379.228.837.686.8 1.45 0 .725-.38 1.142-.726 1.373-.38.227-.875.38-1.37.38h-.879v1.601h-1.069v-5.146h1.985c.305 0 .838.078 1.259.342z" fill="#3A1427"/><path d="M14.14 10.78c.309.187.681.556.648 1.178 0 .588-.309.927-.589 1.113-.309.186-.711.31-1.113.31h-.711v1.291h-.864v-4.17h1.608c.246 0 .678.063 1.021.279v-.001z" fill="#2A1620"/><path d="M13.633 11c.235.142.522.43.499.902 0 .45-.238.711-.45.853a1.714 1.714 0 01-.853.238h-.544v.994h-.666v-3.199h1.229c.193 0 .525.045.785.213z" fill="#1A1819"/><path d="M13.57 11.027c.227.137.503.41.477.867a.937.937 0 01-.108.467.936.936 0 01-.324.353 1.626 1.626 0 01-.82.227h-.525v.957h-.636v-3.076h1.184c.182 0 .503.045.752.205z" fill="#181818"/></svg><svg fill="none" viewBox="0 0 30 31" id="play" xmlns="http://www.w3.org/2000/svg"><path d="M27.013 12.932L13.77 5.312c-2-1.15-4.496.294-4.496 2.601v15.24c0 2.307 2.497 3.75 4.497 2.6l13.242-7.62c2.005-1.154 2.005-4.047 0-5.2z" fill="currentColor"/></svg><svg fill="none" viewBox="0 0 20 20" id="search" xmlns="http://www.w3.org/2000/svg"><g clip-path="url(#arclip0)"><path d="M0 0h20v20H0z"/><path d="M18.717 18.716l-5.134-5.134m.149-10.415A7.47 7.47 0 113.168 13.732 7.47 7.47 0 0113.732 3.167z" stroke="currentColor" stroke-width="2"/></g><defs><clipPath id="arclip0"><path fill="#fff" d="M0 0h20v20H0z"/></clipPath></defs></svg><svg fill="none" viewBox="0 0 27 18" id="show-btn" xmlns="http://www.w3.org/2000/svg"><g opacity=".3"><circle cx="4" cy="4" r="3" stroke="currentColor" stroke-width="2"/><path fill="currentColor" d="M7 3h20v2H7z"/><circle cx="13" cy="14" r="3" stroke="currentColor" stroke-width="2"/><path fill="currentColor" d="M16 13h11v2H16zM0 13h10v2H0z"/></g></svg><svg fill="none" viewBox="0 0 118 85" id="skolkovo" xmlns="http://www.w3.org/2000/svg"><path fill-rule="evenodd" clip-rule="evenodd" d="M118 84.296H0V0h118v84.296zm-97.524-23.04c-.202-.737-.602-2.166-2.707-2.166-1.224 0-3.073.876-3.073 4.32 0 2.188.924 4.215 3.073 4.215 1.414 0 2.405-.854 2.707-2.35h2.542c-.504 2.658-2.237 4.505-5.296 4.505-3.243 0-5.565-2.205-5.565-6.405 0-4.27 2.456-6.436 5.597-6.436 3.65 0 5.125 2.52 5.264 4.317h-2.542zm5.652 2.592l2.988-3.43h2.91l-3.176 3.494 3.261 5.55h-2.843l-2.155-3.885-.985 1.028v2.857h-2.371v-9.045h2.371v3.431zM36.18 69.7c2.421 0 4.608-1.517 4.608-4.777 0-3.261-2.187-4.74-4.608-4.74-2.417 0-4.622 1.497-4.622 4.76 0 3.262 2.205 4.757 4.622 4.757zm0-2.006c-1.832 0-2.184-1.613-2.184-2.771 0-1.16.352-2.737 2.184-2.737 1.833 0 2.169 1.595 2.169 2.758 0 1.155-.336 2.75-2.169 2.75zm13.519-7.276v9.045h-2.371V62.32h-2.538v2.79c0 3.459-1.042 4.55-2.708 4.55-.414 0-1.092-.067-1.442-.198v-1.769c.049.035.35.068.701.068.713 0 1.081-.352 1.081-3.106v-4.238h7.277zm6.57 0l-2.988 3.431v-3.43h-2.37v9.044h2.37v-2.857l.99-1.028 2.15 3.885h2.844l-3.265-5.55 3.18-3.495h-2.91zm11.671 4.505c0 3.26-2.183 4.777-4.604 4.777s-4.622-1.495-4.622-4.756c0-3.264 2.2-4.76 4.622-4.76s4.604 1.478 4.604 4.739zm-6.787 0c0 1.158.35 2.771 2.183 2.771 1.824 0 2.173-1.595 2.173-2.75 0-1.163-.349-2.758-2.173-2.758-1.832 0-2.183 1.577-2.183 2.737zm11.639-4.505h-4.083v9.046h4.533c2.048 0 3.316-.794 3.316-2.47 0-1.479-1.027-2.07-1.952-2.29.943-.238 1.684-.908 1.684-1.95 0-1.51-1.478-2.336-3.498-2.336zm-.17 3.662h-1.546v-2.03h1.563c.79 0 1.326.268 1.326 1.006 0 .709-.557 1.024-1.344 1.024zm.197 3.754h-1.743v-2.319h1.716c.875 0 1.446.366 1.446 1.156 0 .893-.543 1.163-1.419 1.163zm13.23-2.911c0 3.26-2.179 4.777-4.603 4.777-2.418 0-4.626-1.495-4.626-4.756 0-3.264 2.208-4.76 4.626-4.76 2.424 0 4.604 1.478 4.604 4.739zm-6.79 0c0 1.159.357 2.771 2.187 2.771 1.832 0 2.166-1.595 2.166-2.75 0-1.163-.334-2.758-2.166-2.758-1.83 0-2.187 1.577-2.187 2.737zM40.11 51.825c-3.718 2.715-8.694 3.07-10.715 3.07-14.057 0-16.506-8.146-16.506-12.937h7.723c0 2.182 1.17 6.28 8.199 6.28 3.835 0 8.098-.957 8.098-5.004 0-3.035-2.932-3.78-7.031-4.793l-7.774-1.914c-5.482-1.329-8.63-4.583-8.63-10.438 0-4.26 2.35-11.873 14.862-11.873 5.78 0 9.487 1.857 11.774 4.313v-3.303h7.51v20.876l9.471-10.867h9.215L56.244 36.31l10.331 17.574h-9.002l-6.82-12.3-3.132 3.243-.008 9.057H40.11v-2.06zM25.09 29.548l9.42 2.294c2.014.507 3.956 1.13 5.601 2.091v-7.206h-4.484c-.208-1.754-.85-5.858-7.879-5.858-3.087 0-6.763 1.172-6.763 4.635 0 3.03 2.503 3.672 4.105 4.044z" fill="#fff"/></svg><svg viewBox="0 0 62 62" id="solution1" xmlns="http://www.w3.org/2000/svg"><path d="M25.902 59.5h-15.68V61h15.68v-1.5zM18.05 17.927a4.615 4.615 0 01-2.546-.765 4.537 4.537 0 01-1.685-2.034 4.477 4.477 0 01-.257-2.618 4.51 4.51 0 011.26-2.316 4.594 4.594 0 012.35-1.233 4.627 4.627 0 012.647.268c.836.346 1.55.93 2.049 1.677.5.748.764 1.625.76 2.52a4.504 4.504 0 01-1.352 3.183 4.61 4.61 0 01-3.226 1.318zm0-7.55c-.605 0-1.197.177-1.7.51a3.033 3.033 0 00-1.127 1.357 2.992 2.992 0 00-.174 1.748c.118.587.41 1.126.837 1.549a3.093 3.093 0 003.335.656 3.053 3.053 0 001.373-1.115 3 3 0 00.516-1.68 3.013 3.013 0 00-.898-2.138 3.083 3.083 0 00-2.162-.887zM18.81 20.446h-1.517v6.485h1.517v-6.485zM24.929 37.91H11.182v-9.79h1.517v8.29h10.712v-8.29h1.518v9.79z" fill="currentColor" stroke="currentColor" stroke-width=".5"/><path d="M7.814 37.161H6.297v-11.66c0-3.46 2.023-5.784 5.058-5.784h13.377v1.5H11.375c-2.63 0-3.54 2.31-3.54 4.285l-.02 11.66zM29.804 37.161h-1.517v-11.66c0-2-.931-4.284-3.54-4.284v-1.5c3.034 0 5.057 2.325 5.057 5.785v11.66zM29.554 48.54h-3.601v-1.5h2.58l2.204-5.334H5.358l2.206 5.334h2.58v1.5H6.54l-2.726-6.604a1.242 1.242 0 01.122-1.176 1.266 1.266 0 011.057-.554h26.113a1.281 1.281 0 011.053.556 1.247 1.247 0 01.12 1.174l-2.726 6.604z" fill="currentColor" stroke="currentColor" stroke-width=".5"/><path d="M26.715 60.63h-1.518V45.75H10.904v14.88H9.387V45.344c0-.29.116-.569.324-.774.208-.205.49-.32.783-.32h15.118c.293 0 .573.117.78.322.207.205.323.483.323.772V60.63zM58.506 37.126H34.148a.763.763 0 01-.536-.22.745.745 0 010-1.06.763.763 0 01.536-.22h22.84V6.377H5.239v10.8c0 .199-.08.39-.222.53a.763.763 0 01-1.073 0 .746.746 0 01-.222-.53v-12.3h54.785v32.249z" fill="currentColor" stroke="currentColor" stroke-width=".5"/><path d="M58.396 6.377H3.838a2.75 2.75 0 01-2-.745A2.69 2.69 0 011 3.69a2.663 2.663 0 01.839-1.943 2.726 2.726 0 012-.745h54.557c.7.03 1.363.327 1.848.827.485.501.756 1.168.756 1.86 0 .694-.27 1.36-.756 1.861-.485.501-1.147.797-1.848.827zM3.838 2.502a1.217 1.217 0 00-.9.32 1.19 1.19 0 00-.381.868 1.178 1.178 0 00.38.868 1.206 1.206 0 00.901.32h54.558a1.21 1.21 0 00.8-.374 1.183 1.183 0 000-1.628 1.21 1.21 0 00-.8-.374H3.838zM44.177 26.96l-5.437-4.93-3.596 3.44a.762.762 0 01-.83.15.76.76 0 01-.405-.413.744.744 0 01.178-.816l4.623-4.42 5.401 4.9 8.983-9.08a.758.758 0 01.85-.22.76.76 0 01.435.42.743.743 0 01-.203.845l-9.999 10.125z" fill="currentColor" stroke="currentColor" stroke-width=".5"/></svg><svg viewBox="0 0 67 53" id="solution10" xmlns="http://www.w3.org/2000/svg"><path d="M37.725 25.898h3.49a.718.718 0 00.718-.716.716.716 0 00-.718-.716h-3.49a.718.718 0 00-.718.716.715.715 0 00.718.716zM33.244 13.625c2.711 0 4.916-2.63 4.916-5.863 0-3.231-2.205-5.852-4.916-5.852-2.711 0-4.911 2.625-4.911 5.852 0 3.228 2.205 5.863 4.911 5.863zm0-10.283c1.913 0 3.481 1.986 3.481 4.425 0 2.44-1.563 4.43-3.48 4.43-1.918 0-3.477-1.986-3.477-4.43s1.558-4.425 3.476-4.425zM51.55 15.572c2.156 0 3.911-2.076 3.911-4.63S53.706 6.31 51.549 6.31c-2.156 0-3.911 2.077-3.911 4.63 0 2.555 1.755 4.631 3.911 4.631zm0-7.829c1.367 0 2.476 1.432 2.476 3.199 0 1.766-1.109 3.198-2.477 3.198-1.367 0-2.477-1.432-2.477-3.198 0-1.767 1.11-3.199 2.477-3.199zM14.939 15.572c2.157 0 3.912-2.076 3.912-4.63S17.096 6.31 14.939 6.31s-3.912 2.077-3.912 4.63c0 2.555 1.755 4.631 3.912 4.631zm0-7.829c1.368 0 2.477 1.432 2.477 3.199 0 1.766-1.11 3.198-2.477 3.198-1.368 0-2.477-1.432-2.477-3.198 0-1.767 1.114-3.199 2.477-3.199z" fill="currentColor" stroke="currentColor" stroke-width=".5"/><path d="M60.673 28.567c-.157-1.776-.798-7.8-1.009-9.82a.721.721 0 00-.435-.582l-4.39-1.848a.717.717 0 00-.688.077l-2.597 1.828-2.596-1.828a.718.718 0 00-.689-.077l-3.897 1.633-6.255-4.106a.699.699 0 00-.87.062l-3.993 3.676-3.993-3.676a.699.699 0 00-.87-.062l-6.274 4.106-3.888-1.633a.723.723 0 00-.694.077l-2.596 1.828-2.597-1.828a.712.712 0 00-.688-.077l-4.395 1.848a.708.708 0 00-.43.582c-.22 2.02-.861 8.049-1.019 9.825a5.94 5.94 0 00-3.027 2.143 5.923 5.923 0 00-1.162 3.519v17.434h12.122v-3.136a5.16 5.16 0 011.516-3.648 5.179 5.179 0 013.654-1.513h28.663a5.184 5.184 0 013.655 1.513 5.166 5.166 0 011.519 3.648v3.136h12.117V34.234a5.933 5.933 0 00-1.164-3.522 5.949 5.949 0 00-3.03-2.145zm-9.84-9.099v5.729a.716.716 0 001.224.506.716.716 0 00.21-.506v-5.729l2.39-1.676 3.635 1.528c.33 3.117.765 7.309.928 9.004H45.83c-.148-1.962-.636-7.223-.808-9.07l3.429-1.433 2.381 1.647zm-13.055-4.1l5.776 3.77c.292 3.156.689 7.462.823 9.171h-8.13l-1.339-4.358 1.468-2.698a.72.72 0 00-.143-.868L34.3 18.618l3.477-3.25zm-4.907 9.218h.746l1.129 3.723h-2.999l1.124-3.723zm1.994-3.528l-1.143 2.096h-.956l-1.138-2.096 1.616-1.485 1.621 1.485zm-6.173-5.69l3.495 3.25-1.946 1.767a.725.725 0 00-.143.868l1.463 2.698-1.315 4.358h-8.13c.134-1.709.527-6.015.818-9.17l5.758-3.772zM8.206 19.32l3.634-1.528 2.391 1.676v5.729a.716.716 0 001.225.506.716.716 0 00.21-.506v-5.729l2.39-1.676 3.43 1.433c-.173 1.852-.66 7.113-.809 9.07H7.273c.163-1.666.603-5.858.933-8.975zm55.227 30.916h-9.249v-1.704a6.597 6.597 0 00-1.938-4.661 6.619 6.619 0 00-4.67-1.932H18.913a6.614 6.614 0 00-4.669 1.932 6.592 6.592 0 00-1.935 4.66v1.705H3.056V34.234a4.493 4.493 0 011.317-3.174 4.509 4.509 0 013.178-1.319h51.387a4.509 4.509 0 013.177 1.32 4.494 4.494 0 011.318 3.173v16.002z" fill="currentColor" stroke="currentColor" stroke-width=".5"/><path d="M47.896 37.714H18.592a.718.718 0 00-.717.716.715.715 0 00.717.716h29.304a.718.718 0 00.507-1.222.718.718 0 00-.507-.21z" fill="currentColor" stroke="currentColor" stroke-width=".5"/></svg><svg viewBox="0 0 44 67" id="solution11" xmlns="http://www.w3.org/2000/svg"><path d="M9.827 38.644v3.182h1.468V29.558c0-2.095.978-4.538 3.659-4.538h6.08v6.059h1.468v-6.06h6.06c2.7 0 3.66 2.444 3.66 4.539v12.268h1.467v-3.182a20.83 20.83 0 007.494-10.41 21.237 21.237 0 00.043-12.914 20.837 20.837 0 00-7.424-10.463A20.19 20.19 0 0021.758.858a20.19 20.19 0 00-12.044 4A20.837 20.837 0 002.29 15.32a21.237 21.237 0 00.043 12.913 20.83 20.83 0 007.494 10.411zM21.758 2.37a18.731 18.731 0 0110.967 3.547 19.315 19.315 0 016.942 9.354 19.708 19.708 0 01.366 11.724 19.38 19.38 0 01-6.344 9.785v-8.478c0-.647-.124-1.288-.366-1.886a4.936 4.936 0 00-1.047-1.6 4.827 4.827 0 00-1.566-1.069 4.754 4.754 0 00-1.85-.377H14.676a4.787 4.787 0 00-3.413 1.443 4.976 4.976 0 00-1.415 3.48v8.477a19.38 19.38 0 01-6.345-9.785 19.708 19.708 0 01.366-11.724 19.315 19.315 0 016.942-9.354 18.73 18.73 0 0110.967-3.547l-.019.01z" fill="currentColor" stroke="currentColor" stroke-width=".5"/><path d="M21.758 21.584a4.56 4.56 0 002.564-.802 4.696 4.696 0 001.696-2.118 4.799 4.799 0 00.257-2.722 4.741 4.741 0 00-1.268-2.409 4.596 4.596 0 00-2.367-1.285 4.54 4.54 0 00-2.67.27 4.643 4.643 0 00-2.071 1.736 4.779 4.779 0 00.582 5.953c.43.438.942.785 1.504 1.02a4.551 4.551 0 001.773.357zm0-7.93a3.113 3.113 0 011.749.55c.517.355.919.858 1.155 1.446.237.588.297 1.235.174 1.857a3.236 3.236 0 01-.867 1.644 3.137 3.137 0 01-1.616.876 3.1 3.1 0 01-1.82-.186 3.17 3.17 0 01-1.414-1.185 3.262 3.262 0 01.398-4.065 3.152 3.152 0 011.029-.696c.384-.161.796-.243 1.212-.24zM14.797 32.33v10.244h13.921V32.33h-1.467v8.747H16.264V32.33h-1.467zM35.053 45.057H8.457a1.243 1.243 0 00-.587.155c-.18.1-.335.242-.45.416a1.302 1.302 0 00-.122 1.195l2.769 6.912h2.905V66.47h1.468V50.807h14.636v15.664h1.467V53.735h2.906l2.749-6.912a1.31 1.31 0 00-.124-1.197 1.272 1.272 0 00-.451-.416 1.243 1.243 0 00-.59-.153h.02zm-2.592 7.182h-1.918v-1.82c0-.294-.114-.576-.318-.783a1.076 1.076 0 00-.768-.325H14.058c-.288 0-.564.117-.768.325-.203.207-.318.489-.318.782v1.82h-1.917l-2.28-5.684H34.73l-2.27 5.685z" fill="currentColor" stroke="currentColor" stroke-width=".5"/></svg><svg viewBox="0 0 63 63" id="solution12" xmlns="http://www.w3.org/2000/svg"><path d="M22.963 18.485l4.264-2.787.065 2.862a4.933 4.933 0 001.777 3.687l2.027 1.69v3.112h1.497V23.91l2.032-1.689a4.966 4.966 0 001.777-3.687l.065-2.862 4.268 2.812c.305 3.253.75 8.174.754 8.569h1.498c0-.545-.66-7.644-.794-9.058a.75.75 0 00-.334-.56l-5.692-3.727a.606.606 0 00-.06-.04.739.739 0 00-.788.06 5.793 5.793 0 01-6.914 0 .728.728 0 00-.854 0l-5.7 3.677a.75.75 0 00-.335.58c-.13 1.414-.789 8.493-.789 9.058h1.498c.005-.41.449-5.331.738-8.559zm11.981-2.817l-.03 2.817a3.444 3.444 0 01-1.238 2.568l-1.822 1.5-1.817-1.5a3.422 3.422 0 01-1.238-2.568l-.065-2.857a7.274 7.274 0 006.245.015l-.035.025zM31.854 13.424c2.696 0 4.892-2.617 4.892-5.835 0-3.217-2.196-5.835-4.892-5.835-2.695 0-4.897 2.618-4.897 5.835s2.201 5.835 4.897 5.835zm0-10.172c1.872 0 3.395 1.944 3.395 4.337s-1.498 4.337-3.395 4.337-3.4-1.934-3.4-4.337c0-2.403 1.533-4.337 3.4-4.337zM23.208 50.545l-5.691-3.722a.46.46 0 00-.06-.045.748.748 0 00-.789.06 5.793 5.793 0 01-6.919 0 .75.75 0 00-.788-.06.468.468 0 00-.06.045L3.21 50.545a.749.749 0 00-.335.56c-.13 1.418-.789 8.493-.789 9.062h1.498c0-.395.45-5.316.749-8.563l4.253-2.793.065 2.868a4.93 4.93 0 001.777 3.682l2.052 1.689v3.117h1.497V57.05l1.997-1.689a4.961 4.961 0 001.778-3.682l.065-2.863 4.258 2.788c.304 3.247.748 8.169.753 8.563h1.498c0-.544-.659-7.644-.794-9.063a.75.75 0 00-.324-.56zm-6.944 1.099a3.459 3.459 0 01-1.238 2.568l-1.822 1.499-1.817-1.5a3.441 3.441 0 01-1.238-2.567l-.065-2.858a7.274 7.274 0 006.245 0l-.065 2.858zM13.204 46.563c2.696 0 4.892-2.618 4.892-5.835 0-3.218-2.196-5.836-4.892-5.836s-4.887 2.618-4.887 5.836c0 3.217 2.191 5.835 4.887 5.835zm0-10.172c1.872 0 3.395 1.944 3.395 4.337s-1.523 4.336-3.395 4.336-3.39-1.943-3.39-4.336c0-2.393 1.523-4.337 3.39-4.337zM60.843 50.34a.751.751 0 00-.334-.56l-5.691-3.727a.63.63 0 00-.06-.04.739.739 0 00-.789.06 5.793 5.793 0 01-6.914 0 .738.738 0 00-.789-.06s-.04.03-.064.04l-5.691 3.728a.754.754 0 00-.34.559c-.13 1.414-.789 8.493-.789 9.058h1.498c0-.395.45-5.316.749-8.568l4.263-2.788.065 2.863a4.95 4.95 0 001.777 3.687l2.027 1.688v3.113h1.497V56.28l2.032-1.688a4.945 4.945 0 001.777-3.687l.065-2.863 4.259 2.788c.304 3.252.748 8.173.753 8.568h1.498c-.005-.545-.664-7.644-.799-9.058zm-7.278.535a3.446 3.446 0 01-1.238 2.568l-1.822 1.498-1.817-1.498a3.42 3.42 0 01-1.239-2.568l-.064-2.858a7.24 7.24 0 006.245 0l-.065 2.858zM50.505 45.799c2.696 0 4.892-2.618 4.892-5.836 0-3.217-2.196-5.835-4.892-5.835s-4.887 2.618-4.887 5.84c0 3.223 2.191 5.83 4.887 5.83zm0-10.172c1.872 0 3.395 1.943 3.395 4.336 0 2.393-1.498 4.337-3.395 4.337s-3.39-1.944-3.39-4.332 1.523-4.341 3.39-4.341zM32.648 37.83v-6.854a.75.75 0 10-1.497 0v6.854l-6.27 6.275a.744.744 0 000 1.06.748.748 0 001.058 0l5.96-5.966 5.871 5.875a.754.754 0 001.064 0 .755.755 0 000-1.059l-6.186-6.185z" fill="currentColor" stroke="currentColor" stroke-width=".5"/></svg><svg viewBox="0 0 54 62" id="solution2" xmlns="http://www.w3.org/2000/svg"><path d="M26.999 35.586a17.507 17.507 0 01-9.677-2.915 17.32 17.32 0 01-6.415-7.76 17.177 17.177 0 01-.991-9.992 17.255 17.255 0 014.767-8.854A17.458 17.458 0 0123.6 1.332a17.535 17.535 0 0110.063.984 17.391 17.391 0 017.817 6.37 17.205 17.205 0 012.936 9.607 17.25 17.25 0 01-5.108 12.222A17.502 17.502 0 0127 35.585zm0-33.129c-3.155 0-6.238.929-8.861 2.669a15.86 15.86 0 00-5.875 7.107 15.73 15.73 0 00-.908 9.15 15.802 15.802 0 004.365 8.107 15.986 15.986 0 008.167 4.334c3.094.611 6.301.297 9.216-.901a15.926 15.926 0 007.158-5.833 15.754 15.754 0 002.688-8.797A15.793 15.793 0 0038.273 7.1 16.024 16.024 0 0027 2.457z" fill="currentColor" stroke="currentColor" stroke-width=".5"/><path d="M40.25 19.021a.736.736 0 01-.518-.213.726.726 0 01-.215-.516 12.39 12.39 0 00-3.665-8.79 12.571 12.571 0 00-8.85-3.645.737.737 0 01-.52-.213.726.726 0 01.52-1.244 14.05 14.05 0 019.886 4.074 13.847 13.847 0 014.097 9.818.726.726 0 01-.215.516.737.737 0 01-.52.213zM30.166 41.604H23.83v-6.747h1.468v5.29h3.4v-5.29h1.468v6.747zM24.055 24.982h-5.87a.737.737 0 01-.52-.214.726.726 0 01-.215-.515v-7.898c0-.194.078-.379.215-.516a.736.736 0 01.52-.213h5.87c.195 0 .382.077.52.213a.726.726 0 01.214.516v7.898a.726.726 0 01-.215.515.737.737 0 01-.519.214zm-5.157-1.458h4.404v-6.44h-4.404v6.44z" fill="currentColor" stroke="currentColor" stroke-width=".5"/><path d="M29.945 24.982h-5.87a.737.737 0 01-.52-.214.726.726 0 01-.215-.515v-11.92c0-.194.078-.379.215-.516a.737.737 0 01.52-.213h5.87c.195.001.38.079.518.215a.731.731 0 01.216.514v11.92a.726.726 0 01-.215.515.737.737 0 01-.519.214zm-5.156-1.458h4.403V13.061h-4.403v10.463z" fill="currentColor" stroke="currentColor" stroke-width=".5"/><path d="M35.831 24.982H29.96a.737.737 0 01-.519-.214.726.726 0 01-.215-.515v-7.898c0-.194.077-.379.215-.516a.736.736 0 01.519-.213h5.871c.195 0 .381.077.52.213a.726.726 0 01.214.516v7.898a.726.726 0 01-.215.515.737.737 0 01-.519.214zm-5.152-1.458h4.404v-6.44h-4.404v6.44zM5.148 50.896a.732.732 0 01-.676-.44.719.719 0 01.148-.789L7.644 46.5a.737.737 0 011.256.483.726.726 0 01-.19.518l-3.028 3.167a.728.728 0 01-.534.228zM13.99 50.901a.732.732 0 01-.534-.228l-3.023-3.167a.729.729 0 01-.182-.823.727.727 0 01.425-.4.74.74 0 01.818.222l3.024 3.162a.726.726 0 01-.025 1.03.726.726 0 01-.503.204zM16.775 50.896a.742.742 0 01-.672-.444.73.73 0 01.139-.79l3.224-3.37a.736.736 0 011.256.483.725.725 0 01-.19.517l-3.223 3.4a.752.752 0 01-.534.204z" fill="currentColor" stroke="currentColor" stroke-width=".5"/><path d="M3.76 54.364c-.546 0-1.08-.16-1.534-.461a2.744 2.744 0 01-1.016-1.23 2.721 2.721 0 01.598-2.985 2.778 2.778 0 013.007-.594c.505.207.936.558 1.239 1.009.303.45.465.98.465 1.522a2.735 2.735 0 01-.81 1.936 2.774 2.774 0 01-1.95.803zm0-4.021a1.298 1.298 0 00-1.194.791 1.274 1.274 0 00.28 1.398 1.294 1.294 0 001.408.278 1.276 1.276 0 00.42-2.092 1.296 1.296 0 00-.915-.376zM9.573 48.283c-.546 0-1.08-.16-1.533-.462a2.744 2.744 0 01-1.016-1.23 2.721 2.721 0 01.598-2.985 2.777 2.777 0 013.007-.594c.504.208.935.559 1.238 1.01a2.725 2.725 0 01-.343 3.459 2.762 2.762 0 01-1.951.802zm0-4.017a1.299 1.299 0 00-1.194.793 1.274 1.274 0 00.282 1.398 1.294 1.294 0 001.41.275 1.289 1.289 0 00.794-1.189 1.27 1.27 0 00-.379-.905 1.287 1.287 0 00-.913-.372zM15.384 54.364a2.774 2.774 0 01-1.538-.452 2.745 2.745 0 01-1.025-1.225 2.722 2.722 0 01.585-2.992 2.778 2.778 0 013.01-.603c.505.207.937.558 1.241 1.009.305.45.467.981.467 1.524a2.735 2.735 0 01-.803 1.929 2.774 2.774 0 01-1.937.81zm0-4.022a1.298 1.298 0 00-1.207.779 1.274 1.274 0 00.267 1.404 1.294 1.294 0 001.41.286 1.289 1.289 0 00.802-1.186c0-.337-.133-.66-.371-.9a1.296 1.296 0 00-.901-.383zM31.256 54.7a.737.737 0 01-.518-.214.726.726 0 01-.215-.515V42.42a.813.813 0 00-.24-.576.825.825 0 00-.578-.24h-5.41a.825.825 0 00-.582.239.813.813 0 00-.24.577V53.97a.726.726 0 01-.216.515.737.737 0 01-1.253-.515V42.42a2.27 2.27 0 01.672-1.606 2.303 2.303 0 011.618-.667h5.411a2.299 2.299 0 011.616.667c.429.426.67 1.004.67 1.606V53.97a.726.726 0 01-.216.515.737.737 0 01-.519.214z" fill="currentColor" stroke="currentColor" stroke-width=".5"/><path d="M29.705 61h-5.41a2.303 2.303 0 01-1.619-.667 2.27 2.27 0 01-.672-1.606V53.97c0-.193.078-.378.215-.515a.737.737 0 011.253.515v4.756c0 .216.087.424.24.577a.825.825 0 00.582.239h5.411a.825.825 0 00.579-.24.813.813 0 00.239-.576V53.97c0-.193.077-.378.215-.515a.736.736 0 011.252.515v4.756c0 .602-.24 1.18-.669 1.606a2.298 2.298 0 01-1.616.667zM48.846 50.897a.743.743 0 01-.534-.229l-3.023-3.167a.728.728 0 01.54-1.266.737.737 0 01.521.266l3.029 3.167a.726.726 0 01-.533 1.229zM40.01 50.901a.727.727 0 01-.49-.204.726.726 0 01-.03-1.03l3.025-3.162a.737.737 0 011.195.505.725.725 0 01-.144.496l-3.023 3.167a.74.74 0 01-.533.228zM37.205 50.896a.732.732 0 01-.533-.228l-3.224-3.4a.728.728 0 01.54-1.266.737.737 0 01.522.265l3.224 3.371a.732.732 0 01-.529 1.258z" fill="currentColor" stroke="currentColor" stroke-width=".5"/><path d="M50.24 54.364c-.546 0-1.08-.16-1.533-.461a2.744 2.744 0 01-1.017-1.23 2.722 2.722 0 01.599-2.985 2.778 2.778 0 013.007-.594c.504.207.935.558 1.238 1.009.304.45.465.98.465 1.522a2.734 2.734 0 01-.81 1.936 2.774 2.774 0 01-1.95.803zm0-4.021a1.298 1.298 0 00-1.193.791 1.273 1.273 0 00.28 1.398 1.294 1.294 0 001.407.278 1.276 1.276 0 000-2.37 1.3 1.3 0 00-.494-.098zM44.422 48.283c-.545 0-1.079-.16-1.532-.462a2.745 2.745 0 01-1.017-1.23 2.722 2.722 0 01.598-2.985 2.777 2.777 0 013.007-.594c.505.208.936.559 1.239 1.01.303.45.465.98.465 1.521a2.735 2.735 0 01-.81 1.936 2.775 2.775 0 01-1.95.804zm0-4.017a1.299 1.299 0 00-1.193.793 1.273 1.273 0 00.282 1.398 1.294 1.294 0 001.41.275 1.289 1.289 0 00.793-1.189 1.278 1.278 0 00-.38-.903 1.297 1.297 0 00-.912-.374zM38.615 54.364c-.545 0-1.079-.16-1.533-.461a2.745 2.745 0 01-1.016-1.23 2.722 2.722 0 01.598-2.985 2.778 2.778 0 013.007-.594c.505.207.936.558 1.239 1.009.303.45.465.98.465 1.522a2.735 2.735 0 01-.81 1.936 2.774 2.774 0 01-1.95.803zm0-4.021a1.298 1.298 0 00-1.193.791 1.273 1.273 0 00.28 1.398 1.294 1.294 0 001.408.278 1.276 1.276 0 00.418-2.09 1.301 1.301 0 00-.913-.378z" fill="currentColor" stroke="currentColor" stroke-width=".5"/></svg><svg viewBox="0 0 51 62" id="solution3" xmlns="http://www.w3.org/2000/svg"><path d="M25.33 41.7a.665.665 0 01-.455-.169l-3.987-3.454a.687.687 0 11.91-1.028l3.532 3.09 3.536-3.068a.687.687 0 01.91 1.029l-3.987 3.454a.665.665 0 01-.46.146zM39.191 54.724a.686.686 0 11-.136-1.365l9.066-1.843-1.707-8.556a8.405 8.405 0 00-2.872-4.801 6.69 6.69 0 00-2.758-1.461l-7.9-2.276a2.393 2.393 0 01-1.711-2.02l-.405-3.495.305-.233a12.801 12.801 0 004.364-6.876l.123-.455.455-.046c1.042-.09 1.857-1.397 1.857-2.971 0-1.466-.692-2.7-1.648-2.94a.683.683 0 11.332-1.325c1.58.396 2.681 2.148 2.681 4.265 0 2.116-1.097 3.822-2.617 4.246a14.173 14.173 0 01-4.432 6.945l.318 2.73a1.048 1.048 0 00.746.87l7.855 2.275c1.217.31 2.344.9 3.29 1.725a9.762 9.762 0 013.341 5.588l1.97 9.867-10.375 2.13-.142.022zM11.467 54.702a.74.74 0 01-.14 0L1 52.558l1.97-9.866a9.725 9.725 0 013.346-5.589 8.064 8.064 0 013.358-1.743l7.782-2.275a1.048 1.048 0 00.746-.87l.315-2.73a14.222 14.222 0 01-4.433-6.945c-1.524-.419-2.617-2.143-2.617-4.246 0-2.103 1.065-3.805 2.59-4.237a.681.681 0 01.625 1.194.682.682 0 01-.248.117c-.928.273-1.601 1.506-1.601 2.926 0 1.575.81 2.88 1.847 2.972l.478.045.123.455a12.807 12.807 0 004.378 6.895l.3.232-.41 3.509a2.392 2.392 0 01-1.71 2.025l-7.828 2.276a6.771 6.771 0 00-2.826 1.479 8.356 8.356 0 00-2.876 4.778l-1.703 8.556 8.998 1.866a.686.686 0 11-.137 1.365v-.045z" fill="currentColor" stroke="currentColor" stroke-width=".5"/><path d="M14.243 15.404a.678.678 0 01-.678-.655c0-.264-.25-6.554 3.586-10.563C19.172 2.069 21.935 1 25.343 1c3.409 0 6.19 1.074 8.192 3.186 3.814 4.01 3.545 10.285 3.532 10.549a.684.684 0 01-1.366-.068c0-.06.246-5.967-3.185-9.557-1.693-1.835-4.119-2.745-7.154-2.745-3.036 0-5.462.91-7.223 2.763-3.44 3.609-3.213 9.525-3.213 9.561a.683.683 0 01-.65.715h-.033z" fill="currentColor" stroke="currentColor" stroke-width=".5"/><path d="M30.581 10.958a14.93 14.93 0 01-1.715-.1c-2.08-.228-3.814-1.07-5.493-1.889-.455-.214-.91-.455-1.366-.642-1.747-.796-3.222-.987-4.382-.564-.835.29-1.53.885-1.944 1.666a.682.682 0 11-1.224-.601A4.81 4.81 0 0117.17 6.46c1.506-.55 3.331-.345 5.41.606.456.214.911.455 1.366.66 1.648.796 3.186 1.556 5.047 1.756a10.65 10.65 0 006.276-1.015.683.683 0 11.623 1.216 11.401 11.401 0 01-5.31 1.274zM22.694 18.912h-5.006a1.27 1.27 0 01-1.265-1.265v-2.794a1.265 1.265 0 011.265-1.265h5.006a1.265 1.265 0 011.265 1.265v2.794a1.27 1.27 0 01-1.265 1.265zm-4.92-1.365h4.82v-2.594h-4.82v2.594zM33.044 18.912h-5.006a1.265 1.265 0 01-1.265-1.265v-2.794a1.262 1.262 0 011.265-1.265h5.006a1.265 1.265 0 011.265 1.265v2.794a1.27 1.27 0 01-1.265 1.265zm-4.915-1.365h4.815v-2.594H28.13v2.594z" fill="currentColor" stroke="currentColor" stroke-width=".5"/><path d="M27.445 16.41H23.3a.683.683 0 010-1.366h4.17a.683.683 0 010 1.366h-.024zM17.093 16.227a.68.68 0 01-.278-.059l-2.853-1.274a.682.682 0 11.555-1.247l2.867 1.274a.682.682 0 01-.278 1.306h-.013zM33.627 16.227a.682.682 0 01-.282-1.306l2.79-1.274a.684.684 0 01.568 1.242l-2.79 1.275a.727.727 0 01-.286.063zM25.362 38a.683.683 0 01-.455-.173l-6.408-5.74a.684.684 0 01.91-1.019l5.953 5.33 5.952-5.33a.683.683 0 11.91 1.02l-6.407 5.739a.683.683 0 01-.455.173zM25.33 61a.677.677 0 01-.164-.023L11.3 57.514a.674.674 0 01-.514-.66V40.898a.683.683 0 01.847-.664l13.862 3.463a.687.687 0 01.537.665v15.955a.687.687 0 01-.683.683h-.018zm-13.198-4.678l12.534 3.122V44.88L12.15 41.772l-.018 14.55z" fill="currentColor" stroke="currentColor" stroke-width=".5"/><path d="M25.33 61a.687.687 0 01-.683-.683V44.362a.688.688 0 01.519-.665l13.862-3.463a.682.682 0 01.847.664v15.956a.673.673 0 01-.515.66l-13.866 3.463a.677.677 0 01-.164.023zm.7-16.106v14.563l12.498-3.122V41.772L26.03 44.894z" fill="currentColor" stroke="currentColor" stroke-width=".5"/><path d="M28.851 49.764a.687.687 0 01-.154-1.366l7.104-1.665a.687.687 0 01.314 1.333l-7.109 1.661a.838.838 0 01-.155.037zM28.851 52.881a.687.687 0 11-.154-1.365L35.8 49.85a.687.687 0 01.737 1.024.677.677 0 01-.423.305l-7.109 1.666a.838.838 0 01-.155.036z" fill="currentColor" stroke="currentColor" stroke-width=".5"/></svg><svg viewBox="0 0 52 61" id="solution4" xmlns="http://www.w3.org/2000/svg"><path d="M25.922 19.08c-3.808 0-7.592-.59-11.218-1.75a.727.727 0 01-.473-.91.726.726 0 01.914-.472 35.347 35.347 0 0021.55 0 .73.73 0 01.914.471.724.724 0 01-.473.911 36.866 36.866 0 01-11.214 1.75zM49.824 60.167H2.176a1.19 1.19 0 01-.902-.416 1.187 1.187 0 01-.247-1.01l1.881-9.398a9.992 9.992 0 013.447-5.738 8.285 8.285 0 013.462-1.794l8-2.32a.91.91 0 00.285-.136 1.031 1.031 0 00.451-.73l.32-2.818a14.59 14.59 0 01-4.548-7.106c-1.56-.445-2.685-2.219-2.685-4.35 0-2.133 1.1-3.921 2.68-4.352a.732.732 0 01.9.5.724.724 0 01-.502.898c-.94.246-1.6 1.498-1.6 2.953 0 1.6.825 2.925 1.877 3.022l.509.048.13.483a13.081 13.081 0 004.48 7.034l.32.252-.412 3.586a2.48 2.48 0 01-1.086 1.775c-.213.145-.45.255-.698.324l-8.063 2.33a6.974 6.974 0 00-2.908 1.508 8.528 8.528 0 00-2.943 4.906l-1.809 9.099H49.48l-1.823-9.099a8.528 8.528 0 00-2.942-4.906 6.98 6.98 0 00-2.851-1.499l-8.087-2.34a2.326 2.326 0 01-.693-.323 2.475 2.475 0 01-1.057-1.77l-.417-3.587.325-.251a13.082 13.082 0 004.455-7.034l.131-.483.485-.049c1.057-.096 1.881-1.42 1.881-3.021 0-1.45-.683-2.707-1.629-2.973a.73.73 0 01-.5-.9.728.728 0 01.903-.497c1.575.45 2.68 2.248 2.68 4.35 0 2.104-1.124 3.926-2.685 4.351a14.589 14.589 0 01-4.528 7.121l.32 2.79a1.005 1.005 0 00.45.73.912.912 0 00.286.135l8.024 2.35a8.25 8.25 0 013.394 1.783 10.002 10.002 0 013.49 5.748l1.886 9.422a1.162 1.162 0 01-.242.967 1.187 1.187 0 01-.911.435z" fill="currentColor" stroke="currentColor" stroke-width=".5"/><path d="M14.52 21.406a.734.734 0 01-.726-.696 18.591 18.591 0 01.417-4.24.727.727 0 01.865-.558.729.729 0 01.56.863 17.163 17.163 0 00-.388 3.867.72.72 0 01-.674.76l-.053.004zM37.295 21.382h-.034a.726.726 0 01-.649-.479.72.72 0 01-.04-.28 17.3 17.3 0 00-.368-3.838.726.726 0 01.555-.868.731.731 0 01.87.554 18.2 18.2 0 01.393 4.206.725.725 0 01-.727.705zM25.941 48.377a.718.718 0 01-.523-.223l-7.452-7.7a.724.724 0 01.541-1.213c.19 0 .37.075.506.207l7.452 7.681a.724.724 0 010 1.025.717.717 0 01-.524.223z" fill="currentColor" stroke="currentColor" stroke-width=".5"/><path d="M25.941 48.376a.73.73 0 01-.669-.441.723.723 0 01.146-.787l7.432-7.7a.728.728 0 011.21.767.726.726 0 01-.163.238l-7.432 7.682a.717.717 0 01-.524.241z" fill="currentColor" stroke="currentColor" stroke-width=".5"/><path d="M25.942 53.414a.728.728 0 01-.728-.725v-5.057a.724.724 0 01.728-.725.728.728 0 01.727.725v5.057a.723.723 0 01-.45.67.728.728 0 01-.277.055zM36.918 17.364a.728.728 0 01-.727-.725V9.306a.724.724 0 01.727-.725.728.728 0 01.727.725v7.333a.725.725 0 01-.727.726zM14.926 17.365a.728.728 0 01-.727-.725V9.31a.724.724 0 01.727-.724.728.728 0 01.727.725v7.329a.724.724 0 01-.727.725z" fill="currentColor" stroke="currentColor" stroke-width=".5"/><path d="M25.924 12.826a.675.675 0 01-.223-.039L7.41 7.286a.727.727 0 01-.532-.699.724.724 0 01.532-.698l18.404-4.864a.715.715 0 01.378 0L44.415 5.89a.727.727 0 01.532.698.724.724 0 01-.532.699l-18.253 5.496a.646.646 0 01-.238.044zm-15.64-6.193l15.64 4.709L41.57 6.633 26.002 2.476 10.284 6.633z" fill="currentColor" stroke="currentColor" stroke-width=".5"/><path d="M44.223 15.15a.728.728 0 01-.727-.724V6.59a.724.724 0 01.727-.726.728.728 0 01.727.726v7.836a.724.724 0 01-.727.725z" fill="currentColor" stroke="currentColor" stroke-width=".5"/><path d="M42.235 18.23a.758.758 0 01-.397-.116.73.73 0 01-.213-1.005l1.987-3.055a.726.726 0 011.025-.251.726.726 0 01.197 1.034l-1.988 3.084a.736.736 0 01-.61.31z" fill="currentColor" stroke="currentColor" stroke-width=".5"/><path d="M46.217 18.23a.728.728 0 01-.615-.31l-1.988-3.103a.723.723 0 01.275-.916.729.729 0 01.947.152l1.992 3.075a.728.728 0 01-.61 1.121v-.019zM41.879 53.414h-7.02a.728.728 0 01-.728-.725.724.724 0 01.728-.725h7.02a.728.728 0 01.727.725.724.724 0 01-.727.725z" fill="currentColor" stroke="currentColor" stroke-width=".5"/></svg><svg viewBox="0 0 59 60" id="solution5" xmlns="http://www.w3.org/2000/svg"><g clip-path="url(#bbclip0)" fill="currentColor" stroke="currentColor" stroke-width=".5"><path d="M24.4 33.042v-2.256l3.167-3.3 3.937 1.145c.462.128.89.359 1.253.675a3.955 3.955 0 011.34 2.26l.946 4.77a.761.761 0 00.74.614c.05.005.1.005.15 0a.76.76 0 00.481-.325.77.77 0 00.114-.572l-.952-4.77a5.457 5.457 0 00-1.847-3.148 4.456 4.456 0 00-1.838-.974l-4.087-1.201a.106.106 0 01-.05-.091l-.142-1.202a7.772 7.772 0 002.185-3.457 2.641 2.641 0 001.089-1.053c.253-.45.37-.965.336-1.482a2.795 2.795 0 00-1.118-2.347c-.03-.891-.18-1.774-.443-2.626v-.035a6.677 6.677 0 00-1.47-2.575 5.939 5.939 0 00-4.53-1.78 5.968 5.968 0 00-2.452.405 6.002 6.002 0 00-2.08 1.37 6.86 6.86 0 00-1.51 2.63c.003.01.003.021 0 .031-.264.85-.414 1.731-.447 2.62a2.786 2.786 0 00-1.062 2.327 2.671 2.671 0 00.336 1.482c.253.45.631.816 1.088 1.053a7.808 7.808 0 002.18 3.457l-.161 1.166c0 .041-.026.071-.091.112l-3.987 1.166a4.521 4.521 0 00-1.898 1.014 5.452 5.452 0 00-1.863 3.133l-.946 4.77a.77.77 0 00.114.572.76.76 0 00.48.325h.146a.752.752 0 00.74-.613l.947-4.77a3.974 3.974 0 011.344-2.262 3.09 3.09 0 011.314-.689l3.87-1.13 3.167 3.3v2.256c0 .201.08.395.221.537a.752.752 0 001.29-.537v.005zm2.664-20.911c.372.402.673.865.89 1.369a5.305 5.305 0 01-2.386.223 7.36 7.36 0 01-2.461-.872l-.725-.35a5.007 5.007 0 00-2.014-.507 4.572 4.572 0 013.293-1.16 4.502 4.502 0 013.403 1.297zm-8.221 8.263l-.136-.507-.504-.05c-.286 0-.588-.508-.588-1.136 0-.629.271-1.055.533-1.13h.07l.056-.026.08-.05.04-.026.076-.066.03-.03a.504.504 0 00.06-.082.112.112 0 00.026-.04.411.411 0 00.04-.081.239.239 0 000-.05.517.517 0 000-.087v-.06a.46.46 0 000-.087v-.056A8.5 8.5 0 0119 14.26c.173-.289.44-.51.755-.623a2.632 2.632 0 011.948.278l.69.335a8.847 8.847 0 002.965 1.014c.31.036.62.054.931.056a6.283 6.283 0 002.07-.34c.127.604.187 1.222.175 1.84-.003.1.013.2.046.294l.045.091a.15.15 0 00.07.03l.051.072.035.045c.016.02.035.037.056.05l.05.052a.743.743 0 00.262.127c.267.07.543.506.543 1.135 0 .628-.312 1.11-.589 1.135l-.503.046-.136.507a6.225 6.225 0 01-2.104 3.35l-.338.264.237 2.028c.018.168.066.33.141.482l-2.739 2.874-2.733-2.854a1.8 1.8 0 00.14-.507l.232-2.028-.332-.263a6.236 6.236 0 01-2.124-3.356z"/><path d="M47.044 24.616a23.68 23.68 0 00-3.935-13.097A23.435 23.435 0 0032.61 2.832a23.248 23.248 0 00-13.523-1.346A23.348 23.348 0 007.102 7.934 23.613 23.613 0 00.696 20 23.715 23.715 0 002.03 33.62a23.528 23.528 0 008.625 10.574 23.283 23.283 0 0013.005 3.965 23.337 23.337 0 0016.523-6.905 23.666 23.666 0 006.86-16.637zm-45.282 0a22.15 22.15 0 013.678-12.25 21.922 21.922 0 019.818-8.126 21.748 21.748 0 0112.646-1.265A21.842 21.842 0 0139.117 9a22.089 22.089 0 015.998 11.282 22.185 22.185 0 01-1.238 12.737 22.01 22.01 0 01-8.057 9.898 21.78 21.78 0 01-12.16 3.72 21.831 21.831 0 01-15.47-6.45 22.14 22.14 0 01-6.428-15.57z"/><path d="M57.203 53.065L45.569 41.35a26.833 26.833 0 005.356-16.125.763.763 0 00-.22-.538.752.752 0 00-1.29.538 25.5 25.5 0 01-1.916 9.7 25.359 25.359 0 01-5.456 8.222 25.16 25.16 0 01-8.166 5.495 25.021 25.021 0 01-9.633 1.93c-.2 0-.392.08-.534.222a.763.763 0 00.534 1.298 26.424 26.424 0 0016.03-5.399l11.633 11.71a3.737 3.737 0 002.641 1.073 3.737 3.737 0 002.628-1.105 3.79 3.79 0 001.1-2.645 3.79 3.79 0 00-1.063-2.66h-.01zm-1.067 4.264a2.24 2.24 0 01-1.586.662 2.228 2.228 0 01-1.586-.663L41.451 45.736a27.02 27.02 0 003.166-3.194L56.136 54.14a2.264 2.264 0 010 3.188z"/></g><defs><clipPath id="bbclip0"><path fill="#fff" d="M0 0h59v60H0z"/></clipPath></defs></svg><svg viewBox="0 0 83 47" id="solution6" xmlns="http://www.w3.org/2000/svg"><path d="M82.588 1.95a.92.92 0 00-.873-.093l-17.907 7.31a.942.942 0 00-.595.886c.001.127.027.252.077.368l.58 1.418-7.06 2.968-10.716-2.548c-1.822-.376-3.48-.627-5.314.195l-2.845 1.255c-4.852-1.054-10.44-.74-11.657-.628l-7.136-3.049.58-1.424a.94.94 0 00-.511-1.255L1.285.069a.924.924 0 00-.873.094A.927.927 0 000 .934v33.028a.945.945 0 00.586.853l6.419 2.56a.98.98 0 00.349.063.931.931 0 00.867-.584l3.118-7.704 8.01 3.137 1.172-2.755c.673.496 1.69 1.255 2.962 2.247l-.068.069a2.846 2.846 0 00-.712 2.117 2.857 2.857 0 001.03 1.98c.44.36.971.59 1.534.659a3.42 3.42 0 00-.143 1.254c.06.833.43 1.612 1.038 2.181.608.57 1.406.886 2.236.887.277-.002.552-.042.818-.119.14.748.536 1.422 1.12 1.906a3.219 3.219 0 002.828.648c.107.554.361 1.068.735 1.49.374.42.853.732 1.389.901a3.101 3.101 0 003.103-.735l1.066 1.03a3.401 3.401 0 003.462.771 3.285 3.285 0 001.871-1.575c.427.17.877.27 1.335.295h.287c1.247 0 2.95-.52 4.366-2.792h.293c.361 0 .72-.04 1.073-.12a4.562 4.562 0 002.046-1.061 4.601 4.601 0 001.272-1.931 3.31 3.31 0 00.624-.069 3.441 3.441 0 001.532-.797 3.47 3.47 0 00.957-1.443 3.156 3.156 0 00-.512-3.03l-.318-.402 5.127-1.644.78 1.839 8.008-3.137 3.12 7.704a.927.927 0 00.86.584c.12 0 .238-.02.35-.063l6.417-2.56a.943.943 0 00.593-.878V2.728a.928.928 0 00-.412-.777zM41.534 14.174c1.217-.54 2.364-.445 4.16-.075l10.523 2.51 1.94 4.567 1.746 4.11a8.904 8.904 0 01-7.959.89l-.792-.332a10.967 10.967 0 01-1.185-.627 16.164 16.164 0 01-4.435-4.204c-1.141-1.569-2.357-2.365-3.63-2.365h-.25c-2.07.169-3.243 2.384-3.374 2.635l-.03.069c-.624 1.562-1.41 2.51-2.302 2.867a2.624 2.624 0 01-2.133-.226.783.783 0 01-.375-.935l1.123-3.84a4.99 4.99 0 011.035-1.901 4.955 4.955 0 011.74-1.28l4.198-1.863zM6.836 35.298l-4.99-1.976V2.34L17.64 8.77 6.836 35.298zm11.508-5.408l-6.281-2.46 6.374-15.685 6.456 2.767-6.55 15.378zm6.237 3.947a.977.977 0 01.244-.716l.143-.163 1.64 1.337-.075.081a1.151 1.151 0 01-1.602.126.92.92 0 01-.35-.665zm2.907 4.856A1.386 1.386 0 0127 37.72a1.417 1.417 0 01.343-1.022l.892-1.042c.699.628 1.429 1.217 2.17 1.882l-.96 1.042a1.394 1.394 0 01-1.958.113zm3.986 2.51a1.41 1.41 0 01-.452-.981 1.419 1.419 0 01.37-1.015l.418-.458c.678.611 1.368 1.238 2.071 1.883l-.443.477a1.4 1.4 0 01-1.965.094zm3.898 2.46a1.258 1.258 0 01-.119-1.701c.474.451.948.916 1.429 1.386l.374.364a1.243 1.243 0 01-1.684-.05zm21.232-8.22a1.296 1.296 0 01.206 1.255 1.608 1.608 0 01-1.176 1.04 1.588 1.588 0 01-1.494-.47l-8.558-9.135a.935.935 0 00-1.62.618.946.946 0 00.254.675l8.558 9.154c.237.247.508.458.804.627a2.7 2.7 0 01-1.909 1.606 2.79 2.79 0 01-2.675-.803l-7.204-7.585a.932.932 0 00-1.595.633.944.944 0 00.242.666l7.222 7.579c.345.365.745.672 1.185.91a2.937 2.937 0 01-2.595 1.443 2.833 2.833 0 01-1.914-.992l-5.976-6.657a.94.94 0 00-1.303-.069.935.935 0 00-.258 1.015.935.935 0 00.19.316l5.956 6.657c.093.1.187.2.287.294a1.447 1.447 0 01-.88.816 1.514 1.514 0 01-1.553-.351l-2.782-2.686a153.488 153.488 0 00-16.728-14.223l5.47-12.862c2.81-.167 5.63-.087 8.427.238a6.827 6.827 0 00-2.433 3.539l-1.116 3.846c-.175.6-.135 1.241.112 1.815.248.573.687 1.04 1.241 1.322a4.471 4.471 0 003.624.288c1.379-.527 2.495-1.825 3.35-3.87.224-.421.972-1.513 1.87-1.582.899-.069 1.66.828 2.196 1.562a17.792 17.792 0 006.287 5.396c0 .038.05.082.075.113l5.046 6.362.387.552h.037l.743.948zm5.526-4.957l-5.614 1.795-2.663-3.765a9.87 9.87 0 006.824-1.45l.212.503 1.24 2.917zm2.532 1.192l-2.657-6.192-3.886-9.192 6.462-2.736 6.368 15.686-6.287 2.434zm16.485 3.426l-4.99 1.983L65.38 10.553l15.768-6.425v30.976z" fill="currentColor"/></svg><svg viewBox="0 0 72 61" id="solution7" xmlns="http://www.w3.org/2000/svg"><path d="M70.609 4.031a2.83 2.83 0 00-.823-1.99 2.794 2.794 0 00-1.98-.825H11.607a2.785 2.785 0 00-1.84.86A2.819 2.819 0 009.69 5.88a2.787 2.787 0 001.803.936v11.36c0 .209.082.409.229.556a.779.779 0 001.334-.556V6.852h53.307v31.716H31.66a.78.78 0 00-.552.23.789.789 0 00.552 1.343h36.266V6.815a2.79 2.79 0 001.894-.853c.499-.518.782-1.209.789-1.93zM67.806 5.28H11.607a1.233 1.233 0 01-1.218-.749 1.255 1.255 0 01.29-1.406 1.24 1.24 0 01.928-.335h56.199a1.233 1.233 0 011.218.749 1.253 1.253 0 01-.72 1.67c-.16.058-.329.082-.498.071z" fill="currentColor" stroke="currentColor" stroke-width=".5"/><path d="M27.784 58.447h-2.006c-.08-.987-.4-1.94-.932-2.773a4.531 4.531 0 00-1.334-1.358c-1.214-.781-2.006-1.798-2.12-2.716-.271-2.154 1.682-3.78 1.698-3.795a.785.785 0 00.292-.624l-.084-1.987a28.265 28.265 0 006.028-9.683c7.351-.456 8.054-8.723 8.06-8.807a.785.785 0 00-.465-.782.793.793 0 00-.312-.067h-5.35a24.764 24.764 0 00-.13-4.02.792.792 0 00-.777-.677H7.815a.778.778 0 00-.771.676c-.156 1.335-.2 2.68-.13 4.021H1.562a.783.783 0 00-.74.53.797.797 0 00-.042.32c0 .083.714 8.35 8.065 8.806a28.177 28.177 0 006.038 9.683l-.088 1.987a.796.796 0 00.312.624s1.954 1.614 1.683 3.795c-.114.918-.912 1.935-2.12 2.716-.535.352-.99.815-1.334 1.358a6.164 6.164 0 00-.938 2.773h-2.026a.779.779 0 00-.553.23.789.789 0 00.553 1.343h17.411a.779.779 0 00.553-.23.79.79 0 00-.553-1.343zm3.35-31.02h4.569a10.685 10.685 0 01-1 2.9 6.339 6.339 0 01-1.97 2.38 6.287 6.287 0 01-2.855 1.158 31.626 31.626 0 001.256-6.437zM8.539 22.71h21.084c.198 2.715.365 13.106-7.393 21.294h-6.304C8.19 35.837 8.336 25.451 8.54 22.731v-.021zm-6.09 4.718h4.574a31.566 31.566 0 001.255 6.432c-4.25-.64-5.49-4.645-5.83-6.432zm11.503 31.019a4.505 4.505 0 01.672-1.914c.222-.357.52-.66.87-.89.766-.525 2.579-1.862 2.824-3.843.307-2.438-1.256-4.268-1.944-4.939l.058-1.253h5.319l.052 1.258c-.693.672-2.271 2.501-1.964 4.944.25 1.982 2.084 3.345 2.829 3.843.35.231.646.535.87.89.364.58.594 1.234.672 1.914l-10.258-.01zM49.129 19.397l-9.45 9.499a.788.788 0 00.551 1.342.795.795 0 00.553-.23l8.335-8.389 3.913 3.943 8.117-8.168v2.003h1.563v-4.718h-4.689v1.572h2.011l-6.992 7.072-3.912-3.926z" fill="currentColor" stroke="currentColor" stroke-width=".5"/></svg><svg viewBox="0 0 63 53" id="solution8" xmlns="http://www.w3.org/2000/svg"><path d="M59.877 1.366H4.153A1.578 1.578 0 002.58 2.92v33.756a1.574 1.574 0 001.573 1.585h19.219c.044.546.14 1.088.287 1.616l-6.122 6.127h6.067v6.058l6.118-6.131c1.5.419 3.086.419 4.586 0l6.118 6.113v-6.04h6.072l-6.122-6.136a9.01 9.01 0 00.282-1.607h19.22a1.578 1.578 0 001.572-1.576V2.92a1.576 1.576 0 00-1.573-1.554zm-34.905 47.37v-4.099h-4.135l3.324-3.361a8.75 8.75 0 004.134 4.131l-3.323 3.33zm-.264-11.159a7.284 7.284 0 014.502-6.733 7.3 7.3 0 017.949 1.58A7.286 7.286 0 0132 44.865a7.297 7.297 0 01-5.157-2.134 7.285 7.285 0 01-2.136-5.154zm18.485 7.06h-4.135v4.1l-3.341-3.339a8.75 8.75 0 004.134-4.131l3.342 3.37zm16.89-7.962a.21.21 0 01-.206.21H40.654a8.651 8.651 0 00-2.74-5.71 8.665 8.665 0 00-11.797 0 8.651 8.651 0 00-2.74 5.71H4.152a.21.21 0 01-.205-.21V2.92a.205.205 0 01.205-.187h55.724a.205.205 0 01.205.205v33.737z" fill="currentColor" stroke="currentColor" stroke-width=".5"/><path d="M32.015 25.052a11.946 11.946 0 00-8.497 3.516.683.683 0 00.966.965 10.658 10.658 0 0115.044 0 .684.684 0 00.966-.965 11.939 11.939 0 00-8.479-3.516zM44.392 16.17H19.894a.684.684 0 100 1.366h24.498a.684.684 0 100-1.366zM48.686 10.476H15.56a.684.684 0 100 1.366h33.127a.684.684 0 100-1.366z" fill="currentColor" stroke="currentColor" stroke-width=".5"/></svg><svg viewBox="0 0 40 56" id="solution9" xmlns="http://www.w3.org/2000/svg"><path d="M34.707 6.228h-8.516v-.931c0-.376-.151-.736-.42-1.001a1.452 1.452 0 00-1.016-.417h-1.363a3.4 3.4 0 00-1.125-2.193A3.501 3.501 0 0019.94.803c-.86 0-1.69.314-2.328.883a3.4 3.4 0 00-1.125 2.193H14.75c-.382 0-.748.15-1.018.415-.27.266-.422.627-.422 1.003v.931H5.176a3.446 3.446 0 00-2.413.986c-.64.63-1 1.484-1.002 2.376v41.72c0 .892.36 1.747 1 2.378.64.632 1.509.987 2.415.988h29.531a3.446 3.446 0 002.413-.986c.64-.63 1-1.484 1.001-2.376V9.59a3.34 3.34 0 00-1.001-2.376 3.446 3.446 0 00-2.413-.986zm-14.75-4.024c.494 0 .974.165 1.36.47.386.304.654.73.76 1.205h-4.255c.107-.478.378-.905.766-1.21a2.19 2.19 0 011.368-.465zm-5.363 3.093c0-.036.015-.071.04-.097a.14.14 0 01.099-.04h10.022a.136.136 0 01.125.085.13.13 0 01.01.052v5.878a.357.357 0 01-.109.256.369.369 0 01-.26.107.377.377 0 01-.245-.09.366.366 0 01-.124-.226v-.129a4.142 4.142 0 00-1.4-2.592 4.264 4.264 0 00-2.791-1.036 4.264 4.264 0 00-2.79 1.036 4.142 4.142 0 00-1.401 2.592v.129a.362.362 0 01-.122.225.372.372 0 01-.242.09h-.413a.373.373 0 01-.34-.224.358.358 0 01-.028-.139l-.03-5.877zM36.833 51.31a2.055 2.055 0 01-.623 1.477 2.122 2.122 0 01-1.503.608H5.176a2.13 2.13 0 01-1.494-.61 2.064 2.064 0 01-.62-1.47V9.59c.002-.552.225-1.08.62-1.47.397-.39.934-.61 1.494-.61h8.117v3.665c.002.435.179.851.492 1.158.313.308.736.48 1.178.482h.412a1.69 1.69 0 001.103-.411c.305-.264.502-.628.554-1.024v-.124c.091-.695.436-1.333.97-1.795a2.95 2.95 0 011.93-.717c.712 0 1.398.255 1.932.717.534.462.878 1.1.969 1.795v.123c.053.416.265.796.593 1.063a1.688 1.688 0 002.284-.144c.29-.306.451-.709.45-1.128V7.51h8.547c.56 0 1.097.22 1.493.61.396.39.619.918.62 1.47l.013 41.72z" fill="currentColor" stroke="currentColor" stroke-width=".5"/><path d="M26.907 11.542h5.83v32.22l-5.687 5.6H7.158v-37.82h5.831V10.26H5.853v40.384h21.74l6.446-6.352V10.26h-7.132v1.282z" fill="currentColor" stroke="currentColor" stroke-width=".5"/><path d="M13.549 30.016l-1.098-1.08-.92.905 2.044 2.012 3.705-3.866-.946-.88-2.785 2.91zM11.692 18.158l1.475 1.453-1.475 1.452.92.906 1.475-1.453 1.475 1.453.92-.906-1.476-1.452 1.476-1.453-.92-.91-1.475 1.457-1.475-1.456-.92.91zM15.562 36.893l-1.475 1.457-1.475-1.457-.92.91 1.475 1.453-1.475 1.452.92.905 1.475-1.452 1.475 1.452.92-.905-1.476-1.453 1.476-1.452-.92-.91zM29.991 20.875H18.785v1.282h11.206v-1.282zM29.991 30.52H18.785v1.282h11.206V30.52zM25.375 47.576c0 .17.069.333.19.453a.656.656 0 00.92 0 .635.635 0 00.192-.453v-4.181h4.247a.656.656 0 00.46-.188.636.636 0 000-.906.656.656 0 00-.46-.188h-5.549v5.463z" fill="currentColor" stroke="currentColor" stroke-width=".5"/></svg><svg fill="none" viewBox="0 0 40 40" id="tg" xmlns="http://www.w3.org/2000/svg"><rect x="1.25" y="1.25" width="37.5" height="37.5" rx="18.75" stroke="currentColor" stroke-width="2.5"/><path fill-rule="evenodd" clip-rule="evenodd" d="M10.267 20.846l4.74 1.489 9.373-5.928c1.414-.893 1.916-.825.454.486l-7.325 6.612 2.662 2.005 4.37 3.29c.669.429 1.368.142 1.582-.616.893-4.303 1.765-8.607 2.674-12.905.631-2.977-.194-2.507-2.679-1.55l-6.834 2.631-8.74 3.369c-.622.198-.705 1.003-.277 1.118z" fill="currentColor"/></svg><svg fill="none" viewBox="0 0 40 40" id="tw" xmlns="http://www.w3.org/2000/svg"><rect x="1.25" y="1.25" width="37.5" height="37.5" rx="18.75" stroke="currentColor" stroke-width="2.5"/><path fill-rule="evenodd" clip-rule="evenodd" d="M30 14.777a8 8 0 01-2.24.595 3.81 3.81 0 001.713-2.096 7.95 7.95 0 01-2.475.92A3.949 3.949 0 0024.152 13c-2.151 0-3.897 1.697-3.897 3.788 0 .297.034.587.102.862a11.168 11.168 0 01-8.033-3.958 3.696 3.696 0 00-.528 1.903c0 1.314.69 2.474 1.735 3.152a3.975 3.975 0 01-1.766-.474v.047c0 1.834 1.344 3.366 3.127 3.713a4.055 4.055 0 01-1.026.132c-.253 0-.496-.024-.734-.069.496 1.505 1.936 2.601 3.64 2.631a7.962 7.962 0 01-4.842 1.623 8.627 8.627 0 01-.93-.053A11.263 11.263 0 0016.975 28c7.169 0 11.089-5.771 11.089-10.777 0-.165-.003-.328-.011-.49a7.765 7.765 0 001.944-1.962l.003.006z" fill="currentColor"/></svg><svg fill="none" viewBox="0 0 40 40" id="vk" xmlns="http://www.w3.org/2000/svg"><rect x="1.25" y="1.25" width="37.5" height="37.5" rx="18.75" stroke="currentColor" stroke-width="2.5"/><path fill-rule="evenodd" clip-rule="evenodd" d="M19.764 25.95h1.316s.396-.042.599-.252c.187-.192.18-.552.18-.552s-.025-1.687.794-1.935c.806-.245 1.844 1.63 2.942 2.351.832.546 1.462.427 1.462.427l2.939-.04s1.537-.09.808-1.246c-.06-.094-.425-.854-2.185-2.416-1.842-1.635-1.595-1.371.624-4.198 1.351-1.723 1.892-2.774 1.723-3.224-.161-.43-1.155-.315-1.155-.315l-3.308.02s-.245-.033-.427.07c-.177.103-.292.34-.292.34s-.524 1.333-1.222 2.466c-1.473 2.392-2.062 2.518-2.303 2.37-.56-.346-.42-1.39-.42-2.132 0-2.318.367-3.284-.716-3.535-.359-.083-.624-.138-1.544-.146-1.18-.011-2.18.003-2.744.268-.377.176-.667.568-.49.591.218.028.713.128.976.47.34.44.327 1.43.327 1.43s.195 2.728-.455 3.068c-.445.232-1.058-.242-2.37-2.412-.673-1.111-1.181-2.34-1.181-2.34s-.099-.23-.273-.353c-.212-.148-.508-.195-.508-.195l-3.144.02s-.471.011-.645.208c-.155.175-.012.536-.012.536s2.46 5.505 5.248 8.278c2.555 2.544 5.456 2.377 5.456 2.377z" fill="currentColor"/></svg></svg>