<svg width="20" height="24" fill="none" xmlns="http://www.w3.org/2000/svg"><path fill-rule="evenodd" clip-rule="evenodd" d="M0 3.25C0 1.455 1.455 0 3.25 0H17v4.5h3V24H3c-1.6568 0-3-1.3431-3-3V3.25zm2 3.001V21c0 .5523.4477 1 1 1h15V6.5H3.25A3.24 3.24 0 0 1 2 6.251zM2 3.25c0 .6904.5596 1.25 1.25 1.25H15V2H3.25C2.5596 2 2 2.5596 2 3.25z" fill="#fff"/><path fill-rule="evenodd" clip-rule="evenodd" d="M4 10c0-.5523.4477-1 1-1h9c.5523 0 1 .4477 1 1s-.4477 1-1 1H5c-.5523 0-1-.4477-1-1zM4 14c0-.5523.4477-1 1-1h9c.5523 0 1 .4477 1 1s-.4477 1-1 1H5c-.5523 0-1-.4477-1-1zM4 18c0-.5523.4477-1 1-1h5c.5523 0 1 .4477 1 1s-.4477 1-1 1H5c-.5523 0-1-.4477-1-1z" fill="#fff"/></svg>