<svg width="72" height="62" fill="none" xmlns="http://www.w3.org/2000/svg"><path d="M28.9305 57.2041a27.7944 27.7944 0 0 1-13.1662-3.318c-4.0509-2.1785-7.5052-5.3285-10.057-9.1711-2.552-3.8425-4.1225-8.259-4.5728-12.8582A28.259 28.259 0 0 1 3.126 18.348c1.7577-4.2697 4.5348-8.0373 8.0854-10.9692C14.7619 4.447 18.9763 2.4415 23.4812 1.54a27.7647 27.7647 0 0 1 13.5565.6703c4.3953 1.3416 8.394 3.7531 11.6418 7.021a.8208.8208 0 0 1 .259.585.8251.8251 0 0 1-.0591.3213.8196.8196 0 0 1-.1793.2725.8133.8133 0 0 1-.5901.2398.8137.8137 0 0 1-.5814-.2606c-4.3026-4.3293-9.964-7.0236-16.0196-7.6239-6.0556-.6002-12.1307.9308-17.1902 4.3321C9.2593 10.4988 5.5284 15.56 3.762 21.4188c-1.7665 5.8588-1.4594 12.1526.869 17.809 2.3285 5.6565 6.5343 10.3256 11.9006 13.2119 5.3663 2.8862 11.5613 3.811 17.5293 2.6167 5.9681-1.1943 11.3399-4.4337 15.2003-9.1663 3.8603-4.7326 5.9703-10.6656 5.9705-16.7881a26.7123 26.7123 0 0 0-.6243-5.7405.8288.8288 0 0 1 .11-.6167.8198.8198 0 0 1 .5089-.361.8048.8048 0 0 1 .6153.1068.8105.8105 0 0 1 .2297.2219.819.819 0 0 1 .1267.2939 28.283 28.283 0 0 1-.067 12.4659c-.9492 4.0979-2.8006 7.9291-5.4175 11.2112-2.617 3.282-5.9327 5.9311-9.7028 7.752a27.8004 27.8004 0 0 1-12.0802 2.7686z" fill="currentColor" stroke="currentColor" stroke-width=".5"/><path d="M7.4085 29.9488a.812.812 0 0 1-.5758-.24.8219.8219 0 0 1-.2385-.5793c0-5.9636 2.3527-11.6833 6.5412-15.9028 4.1884-4.2194 9.8702-6.5935 15.7972-6.6007.216 0 .4231.0863.5758.24a.822.822 0 0 1 .2385.5793.8219.8219 0 0 1-.2385.5793.8117.8117 0 0 1-.5758.24c-5.4908.0058-10.7551 2.203-14.6377 6.1095-3.8826 3.9066-6.0663 9.2034-6.0721 14.728a.8206.8206 0 0 1-.2287.5971.8106.8106 0 0 1-.5856.2496z" fill="currentColor" stroke="currentColor" stroke-width=".5"/><path d="M28.9319 45.5369a16.2544 16.2544 0 0 1-7.6708-1.9228c-2.3619-1.2631-4.3794-3.0906-5.8751-5.3218a16.4983 16.4983 0 0 1-2.7034-7.4744 16.5276 16.5276 0 0 1 1.1015-7.8764c1.0026-2.4951 2.5988-4.7044 4.6484-6.4336a16.2958 16.2958 0 0 1 7.1066-3.4839 16.2375 16.2375 0 0 1 7.9003.2819 16.31 16.31 0 0 1 6.8436 3.9815.8269.8269 0 0 1 .0271 1.1634.8141.8141 0 0 1-1.1563.0273c-2.5416-2.4538-5.8744-3.9078-9.3917-4.0974-3.5174-.1895-6.9855.898-9.7731 3.0646-2.7875 2.1666-4.7092 5.2683-5.4153 8.7405-.706 3.4722-.1495 7.0841 1.5683 10.1782s4.4827 5.4647 7.7914 6.6804a14.6161 14.6161 0 0 0 10.2365-.0566c3.2952-1.2523 6.034-3.6534 7.7179-6.7663 1.6838-3.1129 2.2008-6.7307 1.4569-10.1949a.8246.8246 0 0 1 .1147-.6174.8155.8155 0 0 1 .515-.3549.8115.8115 0 0 1 .6135.1155.8205.8205 0 0 1 .3527.5181 16.5498 16.5498 0 0 1-.104 7.2577 16.493 16.493 0 0 1-3.198 6.5063 16.3685 16.3685 0 0 1-5.6694 4.4883 16.2695 16.2695 0 0 1-7.0373 1.5967zM9.5445 60.9999a.7999.7999 0 0 1-.4343-.1256.8167.8167 0 0 1-.2309-.2199.8223.8223 0 0 1-.1381-.612.8227.8227 0 0 1 .1139-.2987l4.8856-7.8107a.8195.8195 0 0 1 .2109-.2625.8112.8112 0 0 1 .6329-.1754.8104.8104 0 0 1 .3147.1168.8176.8176 0 0 1 .2412.2347.8233.8233 0 0 1-.0262.9549l-4.8857 7.8161a.8218.8218 0 0 1-.2937.2786.8153.8153 0 0 1-.3903.1037zM48.3152 61.0001a.8044.8044 0 0 1-.3941-.1011.8109.8109 0 0 1-.2953-.2812l-4.8857-7.8162a.823.823 0 0 1 0-.9344.8177.8177 0 0 1 .2368-.2272.8092.8092 0 0 1 .6334-.0994.8124.8124 0 0 1 .2944.1438.8168.8168 0 0 1 .2142.2488l4.8857 7.8107a.8222.8222 0 0 1 .103.6197.822.822 0 0 1-.1311.2919.8166.8166 0 0 1-.2324.219.7674.7674 0 0 1-.4289.1256z" fill="currentColor" stroke="currentColor" stroke-width=".5"/><path d="M28.9302 29.949a.8114.8114 0 0 1-.502-.171.8201.8201 0 0 1-.2911-.4456.824.824 0 0 1 .0432-.5315.8165.8165 0 0 1 .3591-.3922L52.262 15.2999a.8102.8102 0 0 1 .9191.0628.8157.8157 0 0 1 .2092.2492.823.823 0 0 1-.0922.9222.816.816 0 0 1-.2544.2023L29.3211 29.8452a.7889.7889 0 0 1-.3909.1038z" fill="currentColor" stroke="currentColor" stroke-width=".5"/><path d="M59.435 18.6255a.8508.8508 0 0 1-.2063-.0273l-7.5673-2.0264 1.9977-7.614a.821.821 0 0 1 .1399-.2871.8156.8156 0 0 1 .2384-.2113.8112.8112 0 0 1 .6178-.0833.812.812 0 0 1 .2853.1407.8181.8181 0 0 1 .2101.24.8252.8252 0 0 1 .0828.6216l-1.5743 6.03 5.9714 1.6058a.8202.8202 0 0 1 .5447.3153.8298.8298 0 0 1-.1497 1.1587.817.817 0 0 1-.6068.1646l.0163-.0273z" fill="currentColor" stroke="currentColor" stroke-width=".5"/><path d="M64.8233 15.545a.9442.9442 0 0 1-.2117-.0273l-7.5674-2.0264 2.0411-7.614a.8227.8227 0 0 1 .1399-.2872.8158.8158 0 0 1 .2384-.2113.8114.8114 0 0 1 .6179-.0833.8127.8127 0 0 1 .2853.1408.8227.8227 0 0 1 .2928.8615l-1.596 6.0082 5.9714 1.6058a.8146.8146 0 0 1 .4673.3349.823.823 0 0 1-.1372 1.0716.8112.8112 0 0 1-.5364.2048l-.0054.0219z" fill="currentColor" stroke="currentColor" stroke-width=".5"/><path d="M70.2095 12.4702a.7114.7114 0 0 1-.2117-.0273l-7.5674-2.021 2.014-7.614a.821.821 0 0 1 .1399-.2871.8156.8156 0 0 1 .2384-.2113.811.811 0 0 1 .6178-.0833.8127.8127 0 0 1 .2854.1407.8194.8194 0 0 1 .3128.5425.8252.8252 0 0 1-.02.319l-1.596 6.0083 5.9714 1.6003a.8145.8145 0 0 1 .468.336.824.824 0 0 1 .1308.5634.821.821 0 0 1-.2718.5098.811.811 0 0 1-.5387.2021l.0271.0219zM34.3083 31.6252a.8225.8225 0 0 1-.228-.0328l-6.3242-1.8571 1.3897-6.2103a.821.821 0 0 1 .128-.2928.8153.8153 0 0 1 .5259-.337.8115.8115 0 0 1 .3178.0071.82.82 0 0 1 .5112.3631.8293.8293 0 0 1 .1077.6201l-1.0857 4.7082 4.8856 1.4256a.8151.8151 0 0 1 .4565.3427.8227.8227 0 0 1 .1216.5597.8207.8207 0 0 1-.2725.5031.8118.8118 0 0 1-.5336.2004z" fill="currentColor" stroke="currentColor" stroke-width=".5"/></svg>
