<svg width="16" height="10" fill="none" xmlns="http://www.w3.org/2000/svg"><path fill-rule="evenodd" clip-rule="evenodd" d="M8.07 9.54h.9s.27-.03.41-.18c.13-.13.12-.4.12-.4s-.01-1.2.55-1.38c.55-.18 1.26 1.17 2.02 1.69.57.39 1 .3 1 .3l2.02-.03s1.05-.06.55-.9c-.04-.06-.29-.6-1.5-1.73-1.26-1.17-1.1-.98.43-3 .93-1.25 1.3-2 1.18-2.32-.1-.31-.79-.23-.79-.23l-2.27.01s-.17-.02-.3.06c-.11.07-.2.24-.2.24s-.35.96-.83 1.77c-1.01 1.72-1.42 1.8-1.58 1.7-.39-.25-.29-1-.29-1.53 0-1.66.25-2.36-.5-2.54-.24-.06-.42-.1-1.05-.1-.81-.01-1.5 0-1.89.19-.25.13-.45.4-.33.42.15.02.49.1.67.34.23.32.22 1.03.22 1.03s.14 1.96-.3 2.2c-.31.17-.73-.17-1.64-1.73-.46-.8-.8-1.68-.8-1.68s-.07-.17-.2-.25c-.14-.11-.34-.14-.34-.14l-2.16.01s-.32 0-.44.15c-.1.13-.01.38-.01.38s1.69 3.96 3.6 5.95c1.75 1.82 3.75 1.7 3.75 1.7z" fill="#fff"/></svg>