<svg width="23" height="22" fill="none" xmlns="http://www.w3.org/2000/svg"><path d="M11.72 7.33a3.68 3.68 0 000 7.34 3.68 3.68 0 000-7.34zm11 3.67c0-1.52.01-3.02-.07-4.54-.09-1.76-.49-3.32-1.78-4.61-1.29-1.3-2.85-1.7-4.6-1.78C14.73 0 13.23 0 11.71 0S8.7 0 7.18.07C5.42.16 3.86.56 2.57 1.85 1.27 3.14.87 4.7.79 6.45.71 7.99.72 9.49.72 11s-.01 3.02.07 4.54c.09 1.76.5 3.32 1.78 4.61 1.29 1.3 2.85 1.7 4.61 1.78 1.52.08 3.03.07 4.54.07 1.52 0 3.03.01 4.54-.07 1.76-.09 3.33-.49 4.61-1.78 1.3-1.29 1.7-2.85 1.78-4.6.09-1.53.07-3.03.07-4.55zm-11 5.64a5.64 5.64 0 11-.02-11.27 5.64 5.64 0 01.02 11.27zm5.87-10.2a1.32 1.32 0 110-2.63 1.32 1.32 0 010 2.63z" fill="#fff"/></svg>
