<svg width="23" height="22" fill="none" xmlns="http://www.w3.org/2000/svg"><path d="M15.1 0H8.35C2.18 0 .72 1.46.72 7.62v6.76C.72 20.54 2.18 22 8.35 22h6.75c6.16 0 7.62-1.46 7.62-7.62V7.62C22.72 1.46 21.25 0 15.1 0zm3.38 15.7h-1.6c-.6 0-.79-.49-1.87-1.59-.95-.92-1.37-1.04-1.6-1.04-.33 0-.42.1-.42.55v1.44c0 .39-.13.62-1.15.62-1.7 0-3.57-1.02-4.9-2.93-1.98-2.8-2.52-4.9-2.52-5.33 0-.23.09-.45.54-.45h1.6c.4 0 .56.19.71.62.8 2.29 2.11 4.29 2.66 4.29.2 0 .3-.1.3-.6V8.9c-.07-1.09-.64-1.18-.64-1.57 0-.18.15-.37.4-.37h2.51c.34 0 .47.19.47.59v3.18c0 .35.15.47.25.47.2 0 .37-.12.74-.5 1.15-1.29 1.97-3.27 1.97-3.27a.7.7 0 01.7-.45h1.6c.48 0 .59.24.48.59-.2.93-2.16 3.7-2.16 3.7-.16.27-.23.4 0 .7.18.24.73.72 1.1 1.15a6.9 6.9 0 011.36 1.88c.15.45-.08.68-.53.68z" fill="#fff"/></svg>
