<svg width="89" height="40" fill="none" xmlns="http://www.w3.org/2000/svg"><g clip-path="url(#clip0)" fill="#fff"><path d="M13.5723 10.169h.8118c.1405.0012.2794.0316.408.0893a1.031 1.031 0 0 1 .3396.2458 1.204 1.204 0 0 1 .3109.8178v19.7824h3.3114V8.896h-5.1817v1.273zM4.893 8.896H1.4213S.4614 10.7067 0 14.9308h1.0043c.6267-4.2016 2.1615-4.9269 3.647-4.9269 1.251 0 2.0035 1.1755 2.0331 2.4259v6.8126H5.5642c-.7402 0-1.0215-.5377-1.3769-3.3013h-.9179v7.4428h.9253c.3554-2.751.6391-3.0011 1.3769-3.0011h1.1153v7.1577c0 1.5006-.9697 2.3584-2.0357 2.3584-1.066 0-2.539-.6378-3.3533-4.0265H.2196c.755 3.979 2.3836 5.2319 4.5328 5.2319h.1456c2.4428 0 5.0386-2.1858 5.0386-7.0026v-7.6979c0-4.6292-2.4108-7.5028-5.0436-7.5028M24.9755 8.896h-1.5743l-4.6043 11.2917 3.5507 10.9166h3.3163l-4.4168-13.1924 3.7284-9.0159zM35.6618 30.1516c.8563 0 1.562-1.0004 1.5916-2.2259V12.0773c-.0296-1.238-.7403-2.2208-1.5916-2.2208-.8512 0-1.5619 1.0003-1.5915 2.2308v15.8309c.0296 1.2505.7403 2.2334 1.5915 2.2334z"/><path d="M35.0998 40.0001l3.6396-10.2388a4.1186 4.1186 0 0 1-1.3839.9759 4.071 4.071 0 0 1-1.6536.3321h-.0889c-2.9141 0-4.6882-2.691-4.7968-6.2299v-4.1265l-6.867 19.2872h11.1506zM38.1778 0l-3.1954 8.9884a3.7643 3.7643 0 0 1 .6366-.06h.0444a.3177.3177 0 0 0 .0445 0c2.961 0 4.7375 3.3787 4.814 6.9751v8.8658L49.3506 0H38.1778zM85.7404 8.9082l-3.3261 13.4776V8.9082h-5.0979v1.273h.9031a.975.975 0 0 1 .4057.087.9873.9873 0 0 1 .3346.2481c.1998.2239.309.5159.3059.8178v19.7574h1.974l4.5131-17.7016v17.7016h3.2595V8.9082h-3.2719zM46.9004 10.1938h.1431a1.013 1.013 0 0 1 .4133.0855c.1304.0573.2476.1414.3442.2471.2039.2222.3168.5145.3159.8178v19.7349h3.3187V10.1938h2.85v20.8853h3.3138V11.3442a1.2153 1.2153 0 0 1 .3109-.8178 1.0316 1.0316 0 0 1 .3456-.2472 1.018 1.018 0 0 1 .4144-.0854h.1431V8.9233h-11.913v1.2705zM68.6982 29.8862c-1.0709 0-2.0431-.8553-2.0431-2.3509V12.4397c.0346-1.2505.7896-2.3984 2.0431-2.3984 1.8185 0 3.2077 1.1704 3.8271 5.0293h1.0758c-.6785-3.9614-1.8605-6.1473-1.8605-6.1473h-3.3064c-2.9265 0-5.0436 2.8711-5.0436 7.4878v7.6854c0 4.5017 2.4182 6.9826 5.0411 6.9826h.1382c2.9807 0 4.9226-2.4259 5.389-7.7379h-1.1671c-.5133 6.1699-2.887 6.545-4.0813 6.545"/></g><defs><clipPath id="clip0"><path fill="#fff" d="M0 0h89v40H0z"/></clipPath></defs></svg>