<svg width="90" height="40" fill="none" xmlns="http://www.w3.org/2000/svg"><g clip-path="url(#clip0)"><path d="M13.7236 10.1689h.821a1.04 1.04 0 0 1 .756.3351c.2043.2229.3167.5151.3144.8178v19.7824h3.3486V8.8959h-5.24v1.273zM4.948 8.8959H1.4372S.4666 10.7066 0 14.9306h1.0155c.6338-4.2015 2.1859-4.9268 3.688-4.9268 1.265 0 2.0261 1.1754 2.056 2.4259v6.8126H5.6267c-.7485 0-1.033-.5377-1.3923-3.3013h-.9282v7.4428h.9357c.3593-2.751.6462-3.0011 1.3923-3.0011H6.762v7.1577c0 1.5005-.9806 2.3584-2.0585 2.3584-1.078 0-2.5676-.6378-3.391-4.0266H.222c.7635 3.979 2.4103 5.232 4.5837 5.232h.1472c2.4703 0 5.0952-2.1858 5.0952-7.0026v-7.6979c0-4.6292-2.4378-7.5028-5.1002-7.5028M25.2563 8.8959h-1.5919l-4.6561 11.2917 3.5906 10.9166h3.3536l-4.4664-13.1924 3.7702-9.016z" fill="#3F5265"/><path d="M36.0635 30.1513c.8659 0 1.5795-1.0004 1.6094-2.2258V12.077c-.0299-1.2379-.7485-2.2208-1.6094-2.2208-.8608 0-1.5795 1.0004-1.6094 2.2308v15.831c.0299 1.2504.7486 2.2333 1.6094 2.2333z" fill="#C60440"/><path d="M35.4941 40l3.6805-10.2388a4.1645 4.1645 0 0 1-1.3994.9758 4.157 4.157 0 0 1-1.6722.3322h-.0898c-2.9469 0-4.741-2.6911-4.8507-6.2299v-4.1265L24.2183 40h11.2758zM38.6058 0l-3.2313 8.9884a3.848 3.848 0 0 1 .6438-.06h.0449c.0149.001.03.001.0449 0 2.9943 0 4.7908 3.3787 4.8682 6.9751v8.8658L49.9042 0H38.6058z" fill="#C60440"/><path d="M86.7037 8.9083L83.3402 22.386V8.9083h-5.1551v1.273h.9132a.9965.9965 0 0 1 .7486.3351c.202.2239.3125.5159.3094.8178v19.7574h1.9962L86.7162 13.39v17.7016h3.2962V8.9083h-3.3087zM47.4263 10.1938h.1447a1.0341 1.0341 0 0 1 .766.3326 1.197 1.197 0 0 1 .3194.8178v19.7349h3.3561V10.1938h2.882v20.8853h3.351V11.3442a1.2075 1.2075 0 0 1 .3144-.8178 1.0401 1.0401 0 0 1 .7686-.3326h.1447V8.9233H47.4263v1.2705zM69.4688 29.8862c-1.0829 0-2.0661-.8553-2.0661-2.3509V12.4397c.035-1.2505.7985-2.3984 2.0661-2.3984 1.839 0 3.2438 1.1704 3.8701 5.0293h1.0879c-.6862-3.9614-1.8814-6.1473-1.8814-6.1473h-3.3436c-2.9593 0-5.1002 2.8711-5.1002 7.4878v7.6854c0 4.5017 2.4453 6.9826 5.0977 6.9826h.1397c3.0143 0 4.978-2.4259 5.4496-7.7379h-1.1803c-.519 6.1699-2.9194 6.545-4.127 6.545" fill="#3F5265"/></g><defs><clipPath id="clip0"><path fill="#fff" d="M0 0h90v40H0z"/></clipPath></defs></svg>