<svg width="31" height="30" fill="none" xmlns="http://www.w3.org/2000/svg"><path d="M30.004 15c0-8.282-6.718-15-15.004-15S0 6.718 0 15s6.718 15 15 15 15.004-6.714 15.004-15z" fill="#000"/><path d="M20.199 8.126c1.176.704 2.584 2.1151 2.469 4.4651 0 2.234-1.177 3.526-2.235 4.23a8.4656 8.4656 0 0 1-4.23 1.177h-2.704v4.938h-3.292V7.0721h6.111c.942-.004 2.588.23 3.881 1.054z" fill="#EA0076"/><path d="M19.692 8.349c1.102.663 2.428 1.985 2.316 4.193 0 2.097-1.102 3.31-2.096 3.97a7.9099 7.9099 0 0 1-3.97 1.102h-2.536v4.633h-3.087V7.355h5.735c.882 0 2.428.22 3.638.994z" fill="#DA026F"/><path d="M19.189 8.569c1.032.618 2.268 1.8541 2.164 3.9171 0 1.96-1.032 3.091-1.959 3.713a7.417 7.417 0 0 1-3.713 1.032h-2.372v4.33h-2.882V7.6421h5.359c.826 0 2.268.205 3.403.928v-.001z" fill="#CA0468"/><path d="M18.683 8.788c.957.578 2.108 1.725 2.015 3.643 0 1.82-.957 2.874-1.821 3.452a6.864 6.864 0 0 1-3.452.957H13.22v4.025h-2.685V7.928h4.986c.767 0 2.108.19 3.162.86z" fill="#BA0561"/><path d="M18.18 9.012c.887.532 1.952 1.594 1.862 3.37 0 1.683-.886 2.659-1.683 3.191a6.3689 6.3689 0 0 1-3.191.887h-2.041v3.724h-2.48V8.21h4.61c.704 0 1.948.179 2.923.8v.002z" fill="#AA0759"/><path d="M17.674 9.232c.815.488 1.791 1.467 1.709 3.094 0 1.55-.815 2.443-1.549 2.931a5.8643 5.8643 0 0 1-2.931.816H13.03v3.418h-2.279V8.498h4.238c.648 0 1.787.164 2.685.734z" fill="#9A0952"/><path d="M17.167 9.451c.741.447 1.631 1.337 1.561 2.82 0 1.41-.741 2.226-1.412 2.67a5.3095 5.3095 0 0 1-2.674.74h-1.705v3.117h-2.078V8.781h3.858c.596.004 1.635.153 2.45.67z" fill="#8A0B4B"/><path d="M16.665 9.675c.67.4021 1.474 1.2061 1.407 2.5471 0 1.274-.67 2.01-1.273 2.413a4.8212 4.8212 0 0 1-2.413.67h-1.542v2.816h-1.877v-9.051h3.486c.536 0 1.474.135 2.212.604v.001z" fill="#7A0D44"/><path d="M16.158 9.894c.596.3579 1.315 1.0769 1.255 2.2719 0 1.136-.599 1.795-1.136 2.152a4.3098 4.3098 0 0 1-2.152.6h-1.374v2.51h-1.676v-8.07h3.109c.481 0 1.315.12 1.974.536z" fill="#6A0F3D"/><path d="M15.652 10.1181c.525.317 1.154.946 1.102 1.996 0 .998-.525 1.575-.998 1.892a3.7671 3.7671 0 0 1-1.892.525h-1.206v2.208h-1.471v-7.098h2.733c.421 0 1.154.108 1.732.477z" fill="#5A1036"/><path d="M15.149 10.338c.454.272.998.815.953 1.724 0 .86-.454 1.359-.86 1.63a3.2636 3.2636 0 0 1-1.631.455h-1.043v1.903h-1.27V9.928h2.358c.357 0 .994.093 1.493.41z" fill="#4A122E"/><path d="M14.643 10.5571c.379.228.837.686.8 1.45 0 .725-.38 1.142-.726 1.373-.38.227-.875.38-1.37.38h-.879v1.601h-1.069v-5.146h1.985c.305 0 .838.078 1.259.342z" fill="#3A1427"/><path d="M14.14 10.78c.309.187.681.556.648 1.178 0 .588-.309.927-.589 1.113-.309.186-.711.31-1.113.31h-.711v1.291h-.864v-4.17h1.608c.246 0 .678.063 1.021.279v-.001z" fill="#2A1620"/><path d="M13.633 11.0001c.235.142.522.429.499.902 0 .45-.238.711-.45.853a1.7144 1.7144 0 0 1-.853.238h-.544v.994h-.666v-3.199h1.229c.193 0 .525.045.785.213v-.001z" fill="#1A1819"/><path d="M13.57 11.027c.227.137.503.41.477.867a.937.937 0 0 1-.1077.4671.9364.9364 0 0 1-.3243.3529 1.6256 1.6256 0 0 1-.82.227h-.525v.957h-.636v-3.076h1.184c.182 0 .503.045.752.205z" fill="#181818"/></svg>