<svg width="118" height="85" fill="none" xmlns="http://www.w3.org/2000/svg"><path fill-rule="evenodd" clip-rule="evenodd" d="M118 84.2959H0V-.0001h118v84.296zm-97.5239-23.04c-.2018-.7372-.6022-2.1658-2.7076-2.1658-1.2236 0-3.073.8754-3.073 4.3202 0 2.1875.9244 4.2145 3.073 4.2145 1.414 0 2.4058-.8537 2.7076-2.3498h2.5414c-.5035 2.6579-2.2364 4.5054-5.2955 4.5054-3.243 0-5.5648-2.2053-5.5648-6.4051 0-4.2706 2.4561-6.4364 5.5967-6.4364 3.651 0 5.1249 2.5198 5.2636 4.317h-2.5414zm5.6522 2.5923l2.9878-3.4308h2.91l-3.1762 3.4944 3.2615 5.5502h-2.8432l-2.155-3.8847-.9849 1.0281v2.8566h-2.3714v-9.0446h2.3714v3.4308zm10.0507 5.8509c2.4211 0 4.6079-1.5171 4.6079-4.7773 0-3.2608-2.1868-4.7397-4.6079-4.7397-2.4173 0-4.622 1.4967-4.622 4.7607 0 3.2615 2.2047 4.7563 4.622 4.7563zm0-2.0061c-1.8323 0-2.1837-1.6125-2.1837-2.7712 0-1.1593.3514-2.7369 2.1837-2.7369 1.8328 0 2.169 1.5954 2.169 2.7579 0 1.1555-.3362 2.7502-2.169 2.7502zm13.519-7.2764v9.0453h-2.3714v-7.1418h-2.5377v2.7891c0 3.4595-1.0415 4.5507-2.7076 4.5507-.4144 0-1.0918-.0669-1.4426-.198v-1.7686c.0491.035.3508.0675.7016.0675.7124 0 1.081-.3514 1.081-3.1055v-4.2387h7.2767zm6.5703.0008l-2.9878 3.4308v-3.4308h-2.3714v9.0446h2.3714v-2.8566l.9887-1.0281 2.1512 3.8847h2.8432l-3.2646-5.5502 3.1793-3.4944h-2.91zm11.6707 4.5044c0 3.2602-2.183 4.7773-4.6041 4.7773s-4.622-1.4948-4.622-4.7563c0-3.264 2.2009-4.7607 4.622-4.7607s4.6041 1.4789 4.6041 4.7397zm-6.7871 0c0 1.1587.3508 2.7712 2.183 2.7712 1.8246 0 2.1728-1.5947 2.1728-2.7502 0-1.1625-.3482-2.7579-2.1728-2.7579-1.8322 0-2.183 1.5776-2.183 2.7369zm11.6391-4.5046h-4.0834v9.046h4.5329c2.0486 0 3.3168-.7946 3.3168-2.4702 0-1.4789-1.0275-2.0697-1.9525-2.2906.9434-.2375 1.6838-.9072 1.6838-1.9487 0-1.5101-1.4776-2.3365-3.4976-2.3365zm-.1706 3.662h-1.5458v-2.0309h1.5636c.79 0 1.3261.2686 1.3261 1.0065 0 .7092-.557 1.0244-1.3439 1.0244zm.198 3.7535h-1.7438v-2.3186h1.7164c.8747 0 1.4458.3655 1.4458 1.1555 0 .8938-.5424 1.1631-1.4184 1.1631zm13.2305-2.9109c0 3.2602-2.1798 4.7773-4.6041 4.7773-2.4179 0-4.6258-1.4948-4.6258-4.7563 0-3.264 2.2079-4.7607 4.6258-4.7607 2.4243 0 4.6041 1.4789 4.6041 4.7397zm-6.7909 0c0 1.1587.3571 2.7712 2.1868 2.7712 1.8322 0 2.1658-1.5947 2.1658-2.7502 0-1.1625-.3336-2.7579-2.1658-2.7579-1.8297 0-2.1868 1.5776-2.1868 2.7369zM40.1102 51.825c-3.7186 2.7153-8.6945 3.0693-10.7152 3.0693-14.0568 0-16.506-8.1451-16.506-12.9364h7.723c0 2.1823 1.1695 6.2803 8.1986 6.2803 3.8351 0 8.0986-.9568 8.0986-5.0045 0-3.0349-2.9317-3.7791-7.0316-4.7926l-7.7733-1.9137c-5.4827-1.3293-8.6302-4.5831-8.6302-10.4382 0-4.261 2.3492-11.8733 14.8616-11.8733 5.7806 0 9.4877 1.8571 11.7745 4.3126v-3.3029h7.5104v20.8765l9.4705-10.8673h9.2153L56.2437 36.3109 66.575 53.8846h-9.002l-6.8196-12.2992-3.1328 3.243-.0077 9.0562h-7.5027V51.825zM25.0888 29.548l9.4209 2.2938c2.0137.5067 3.9554 1.1306 5.6005 2.0913V26.727h-4.4838c-.2088-1.7545-.8506-5.8583-7.879-5.8583-3.0877 0-6.7636 1.1727-6.7636 4.6354 0 3.0304 2.5033 3.6721 4.105 4.0439z" fill="#fff"/></svg>