<svg width="44" height="67" viewBox="0 0 44 67" xmlns="http://www.w3.org/2000/svg">
<path d="M9.82733 38.6441V41.8258H11.2948V29.5579C11.2948 27.4633 12.2731 25.0197 14.9537 25.0197H21.034V31.0789H22.5015V25.0197H28.5622C31.2624 25.0197 32.2211 27.4633 32.2211 29.5579V41.8258H33.6886V38.6441C37.2043 36.0698 39.8282 32.4247 41.1827 28.2334C42.5372 24.042 42.5523 19.5207 41.226 15.32C39.8997 11.1193 37.3002 7.456 33.8018 4.85726C30.3034 2.25853 26.0865 0.858398 21.758 0.858398C17.4294 0.858398 13.2125 2.25853 9.71408 4.85726C6.21569 7.456 3.61627 11.1193 2.28993 15.32C0.963594 19.5207 0.978749 24.042 2.33321 28.2334C3.68768 32.4247 6.3116 36.0698 9.82733 38.6441ZM21.758 2.36888C25.6855 2.36576 29.5173 3.60496 32.725 5.91559C35.9327 8.22623 38.3582 11.4945 39.6671 15.2697C40.9761 19.045 41.104 23.1412 40.0332 26.9937C38.9624 30.8462 36.7456 34.2651 33.6886 36.779V28.3011C33.6892 27.6541 33.5649 27.0133 33.3226 26.4152C33.0803 25.8172 32.7248 25.2737 32.2765 24.8157C31.8282 24.3577 31.2958 23.9942 30.7097 23.746C30.1236 23.4978 29.4952 23.3697 28.8606 23.369H14.6749C13.3948 23.3703 12.1676 23.8894 11.2624 24.8122C10.3573 25.7349 9.84819 26.9861 9.8469 28.2912V36.769C6.78986 34.2551 4.57311 30.8362 3.50231 26.9837C2.43151 23.1313 2.5594 19.035 3.86834 15.2598C5.17729 11.4845 7.60282 8.21625 10.8105 5.90562C14.0181 3.59498 17.8499 2.35579 21.7775 2.35891L21.758 2.36888Z" fill="currentColor" stroke="currentColor" stroke-width="0.5"/>
<path d="M21.7578 21.5836C22.6715 21.5806 23.5638 21.3017 24.322 20.7821C25.0802 20.2624 25.6704 19.5254 26.0181 18.664C26.3657 17.8026 26.4551 16.8555 26.2751 15.9423C26.0951 15.0292 25.6537 14.1908 25.0066 13.5332C24.3596 12.8757 23.5359 12.4283 22.6396 12.2477C21.7433 12.067 20.8146 12.1612 19.9708 12.5184C19.127 12.8755 18.4059 13.4795 17.8986 14.2542C17.3914 15.0289 17.1206 15.9394 17.1206 16.8709C17.1212 17.4908 17.2417 18.1046 17.4752 18.677C17.7086 19.2495 18.0505 19.7694 18.4811 20.2071C18.9118 20.6448 19.4229 20.9916 19.9851 21.2278C20.5474 21.464 21.1498 21.5849 21.7578 21.5836ZM21.7578 13.6543C22.3812 13.6572 22.9898 13.8484 23.5067 14.2036C24.0236 14.5589 24.4257 15.0623 24.6623 15.6503C24.8988 16.2383 24.9592 16.8846 24.8358 17.5075C24.7124 18.1305 24.4108 18.7022 23.969 19.1506C23.5271 19.5989 22.9649 19.9038 22.3533 20.0267C21.7417 20.1496 21.1081 20.0851 20.5324 19.8412C19.9567 19.5973 19.4649 19.185 19.1188 18.6564C18.7728 18.1277 18.5881 17.5064 18.5881 16.8709C18.5881 16.4472 18.6702 16.0277 18.8297 15.6365C18.9891 15.2452 19.2228 14.89 19.5174 14.5911C19.8119 14.2922 20.1615 14.0556 20.5459 13.8948C20.9304 13.734 21.3423 13.6523 21.7578 13.6543Z" fill="currentColor" stroke="currentColor" stroke-width="0.5"/>
<path d="M14.7969 32.3306V42.5738H28.7184V32.3306H27.2509V41.0777H16.2644V32.3306H14.7969Z" fill="currentColor" stroke="currentColor" stroke-width="0.5"/>
<path d="M35.0531 45.0574H8.45747C8.25218 45.0594 8.05046 45.1124 7.86982 45.2119C7.68918 45.3113 7.53506 45.4542 7.42085 45.6282C7.30663 45.8021 7.23576 46.0018 7.21438 46.21C7.193 46.4181 7.22176 46.6285 7.29816 46.8228L10.0668 53.7347H12.9724V66.4714H14.4399V50.8074H29.0756V66.4714H30.5431V53.7347H33.4487L36.1978 46.8228C36.2743 46.6281 36.303 46.4173 36.2814 46.2087C36.2598 46.0002 36.1885 45.8002 36.0737 45.6261C35.9589 45.4521 35.8042 45.3093 35.6229 45.2101C35.4416 45.111 35.2393 45.0586 35.0336 45.0574H35.0531ZM32.4606 52.2386H30.5431V50.4184C30.5431 50.1247 30.4287 49.8432 30.225 49.6355C30.0214 49.4279 29.7451 49.3113 29.4571 49.3113H14.0584C13.7704 49.3113 13.4941 49.4279 13.2905 49.6355C13.0868 49.8432 12.9724 50.1247 12.9724 50.4184V52.2386H11.0549L8.77543 46.5535H34.7303L32.4606 52.2386Z" fill="currentColor" stroke="currentColor" stroke-width="0.5"/>
</svg>
