<svg width="40" height="56" viewBox="0 0 40 56" xmlns="http://www.w3.org/2000/svg">
<path d="M34.707 6.22803H26.1907V5.29683C26.1907 4.92145 26.0396 4.56138 25.7704 4.29555C25.5012 4.02972 25.136 3.87981 24.7547 3.87868H23.3925C23.3065 3.03569 22.9056 2.2542 22.2675 1.68583C21.6294 1.11745 20.7996 0.802734 19.9391 0.802734C19.0786 0.802734 18.2488 1.11745 17.6107 1.68583C16.9726 2.2542 16.5717 3.03569 16.4857 3.87868H14.7504C14.3684 3.87868 14.002 4.02809 13.7319 4.29404C13.4618 4.56 13.31 4.92071 13.31 5.29683V6.22803H5.17555C4.27037 6.22916 3.40259 6.5837 2.76253 7.2139C2.12247 7.8441 1.76238 8.6985 1.76123 9.58974V51.3099C1.76123 52.2019 2.12081 53.0574 2.761 53.6885C3.40118 54.3197 4.26962 54.6748 5.17555 54.6759H34.707C35.6122 54.6748 36.48 54.3203 37.12 53.6901C37.7601 53.0599 38.1202 52.2055 38.1213 51.3142V9.58974C38.1202 8.6985 37.7601 7.8441 37.12 7.2139C36.48 6.5837 35.6122 6.22916 34.707 6.22803ZM19.9565 2.20423C20.451 2.20345 20.9309 2.36904 21.3167 2.67357C21.7026 2.9781 21.9711 3.40329 22.0779 3.87868H17.822C17.9293 3.40113 18.1997 2.97431 18.5883 2.66954C18.9768 2.36476 19.4597 2.20051 19.9565 2.20423ZM14.5942 5.29683C14.5942 5.26058 14.6088 5.22581 14.6349 5.20018C14.6609 5.17454 14.6962 5.16014 14.733 5.16014H24.7547C24.7728 5.16013 24.7906 5.16369 24.8072 5.17061C24.8238 5.17753 24.8388 5.18767 24.8514 5.20042C24.8639 5.21317 24.8738 5.22828 24.8802 5.24484C24.8867 5.2614 24.8898 5.27908 24.8892 5.29683V11.1745C24.8892 11.2222 24.8797 11.2694 24.8611 11.3134C24.8426 11.3575 24.8154 11.3975 24.7812 11.4312C24.747 11.4649 24.7063 11.4917 24.6616 11.5099C24.6168 11.5282 24.5689 11.5376 24.5205 11.5376C24.4306 11.5374 24.3439 11.5053 24.2762 11.4473C24.2084 11.3892 24.1642 11.309 24.1517 11.2215V11.0933C24.0203 10.0904 23.5224 9.16885 22.7511 8.50108C21.9798 7.8333 20.9879 7.46498 19.9608 7.46498C18.9337 7.46498 17.9418 7.8333 17.1705 8.50108C16.3992 9.16885 15.9013 10.0904 15.7699 11.0933V11.2215C15.7583 11.3087 15.715 11.3888 15.648 11.4469C15.581 11.5051 15.4948 11.5373 15.4055 11.5376H14.9933C14.9449 11.5376 14.897 11.5282 14.8522 11.5099C14.8075 11.4917 14.7668 11.4649 14.7326 11.4312C14.6983 11.3975 14.6712 11.3575 14.6526 11.3134C14.6341 11.2694 14.6246 11.2222 14.6246 11.1745L14.5942 5.29683ZM36.8328 51.3099C36.8328 51.5844 36.7778 51.8562 36.6708 52.1096C36.5639 52.3631 36.4072 52.5933 36.2097 52.787C36.0121 52.9806 35.7777 53.134 35.5199 53.2382C35.262 53.3425 34.9858 53.3956 34.707 53.3945H5.17555C4.6152 53.3945 4.0778 53.1753 3.68157 52.7852C3.28535 52.3951 3.06275 51.8659 3.06275 51.3142V9.58974C3.0639 9.03837 3.28686 8.5099 3.68284 8.12003C4.07882 7.73015 4.61555 7.51062 5.17555 7.50949H13.2927V11.1745C13.295 11.6096 13.4718 12.0261 13.7847 12.3333C14.0976 12.6406 14.5211 12.8136 14.963 12.8148H15.3751C15.7811 12.814 16.173 12.668 16.4779 12.404C16.7827 12.14 16.9798 11.7759 17.0324 11.3795V11.2556C17.123 10.5614 17.4675 9.92337 18.0013 9.46103C18.5351 8.99869 19.2217 8.74367 19.9326 8.74367C20.6435 8.74367 21.3301 8.99869 21.8639 9.46103C22.3977 9.92337 22.7422 10.5614 22.8328 11.2556V11.3795C22.8858 11.795 23.0978 12.175 23.4255 12.4419C23.7533 12.7088 24.1721 12.8426 24.5966 12.8159C25.021 12.7892 25.4192 12.604 25.7098 12.2982C26.0004 11.9924 26.1615 11.589 26.1604 11.1702V7.50949H34.707C35.267 7.51062 35.8037 7.73015 36.1997 8.12003C36.5957 8.5099 36.8187 9.03837 36.8198 9.58974L36.8328 51.3099Z" fill="currentColor" stroke="currentColor" stroke-width="0.5"/>
<path d="M26.9068 11.5417H32.7376V43.762L27.0499 49.362H7.1584V11.5417H12.9892V10.2603H5.85254V50.6435H27.5922L34.0391 44.2917V10.2603H26.9068V11.5417Z" fill="currentColor" stroke="currentColor" stroke-width="0.5"/>
<path d="M13.5486 30.0161L12.451 28.9354L11.5312 29.841L13.5746 31.8529L17.2796 27.9871L16.3339 27.1072L13.5486 30.0161Z" fill="currentColor" stroke="currentColor" stroke-width="0.5"/>
<path d="M11.6919 18.1584L13.1669 19.6107L11.6919 21.063L12.6116 21.9686L14.0867 20.5163L15.5617 21.9686L16.4815 21.063L15.0064 19.6107L16.4815 18.1584L15.5617 17.2485L14.0867 18.7051L12.6116 17.2485L11.6919 18.1584Z" fill="currentColor" stroke="currentColor" stroke-width="0.5"/>
<path d="M15.5617 36.8933L14.0867 38.3499L12.6116 36.8933L11.6919 37.8032L13.1669 39.2555L11.6919 40.7078L12.6116 41.6134L14.0867 40.161L15.5617 41.6134L16.4815 40.7078L15.0064 39.2555L16.4815 37.8032L15.5617 36.8933Z" fill="currentColor" stroke="currentColor" stroke-width="0.5"/>
<path d="M29.9912 20.875H18.7852V22.1565H29.9912V20.875Z" fill="currentColor" stroke="currentColor" stroke-width="0.5"/>
<path d="M29.9912 30.5203H18.7852V31.8017H29.9912V30.5203Z" fill="currentColor" stroke="currentColor" stroke-width="0.5"/>
<path d="M25.375 47.5764C25.375 47.7463 25.4436 47.9093 25.5656 48.0294C25.6876 48.1496 25.8532 48.2171 26.0258 48.2171C26.1984 48.2171 26.3639 48.1496 26.4859 48.0294C26.608 47.9093 26.6765 47.7463 26.6765 47.5764V43.3945H30.9238C31.0964 43.3945 31.2619 43.327 31.384 43.2068C31.506 43.0867 31.5746 42.9237 31.5746 42.7538C31.5746 42.5838 31.506 42.4209 31.384 42.3007C31.2619 42.1805 31.0964 42.113 30.9238 42.113H25.375V47.5764Z" fill="currentColor" stroke="currentColor" stroke-width="0.5"/>
</svg>
