<svg width="54" height="62" viewBox="0 0 54 62" xmlns="http://www.w3.org/2000/svg">
<path d="M26.9989 35.5856C23.554 35.5856 20.1864 34.5714 17.3221 32.6712C14.4577 30.771 12.2252 28.0703 10.9069 24.9104C9.5886 21.7506 9.24367 18.2736 9.91574 14.9191C10.5878 11.5647 12.2467 8.48338 14.6826 6.06494C17.1186 3.64651 20.2221 1.99953 23.6009 1.33228C26.9796 0.665038 30.4818 1.00749 33.6645 2.31634C36.8472 3.62519 39.5675 5.84165 41.4814 8.68543C43.3953 11.5292 44.4168 14.8726 44.4168 18.2928C44.4116 22.8775 42.5749 27.273 39.3095 30.5149C36.0442 33.7568 31.6169 35.5804 26.9989 35.5856ZM26.9989 2.45726C23.8443 2.45726 20.7605 3.386 18.1376 5.12603C15.5146 6.86606 13.4702 9.33923 12.263 12.2328C11.0558 15.1264 10.7399 18.3103 11.3553 21.3821C11.9708 24.4539 13.4899 27.2755 15.7205 29.4902C17.9512 31.7048 20.7932 33.213 23.8872 33.824C26.9812 34.435 30.1883 34.1214 33.1028 32.9229C36.0173 31.7243 38.5083 29.6947 40.2609 27.0905C42.0136 24.4864 42.949 21.4247 42.949 18.2928C42.9451 14.0941 41.2634 10.0685 38.2731 7.09964C35.2827 4.13074 31.228 2.46112 26.9989 2.45726Z" fill="currentColor" stroke="currentColor" stroke-width="0.5"/>
<path d="M40.2508 19.021C40.0562 19.021 39.8695 18.9443 39.7319 18.8076C39.5942 18.671 39.5169 18.4857 39.5169 18.2924C39.5169 14.9961 38.1986 11.8346 35.8518 9.50279C33.505 7.17101 30.3217 5.85973 27.0015 5.85716C26.8068 5.85716 26.6202 5.78039 26.4825 5.64375C26.3449 5.5071 26.2676 5.32177 26.2676 5.12853C26.2676 4.93529 26.3449 4.74996 26.4825 4.61331C26.6202 4.47667 26.8068 4.3999 27.0015 4.3999C30.7106 4.40376 34.2665 5.86898 36.8883 8.47378C39.5101 11.0786 40.9834 14.61 40.9847 18.2924C40.9847 18.4857 40.9074 18.671 40.7698 18.8076C40.6321 18.9443 40.4454 19.021 40.2508 19.021Z" fill="currentColor" stroke="currentColor" stroke-width="0.5"/>
<path d="M30.1661 41.604H23.8301V34.8569H25.2979V40.1468H28.6983V34.8569H30.1661V41.604Z" fill="currentColor" stroke="currentColor" stroke-width="0.5"/>
<path d="M24.0553 24.9816H18.1841C17.9895 24.9816 17.8028 24.9048 17.6652 24.7682C17.5275 24.6315 17.4502 24.4462 17.4502 24.2529V16.3546C17.4502 16.1614 17.5275 15.976 17.6652 15.8394C17.8028 15.7027 17.9895 15.626 18.1841 15.626H24.0553C24.2499 15.626 24.4366 15.7027 24.5742 15.8394C24.7119 15.976 24.7892 16.1614 24.7892 16.3546V24.2529C24.7892 24.4462 24.7119 24.6315 24.5742 24.7682C24.4366 24.9048 24.2499 24.9816 24.0553 24.9816ZM18.8984 23.5243H23.3018V17.0832H18.8984V23.5243Z" fill="currentColor" stroke="currentColor" stroke-width="0.5"/>
<path d="M29.9454 24.9816H24.0742C23.8796 24.9816 23.6929 24.9048 23.5553 24.7682C23.4177 24.6316 23.3403 24.4462 23.3403 24.253V12.3326C23.3403 12.1394 23.4177 11.9541 23.5553 11.8174C23.6929 11.6808 23.8796 11.604 24.0742 11.604H29.9454C30.1397 11.6053 30.3256 11.6825 30.463 11.8188C30.6003 11.9552 30.678 12.1398 30.6793 12.3326V24.253C30.6793 24.4462 30.602 24.6316 30.4644 24.7682C30.3267 24.9048 30.1401 24.9816 29.9454 24.9816ZM24.7886 23.5244H29.192V13.0613H24.7886V23.5244Z" fill="currentColor" stroke="currentColor" stroke-width="0.5"/>
<path d="M35.8312 24.9816H29.96C29.7653 24.9816 29.5787 24.9048 29.441 24.7682C29.3034 24.6315 29.2261 24.4462 29.2261 24.2529V16.3546C29.2261 16.1614 29.3034 15.976 29.441 15.8394C29.5787 15.7027 29.7653 15.626 29.96 15.626H35.8312C36.0258 15.626 36.2125 15.7027 36.3501 15.8394C36.4877 15.976 36.5651 16.1614 36.5651 16.3546V24.2529C36.5651 24.4462 36.4877 24.6315 36.3501 24.7682C36.2125 24.9048 36.0258 24.9816 35.8312 24.9816ZM30.6792 23.5243H35.0826V17.0832H30.6792V23.5243Z" fill="currentColor" stroke="currentColor" stroke-width="0.5"/>
<path d="M5.14848 50.8964C5.00455 50.8977 4.86347 50.8566 4.74301 50.7783C4.62256 50.7001 4.52813 50.5882 4.47162 50.4568C4.41511 50.3254 4.39905 50.1803 4.42547 50.0398C4.45189 49.8993 4.5196 49.7698 4.62007 49.6674L7.64374 46.5003C7.77849 46.3646 7.96145 46.2867 8.15338 46.2833C8.34531 46.2799 8.53094 46.3513 8.67047 46.4822C8.80999 46.6131 8.8923 46.7931 8.89976 46.9835C8.90721 47.174 8.83921 47.3597 8.71034 47.501L5.68178 50.6681C5.61339 50.7404 5.53076 50.798 5.43902 50.8372C5.34728 50.8765 5.24838 50.8967 5.14848 50.8964Z" fill="currentColor" stroke="currentColor" stroke-width="0.5"/>
<path d="M13.9896 50.901C13.8897 50.9013 13.7908 50.8812 13.6991 50.8419C13.6073 50.8026 13.5247 50.745 13.4563 50.6727L10.4326 47.5056C10.358 47.4382 10.2983 47.3562 10.257 47.2648C10.2158 47.1734 10.194 47.0746 10.1929 46.9745C10.1919 46.8743 10.2116 46.775 10.251 46.6828C10.2903 46.5906 10.3483 46.5074 10.4215 46.4385C10.4946 46.3695 10.5813 46.3163 10.6761 46.2821C10.7709 46.2479 10.8718 46.2335 10.9725 46.2397C11.0732 46.2459 11.1715 46.2727 11.2613 46.3184C11.351 46.364 11.4304 46.4275 11.4943 46.505L14.518 49.6672C14.6522 49.807 14.7251 49.994 14.7205 50.1871C14.7159 50.3803 14.6343 50.5636 14.4935 50.697C14.3587 50.8275 14.1779 50.9007 13.9896 50.901Z" fill="currentColor" stroke="currentColor" stroke-width="0.5"/>
<path d="M16.7753 50.8963C16.632 50.895 16.4921 50.8523 16.3728 50.7734C16.2535 50.6945 16.1599 50.5829 16.1033 50.4521C16.0468 50.3213 16.0298 50.177 16.0544 50.0368C16.0791 49.8966 16.1443 49.7665 16.242 49.6625L19.4663 46.2914C19.6011 46.1556 19.784 46.0777 19.976 46.0743C20.1679 46.071 20.3535 46.1424 20.493 46.2733C20.6326 46.4042 20.7149 46.5841 20.7223 46.7746C20.7298 46.965 20.6618 47.1508 20.5329 47.292L17.3086 50.6923C17.1651 50.8276 16.9733 50.901 16.7753 50.8963Z" fill="currentColor" stroke="currentColor" stroke-width="0.5"/>
<path d="M3.75946 54.3645C3.21369 54.3645 2.68018 54.2039 2.22639 53.9028C1.7726 53.6018 1.41891 53.1739 1.21005 52.6733C1.0012 52.1727 0.946549 51.6219 1.05302 51.0904C1.1595 50.559 1.42231 50.0708 1.80823 49.6877C2.19415 49.3045 2.68584 49.0436 3.22112 48.9379C3.7564 48.8322 4.31124 48.8864 4.81546 49.0938C5.31969 49.3012 5.75066 49.6523 6.05387 50.1028C6.35709 50.5534 6.51892 51.083 6.51892 51.6249C6.51763 52.3511 6.22649 53.0472 5.70927 53.5607C5.19205 54.0742 4.49092 54.3633 3.75946 54.3645ZM3.75946 50.3425C3.504 50.3425 3.25427 50.4177 3.04185 50.5586C2.82944 50.6995 2.66388 50.8998 2.56612 51.1341C2.46836 51.3685 2.44278 51.6263 2.49262 51.8751C2.54246 52.1238 2.66548 52.3523 2.84612 52.5317C3.02676 52.711 3.25691 52.8332 3.50747 52.8826C3.75803 52.9321 4.01774 52.9067 4.25376 52.8097C4.48978 52.7126 4.69151 52.5482 4.83344 52.3374C4.97537 52.1265 5.05113 51.8785 5.05113 51.6249C5.05113 51.2848 4.91504 50.9586 4.67281 50.7181C4.43057 50.4776 4.10203 50.3425 3.75946 50.3425Z" fill="currentColor" stroke="currentColor" stroke-width="0.5"/>
<path d="M9.57294 48.283C9.02717 48.283 8.49366 48.1223 8.03986 47.8213C7.58607 47.5202 7.23239 47.0924 7.02353 46.5918C6.81467 46.0912 6.76003 45.5403 6.8665 45.0089C6.97297 44.4774 7.23579 43.9893 7.62171 43.6061C8.00762 43.223 8.49931 42.9621 9.0346 42.8564C9.56988 42.7506 10.1247 42.8049 10.6289 43.0123C11.1332 43.2196 11.5641 43.5708 11.8673 44.0213C12.1706 44.4718 12.3324 45.0015 12.3324 45.5434C12.3324 45.9031 12.261 46.2594 12.1223 46.5918C11.9837 46.9242 11.7804 47.2262 11.5242 47.4806C11.2679 47.735 10.9637 47.9368 10.6289 48.0745C10.2941 48.2121 9.93532 48.283 9.57294 48.283ZM9.57294 44.2658C9.31727 44.2658 9.06734 44.3412 8.85482 44.4823C8.64231 44.6234 8.47676 44.824 8.37914 45.0586C8.28152 45.2932 8.25623 45.5513 8.30647 45.8002C8.3567 46.0491 8.48021 46.2776 8.66134 46.4567C8.84247 46.6359 9.07308 46.7576 9.32396 46.8065C9.57484 46.8555 9.8347 46.8294 10.0706 46.7316C10.3066 46.6338 10.508 46.4687 10.6493 46.2571C10.7906 46.0456 10.8656 45.7972 10.8646 45.5434C10.8646 45.3752 10.8312 45.2087 10.7662 45.0533C10.7012 44.898 10.606 44.757 10.486 44.6383C10.366 44.5196 10.2236 44.4256 10.0669 44.3617C9.91019 44.2978 9.74233 44.2652 9.57294 44.2658Z" fill="currentColor" stroke="currentColor" stroke-width="0.5"/>
<path d="M15.384 54.3645C14.8374 54.3683 14.302 54.2109 13.8456 53.9122C13.3893 53.6135 13.0326 53.187 12.8207 52.6868C12.6088 52.1865 12.5514 51.6351 12.6556 51.1024C12.7599 50.5696 13.0212 50.0797 13.4063 49.6946C13.7914 49.3095 14.2831 49.0466 14.8189 48.9393C15.3547 48.832 15.9105 48.8851 16.4159 49.0919C16.9212 49.2987 17.3534 49.6498 17.6575 50.1008C17.9615 50.5517 18.1239 51.0822 18.1239 51.6248C18.1226 52.3477 17.8342 53.0409 17.3212 53.5538C16.8082 54.0668 16.1121 54.3581 15.384 54.3645ZM15.384 50.3424C15.1277 50.3386 14.8761 50.4105 14.6612 50.5491C14.4462 50.6876 14.2776 50.8865 14.1768 51.1205C14.076 51.3544 14.0477 51.6129 14.0953 51.8629C14.1429 52.1129 14.2643 52.3432 14.4442 52.5245C14.624 52.7058 14.8541 52.8299 15.1052 52.881C15.3562 52.932 15.617 52.9078 15.8541 52.8113C16.0913 52.7149 16.2942 52.5506 16.437 52.3393C16.5798 52.128 16.6561 51.8793 16.6561 51.6248C16.6561 51.2881 16.5227 50.9648 16.2847 50.7248C16.0467 50.4849 15.7232 50.3475 15.384 50.3424Z" fill="currentColor" stroke="currentColor" stroke-width="0.5"/>
<path d="M31.2564 54.6996C31.0618 54.6996 30.8751 54.6228 30.7375 54.4862C30.5998 54.3496 30.5225 54.1642 30.5225 53.971V42.4198C30.5225 42.2042 30.4366 41.9974 30.2835 41.8445C30.1304 41.6916 29.9226 41.605 29.7054 41.6037H24.2942C24.0762 41.6037 23.8671 41.6897 23.7129 41.8428C23.5588 41.9958 23.4722 42.2034 23.4722 42.4198V53.971C23.4722 54.1642 23.3949 54.3496 23.2572 54.4862C23.1196 54.6228 22.9329 54.6996 22.7383 54.6996C22.5437 54.6996 22.357 54.6228 22.2193 54.4862C22.0817 54.3496 22.0044 54.1642 22.0044 53.971V42.4198C22.0057 41.8173 22.2473 41.2398 22.6765 40.8137C23.1056 40.3877 23.6873 40.1478 24.2942 40.1465H29.7054C30.3119 40.1478 30.893 40.3879 31.3214 40.814C31.7498 41.2402 31.9903 41.8177 31.9903 42.4198V53.971C31.9903 54.1642 31.913 54.3496 31.7754 54.4862C31.6377 54.6228 31.4511 54.6996 31.2564 54.6996Z" fill="currentColor" stroke="currentColor" stroke-width="0.5"/>
<path d="M29.7054 61.0001H24.2942C23.6873 60.9988 23.1056 60.7589 22.6765 60.3329C22.2473 59.9068 22.0057 59.3293 22.0044 58.7268V53.9713C22.0044 53.7781 22.0817 53.5927 22.2193 53.4561C22.357 53.3194 22.5437 53.2427 22.7383 53.2427C22.9329 53.2427 23.1196 53.3194 23.2572 53.4561C23.3949 53.5927 23.4722 53.7781 23.4722 53.9713V58.7268C23.4722 58.9432 23.5588 59.1508 23.7129 59.3039C23.8671 59.4569 24.0762 59.5429 24.2942 59.5429H29.7054C29.9226 59.5416 30.1304 59.455 30.2835 59.3021C30.4366 59.1492 30.5225 58.9424 30.5225 58.7268V53.9713C30.5225 53.7781 30.5998 53.5927 30.7375 53.4561C30.8751 53.3194 31.0618 53.2427 31.2564 53.2427C31.4511 53.2427 31.6377 53.3194 31.7754 53.4561C31.913 53.5927 31.9903 53.7781 31.9903 53.9713V58.7268C31.9903 59.3289 31.7498 59.9064 31.3214 60.3326C30.893 60.7588 30.3119 60.9988 29.7054 61.0001Z" fill="currentColor" stroke="currentColor" stroke-width="0.5"/>
<path d="M48.8455 50.8966C48.7457 50.8963 48.647 50.8759 48.5554 50.8367C48.4637 50.7975 48.381 50.7402 48.3122 50.6683L45.2886 47.5012C45.214 47.4338 45.1542 47.3518 45.113 47.2604C45.0717 47.169 45.0499 47.0702 45.0489 46.9701C45.0478 46.8699 45.0676 46.7706 45.1069 46.6784C45.1462 46.5862 45.2043 46.503 45.2774 46.4341C45.3506 46.3651 45.4373 46.3119 45.5321 46.2777C45.6269 46.2435 45.7278 46.2291 45.8285 46.2353C45.9291 46.2415 46.0274 46.2683 46.1172 46.314C46.207 46.3596 46.2863 46.4231 46.3503 46.5006L49.3788 49.6677C49.4773 49.7711 49.543 49.901 49.568 50.0411C49.593 50.1813 49.5761 50.3256 49.5193 50.4563C49.4626 50.587 49.3686 50.6984 49.2488 50.7766C49.1291 50.8549 48.9889 50.8966 48.8455 50.8966Z" fill="currentColor" stroke="currentColor" stroke-width="0.5"/>
<path d="M40.0095 50.9015C39.8263 50.8974 39.6515 50.8245 39.5203 50.6975C39.3789 50.5648 39.2963 50.3817 39.2908 50.1886C39.2853 49.9955 39.3573 49.8081 39.4909 49.6677L42.5146 46.5054C42.6533 46.393 42.8288 46.3348 43.0078 46.3419C43.1868 46.349 43.357 46.4208 43.4863 46.5438C43.6157 46.6669 43.6952 46.8326 43.71 47.0099C43.7248 47.1871 43.6737 47.3636 43.5665 47.5061L40.5428 50.6732C40.4741 50.745 40.3914 50.8023 40.2997 50.8416C40.2081 50.8808 40.1093 50.9012 40.0095 50.9015Z" fill="currentColor" stroke="currentColor" stroke-width="0.5"/>
<path d="M37.2053 50.8964C37.1054 50.8967 37.0065 50.8765 36.9148 50.8372C36.823 50.798 36.7404 50.7404 36.672 50.6681L33.4478 47.2678C33.3732 47.2004 33.3134 47.1184 33.2722 47.027C33.2309 46.9357 33.2091 46.8368 33.208 46.7367C33.207 46.6365 33.2268 46.5372 33.2661 46.445C33.3054 46.3528 33.3635 46.2696 33.4366 46.2007C33.5098 46.1317 33.5965 46.0785 33.6913 46.0443C33.7861 46.0101 33.887 45.9957 33.9876 46.0019C34.0883 46.0081 34.1866 46.0349 34.2764 46.0806C34.3662 46.1262 34.4455 46.1897 34.5095 46.2672L37.7337 49.6383C37.8395 49.7409 37.9119 49.8727 37.9414 50.0165C37.9709 50.1604 37.9563 50.3098 37.8994 50.4453C37.8425 50.5808 37.7459 50.6963 37.6221 50.7767C37.4984 50.8571 37.3532 50.8988 37.2053 50.8964Z" fill="currentColor" stroke="currentColor" stroke-width="0.5"/>
<path d="M50.2399 54.3645C49.6942 54.3645 49.1606 54.2039 48.7069 53.9028C48.2531 53.6018 47.8994 53.1739 47.6905 52.6733C47.4817 52.1727 47.427 51.6219 47.5335 51.0904C47.64 50.559 47.9028 50.0708 48.2887 49.6877C48.6746 49.3045 49.1663 49.0436 49.7016 48.9379C50.2369 48.8322 50.7917 48.8864 51.2959 49.0938C51.8002 49.3012 52.2311 49.6523 52.5343 50.1028C52.8376 50.5534 52.9994 51.083 52.9994 51.6249C52.9981 52.3511 52.707 53.0472 52.1897 53.5607C51.6725 54.0742 50.9714 54.3633 50.2399 54.3645ZM50.2399 50.3425C49.9845 50.3425 49.7347 50.4177 49.5223 50.5586C49.3099 50.6995 49.1444 50.8998 49.0466 51.1341C48.9488 51.3685 48.9232 51.6263 48.9731 51.8751C49.0229 52.1238 49.1459 52.3523 49.3266 52.5317C49.5072 52.711 49.7374 52.8332 49.9879 52.8826C50.2385 52.9321 50.4982 52.9067 50.7342 52.8097C50.9703 52.7126 51.172 52.5482 51.3139 52.3374C51.4558 52.1265 51.5316 51.8785 51.5316 51.6249C51.5316 51.4565 51.4982 51.2897 51.4333 51.1341C51.3684 50.9786 51.2732 50.8372 51.1533 50.7181C51.0333 50.599 50.8909 50.5046 50.7342 50.4401C50.5775 50.3757 50.4096 50.3425 50.2399 50.3425Z" fill="currentColor" stroke="currentColor" stroke-width="0.5"/>
<path d="M44.4225 48.283C43.8768 48.283 43.3433 48.1223 42.8895 47.8213C42.4357 47.5202 42.082 47.0924 41.8731 46.5918C41.6643 46.0912 41.6096 45.5403 41.7161 45.0089C41.8226 44.4774 42.0854 43.9893 42.4713 43.6061C42.8572 43.223 43.3489 42.9621 43.8842 42.8564C44.4195 42.7506 44.9743 42.8049 45.4785 43.0123C45.9828 43.2196 46.4137 43.5708 46.717 44.0213C47.0202 44.4718 47.182 45.0015 47.182 45.5434C47.1807 46.2696 46.8896 46.9657 46.3724 47.4792C45.8551 47.9927 45.154 48.2817 44.4225 48.283ZM44.4225 44.2658C44.1669 44.2658 43.9169 44.3412 43.7044 44.4823C43.4919 44.6234 43.3264 44.824 43.2287 45.0586C43.1311 45.2932 43.1058 45.5513 43.1561 45.8002C43.2063 46.0491 43.3298 46.2776 43.5109 46.4567C43.6921 46.6359 43.9227 46.7576 44.1736 46.8065C44.4245 46.8555 44.6843 46.8294 44.9202 46.7316C45.1562 46.6338 45.3576 46.4687 45.4989 46.2571C45.6403 46.0456 45.7152 45.7972 45.7142 45.5434C45.7129 45.2041 45.5763 44.8792 45.3342 44.6397C45.0921 44.4003 44.7643 44.2658 44.4225 44.2658Z" fill="currentColor" stroke="currentColor" stroke-width="0.5"/>
<path d="M38.6154 54.3645C38.0696 54.3645 37.5361 54.2039 37.0823 53.9028C36.6286 53.6018 36.2749 53.1739 36.066 52.6733C35.8572 52.1727 35.8025 51.6219 35.909 51.0904C36.0155 50.559 36.2783 50.0708 36.6642 49.6877C37.0501 49.3045 37.5418 49.0436 38.0771 48.9379C38.6124 48.8322 39.1672 48.8864 39.6714 49.0938C40.1756 49.3012 40.6066 49.6523 40.9098 50.1028C41.213 50.5534 41.3749 51.083 41.3749 51.6249C41.3736 52.3511 41.0824 53.0472 40.5652 53.5607C40.048 54.0742 39.3469 54.3633 38.6154 54.3645ZM38.6154 50.3425C38.36 50.3425 38.1102 50.4177 37.8978 50.5586C37.6854 50.6995 37.5198 50.8998 37.4221 51.1341C37.3243 51.3685 37.2987 51.6263 37.3486 51.8751C37.3984 52.1238 37.5214 52.3523 37.7021 52.5317C37.8827 52.711 38.1129 52.8332 38.3634 52.8826C38.614 52.9321 38.8737 52.9067 39.1097 52.8097C39.3457 52.7126 39.5475 52.5482 39.6894 52.3374C39.8313 52.1265 39.9071 51.8785 39.9071 51.6249C39.9058 51.2852 39.7693 50.9597 39.5273 50.7195C39.2854 50.4793 38.9576 50.3438 38.6154 50.3425Z" fill="currentColor" stroke="currentColor" stroke-width="0.5"/>
</svg>
