<svg width="63" height="63" viewBox="0 0 63 63" xmlns="http://www.w3.org/2000/svg">
<path d="M22.9635 18.4854L27.2267 15.6976L27.2916 18.5603C27.3067 19.2664 27.4732 19.961 27.7799 20.5971C28.0865 21.2333 28.526 21.796 29.0688 22.2474L31.0956 23.9361V27.0486H32.5932V23.9111L34.625 22.2224C35.166 21.7696 35.6044 21.2065 35.9109 20.5707C36.2173 19.9349 36.3848 19.241 36.4022 18.5353L36.4671 15.6726L40.7353 18.4854C41.0398 21.7378 41.4841 26.6589 41.4891 27.0536H42.9867C42.9867 26.509 42.3278 19.4097 42.193 17.9958C42.1829 17.8833 42.1477 17.7746 42.0897 17.6777C42.0318 17.5808 41.9528 17.4982 41.8585 17.4362L36.1675 13.7092C36.1484 13.6947 36.1284 13.6814 36.1076 13.6692C35.984 13.6034 35.8442 13.574 35.7046 13.5846C35.5649 13.5953 35.4312 13.6454 35.3189 13.7292C34.3194 14.4725 33.1072 14.8739 31.8619 14.8739C30.6166 14.8739 29.4044 14.4725 28.4049 13.7292C28.2806 13.6393 28.1313 13.591 27.978 13.591C27.8248 13.591 27.6754 13.6393 27.5512 13.7292L21.8503 17.4062C21.7535 17.4703 21.6728 17.556 21.6148 17.6566C21.5568 17.7571 21.5229 17.8698 21.5158 17.9858C21.386 19.3997 20.7271 26.479 20.7271 27.0436H22.2247C22.2297 26.6339 22.674 21.7128 22.9635 18.4854ZM34.9445 15.6676L34.9145 18.4854C34.9035 18.9771 34.7872 19.4607 34.5737 19.9037C34.3601 20.3466 34.0542 20.7387 33.6765 21.0533L31.8544 22.5522L30.0373 21.0533C29.6586 20.7395 29.352 20.3477 29.1383 19.9045C28.9247 19.4614 28.809 18.9773 28.7992 18.4854L28.7343 15.6277C29.709 16.0938 30.775 16.3369 31.8552 16.3395C32.9354 16.3421 34.0026 16.1041 34.9794 15.6426L34.9445 15.6676Z" fill="currentColor" stroke="currentColor" stroke-width="0.5"/>
<path d="M31.8543 13.4244C34.55 13.4244 36.7465 10.8065 36.7465 7.58903C36.7465 4.37158 34.55 1.75366 31.8543 1.75366C29.1585 1.75366 26.957 4.37158 26.957 7.58903C26.957 10.8065 29.1585 13.4244 31.8543 13.4244ZM31.8543 3.25247C33.7263 3.25247 35.2489 5.19593 35.2489 7.58903C35.2489 9.98213 33.7512 11.9256 31.8543 11.9256C29.9573 11.9256 28.4547 9.99212 28.4547 7.58903C28.4547 5.18594 29.9872 3.25247 31.8543 3.25247Z" fill="currentColor" stroke="currentColor" stroke-width="0.5"/>
<path d="M23.2079 50.5448L17.5169 46.8227C17.4982 46.8062 17.4782 46.7911 17.457 46.7778C17.3331 46.7131 17.1935 46.6844 17.0541 46.695C16.9147 46.7056 16.7811 46.7551 16.6683 46.8377C15.6683 47.5823 14.4551 47.9844 13.2088 47.9844C11.9624 47.9844 10.7492 47.5823 9.74926 46.8377C9.63649 46.7551 9.50284 46.7056 9.36344 46.695C9.22405 46.6844 9.08447 46.7131 8.96051 46.7778C8.93938 46.7911 8.91935 46.8062 8.90061 46.8227L3.20964 50.5448C3.11538 50.6068 3.03633 50.6894 2.97841 50.7863C2.9205 50.8832 2.8852 50.9919 2.87517 51.1044C2.74538 52.5232 2.08643 59.5976 2.08643 60.1672H3.58405C3.58405 59.7725 4.03334 54.8514 4.33286 51.604L8.58611 48.8112L8.651 51.6789C8.6665 52.3842 8.8332 53.0779 9.13981 53.7132C9.44641 54.3484 9.88578 54.9104 10.4282 55.361L12.4799 57.0496V60.1672H13.9775V57.0496L15.9744 55.361C16.5151 54.9089 16.9532 54.3466 17.2597 53.7117C17.5661 53.0768 17.7338 52.3838 17.7516 51.6789L17.8165 48.8162L22.0747 51.604C22.3792 54.8514 22.8235 59.7725 22.8285 60.1672H24.3261C24.3261 59.6226 23.6672 52.5232 23.5324 51.1044C23.5235 50.9927 23.4897 50.8846 23.4336 50.7877C23.3774 50.6909 23.3003 50.6079 23.2079 50.5448ZM16.2639 51.6439C16.2519 52.1355 16.1352 52.6188 15.9217 53.0616C15.7082 53.5044 15.4028 53.8966 15.0259 54.2119L13.2038 55.7107L11.3867 54.2119C11.009 53.8972 10.703 53.5052 10.4895 53.0622C10.2759 52.6193 10.1597 52.1356 10.1486 51.6439L10.0837 48.7862C11.0595 49.25 12.1261 49.4906 13.2063 49.4906C14.2865 49.4906 15.3531 49.25 16.3288 48.7862L16.2639 51.6439Z" fill="currentColor" stroke="currentColor" stroke-width="0.5"/>
<path d="M13.2041 46.5631C15.8999 46.5631 18.0964 43.9451 18.0964 40.7277C18.0964 37.5103 15.8999 34.8923 13.2041 34.8923C10.5084 34.8923 8.31689 37.5103 8.31689 40.7277C8.31689 43.9451 10.5084 46.5631 13.2041 46.5631ZM13.2041 36.3911C15.0762 36.3911 16.5987 38.3346 16.5987 40.7277C16.5987 43.1208 15.0762 45.0643 13.2041 45.0643C11.3321 45.0643 9.81452 43.1208 9.81452 40.7277C9.81452 38.3346 11.3371 36.3911 13.2041 36.3911Z" fill="currentColor" stroke="currentColor" stroke-width="0.5"/>
<path d="M60.8433 50.34C60.8332 50.2276 60.7979 50.1188 60.74 50.0219C60.6821 49.925 60.6031 49.8425 60.5088 49.7805L54.8178 46.0534C54.7986 46.0389 54.7786 46.0256 54.7579 46.0134C54.6343 45.9476 54.4945 45.9183 54.3549 45.9289C54.2152 45.9395 54.0814 45.9896 53.9692 46.0734C52.9696 46.8168 51.7575 47.2182 50.5122 47.2182C49.2669 47.2182 48.0547 46.8168 47.0551 46.0734C46.9429 45.9896 46.8091 45.9395 46.6695 45.9289C46.5298 45.9183 46.39 45.9476 46.2664 46.0134C46.2664 46.0134 46.2265 46.0434 46.2015 46.0534L40.5105 49.7805C40.4156 49.8422 40.3358 49.9246 40.277 50.0215C40.2182 50.1183 40.182 50.2272 40.1711 50.34C40.0413 51.7539 39.3823 58.8333 39.3823 59.3978H40.8799C40.8799 59.0031 41.3292 54.082 41.6288 50.8296L45.892 48.0418L45.9569 50.9046C45.973 51.6105 46.1399 52.3048 46.4464 52.9407C46.753 53.5767 47.192 54.1396 47.7341 54.5916L49.7609 56.2803V59.3928H51.2585V56.2803L53.2902 54.5916C53.8323 54.1396 54.2713 53.5767 54.5779 52.9407C54.8844 52.3048 55.0513 51.6105 55.0674 50.9046L55.1323 48.0418L59.3906 50.8296C59.6951 54.082 60.1394 59.0031 60.1444 59.3978H61.642C61.637 58.8533 60.978 51.7539 60.8433 50.34ZM53.5648 50.8746C53.5537 51.3663 53.4375 51.8499 53.224 52.2929C53.0104 52.7359 52.7045 53.1279 52.3268 53.4425L50.5047 54.9414L48.6876 53.4425C48.3089 53.1287 48.0022 52.7369 47.7886 52.2937C47.5749 51.8506 47.4593 51.3665 47.4495 50.8746L47.3846 48.0169C48.3597 48.4831 49.4266 48.725 50.5072 48.725C51.5878 48.725 52.6547 48.4831 53.6297 48.0169L53.5648 50.8746Z" fill="currentColor" stroke="currentColor" stroke-width="0.5"/>
<path d="M50.5049 45.7987C53.2006 45.7987 55.3972 43.1807 55.3972 39.9633C55.3972 36.7459 53.2006 34.1279 50.5049 34.1279C47.8092 34.1279 45.6177 36.7459 45.6177 39.9683C45.6177 43.1907 47.8092 45.7987 50.5049 45.7987ZM50.5049 35.6267C52.3769 35.6267 53.8995 37.5702 53.8995 39.9633C53.8995 42.3564 52.4019 44.2999 50.5049 44.2999C48.6079 44.2999 47.1153 42.3564 47.1153 39.9683C47.1153 37.5802 48.6379 35.6267 50.5049 35.6267Z" fill="currentColor" stroke="currentColor" stroke-width="0.5"/>
<path d="M32.6484 37.83V30.9755C32.6484 30.7767 32.5695 30.5861 32.4291 30.4456C32.2887 30.305 32.0982 30.2261 31.8996 30.2261C31.701 30.2261 31.5105 30.305 31.3701 30.4456C31.2297 30.5861 31.1508 30.7767 31.1508 30.9755V37.83L24.8807 44.1051C24.8107 44.1743 24.7551 44.2568 24.7172 44.3477C24.6792 44.4386 24.6597 44.5361 24.6597 44.6346C24.6597 44.7332 24.6792 44.8307 24.7172 44.9216C24.7551 45.0125 24.8107 45.095 24.8807 45.1642C25.0211 45.3046 25.2115 45.3834 25.4099 45.3834C25.6083 45.3834 25.7987 45.3046 25.9391 45.1642L31.8996 39.199L37.7703 45.0743C37.9115 45.2149 38.1027 45.2939 38.3019 45.2939C38.5012 45.2939 38.6923 45.2149 38.8336 45.0743C38.9726 44.9331 39.0506 44.7429 39.0506 44.5447C39.0506 44.3465 38.9726 44.1563 38.8336 44.0151L32.6484 37.83Z" fill="currentColor" stroke="currentColor" stroke-width="0.5"/>
</svg>
