<svg width="63" height="53" viewBox="0 0 63 53" xmlns="http://www.w3.org/2000/svg">
<path d="M59.8773 1.36646H4.15283C3.73921 1.36761 3.34261 1.53104 3.04844 1.82156C2.75427 2.11208 2.58608 2.50643 2.5801 2.91965V36.6755C2.5789 36.8828 2.61866 37.0884 2.69711 37.2803C2.77555 37.4723 2.89113 37.6469 3.03724 37.7942C3.18334 37.9414 3.35708 38.0584 3.54852 38.1384C3.73995 38.2185 3.94531 38.26 4.15283 38.2606H23.3719C23.4161 38.8074 23.5123 39.3489 23.6591 39.8775L17.5369 46.0038H23.6044V52.0617L29.7221 45.9309C31.222 46.3499 32.8081 46.3499 34.308 45.9309L40.4257 52.0435V46.0038H46.4978L40.3755 39.8684C40.5182 39.3421 40.6128 38.804 40.6582 38.2606H59.8773C60.2948 38.2594 60.6948 38.0928 60.9896 37.7974C61.2845 37.502 61.45 37.1018 61.45 36.6846V2.91965C61.444 2.50643 61.2758 2.11208 60.9817 1.82156C60.6875 1.53104 60.2909 1.36761 59.8773 1.36646ZM24.972 48.7367V44.6373H20.8373L24.1606 41.2759C25.0241 43.0858 26.4838 44.5443 28.2952 45.4071L24.972 48.7367ZM24.7076 37.5774C24.7076 36.136 25.1354 34.727 25.9368 33.5285C26.7383 32.33 27.8774 31.396 29.2102 30.8444C30.5429 30.2928 32.0095 30.1485 33.4243 30.4297C34.8392 30.7109 36.1388 31.4049 37.1589 32.4242C38.1789 33.4434 38.8736 34.7419 39.155 36.1556C39.4364 37.5693 39.292 39.0346 38.7399 40.3662C38.1879 41.6979 37.253 42.8361 36.0536 43.6369C34.8541 44.4377 33.444 44.8651 32.0014 44.8651C30.0669 44.8651 28.2117 44.0973 26.8439 42.7306C25.4761 41.3638 24.7076 39.5102 24.7076 37.5774ZM43.1928 44.6373H39.0581V48.7367L35.7166 45.398C37.5281 44.5352 38.9878 43.0767 39.8513 41.2668L43.1928 44.6373ZM60.0824 36.6755C60.0824 36.7303 60.061 36.7829 60.0226 36.8221C59.9843 36.8612 59.9321 36.8838 59.8773 36.885H40.6536C40.495 34.7042 39.5159 32.6641 37.9134 31.1751C36.3108 29.686 34.2035 28.8583 32.0151 28.8583C29.8266 28.8583 27.7193 29.686 26.1167 31.1751C24.5142 32.6641 23.5351 34.7042 23.3765 36.885H4.15283C4.098 36.8838 4.04583 36.8612 4.00749 36.8221C3.96914 36.7829 3.94767 36.7303 3.94769 36.6755V2.91965C3.95226 2.86851 3.97587 2.82094 4.01386 2.78636C4.05184 2.75178 4.10144 2.7327 4.15283 2.7329H59.8773C59.9317 2.7329 59.9839 2.7545 60.0223 2.79294C60.0608 2.83138 60.0824 2.88351 60.0824 2.93787V36.6755Z" fill="currentColor" stroke="currentColor" stroke-width="0.5"/>
<path d="M32.0152 25.0516C30.4366 25.0472 28.8727 25.3558 27.4141 25.9594C25.9556 26.5629 24.6313 27.4496 23.518 28.5679C23.3972 28.6974 23.3315 28.8687 23.3346 29.0457C23.3377 29.2227 23.4095 29.3916 23.5348 29.5168C23.66 29.6419 23.8291 29.7137 24.0062 29.7168C24.1834 29.7199 24.3548 29.6542 24.4844 29.5335C26.4814 27.5442 29.1863 26.4272 32.0061 26.4272C34.826 26.4272 37.5309 27.5442 39.5278 29.5335C39.656 29.6615 39.8298 29.7333 40.011 29.7333C40.1923 29.7333 40.3661 29.6615 40.4943 29.5335C40.5582 29.4704 40.609 29.3952 40.6436 29.3123C40.6783 29.2294 40.6961 29.1405 40.6961 29.0507C40.6961 28.9609 40.6783 28.872 40.6436 28.7891C40.609 28.7062 40.5582 28.631 40.4943 28.5679C39.3831 27.4517 38.0618 26.5664 36.6065 25.9629C35.1513 25.3594 33.5909 25.0496 32.0152 25.0516Z" fill="currentColor" stroke="currentColor" stroke-width="0.5"/>
<path d="M44.3917 16.1697H19.8938C19.7124 16.1697 19.5385 16.2417 19.4102 16.3698C19.282 16.4979 19.21 16.6717 19.21 16.8529C19.21 17.0341 19.282 17.2079 19.4102 17.336C19.5385 17.4641 19.7124 17.5361 19.8938 17.5361H44.3917C44.5731 17.5361 44.747 17.4641 44.8752 17.336C45.0035 17.2079 45.0755 17.0341 45.0755 16.8529C45.0755 16.6717 45.0035 16.4979 44.8752 16.3698C44.747 16.2417 44.5731 16.1697 44.3917 16.1697Z" fill="currentColor" stroke="currentColor" stroke-width="0.5"/>
<path d="M48.6862 10.4761H15.5588C15.3774 10.4761 15.2035 10.5481 15.0753 10.6762C14.947 10.8043 14.875 10.9781 14.875 11.1593C14.875 11.3405 14.947 11.5143 15.0753 11.6424C15.2035 11.7705 15.3774 11.8425 15.5588 11.8425H48.6862C48.8676 11.8425 49.0415 11.7705 49.1697 11.6424C49.298 11.5143 49.37 11.3405 49.37 11.1593C49.37 10.9781 49.298 10.8043 49.1697 10.6762C49.0415 10.5481 48.8676 10.4761 48.6862 10.4761Z" fill="currentColor" stroke="currentColor" stroke-width="0.5"/>
</svg>
