<svg width="83" height="47" viewBox="0 0 83 47" xmlns="http://www.w3.org/2000/svg">
<path d="M82.5883 1.95084C82.462 1.86344 82.316 1.80907 82.1635 1.79264C82.0111 1.77621 81.8569 1.79823 81.7151 1.85673L63.8077 9.16624C63.6907 9.21297 63.5842 9.28285 63.4944 9.37172C63.4047 9.46059 63.3336 9.56666 63.2854 9.68365C63.2371 9.80064 63.2126 9.92618 63.2134 10.0528C63.2142 10.1795 63.2403 10.3047 63.29 10.4211L63.8701 11.8391L56.8095 14.8068L46.0938 12.2594C44.2725 11.883 42.6133 11.632 40.7796 12.4539L37.9354 13.7088C33.0827 12.6547 27.4941 12.9684 26.2778 13.0814L19.1423 10.0321L19.7224 8.60783C19.7741 8.4921 19.8019 8.36699 19.804 8.24012C19.8061 8.11326 19.7825 7.98729 19.7346 7.86988C19.6868 7.75248 19.6157 7.64611 19.5256 7.55724C19.4356 7.46838 19.3285 7.39888 19.2109 7.35298L1.28489 0.0685656C1.1429 0.0106268 0.988878 -0.0110996 0.836526 0.00532041C0.684175 0.0217404 0.538223 0.0757975 0.411663 0.162679C0.28523 0.247324 0.181512 0.362041 0.109703 0.49666C0.0378938 0.631278 0.000212665 0.781639 0 0.934413V33.9621C0.0038719 34.1465 0.0615051 34.3256 0.165741 34.4773C0.269976 34.629 0.41622 34.7466 0.586308 34.8154L7.00451 37.3753C7.1162 37.4173 7.23455 37.4385 7.3538 37.438C7.53957 37.4384 7.72123 37.383 7.87563 37.2791C8.03004 37.1752 8.15019 37.0274 8.22078 36.8545L11.3394 29.1497L19.3482 32.2869L20.5208 29.5325C21.1944 30.0281 22.2111 30.7873 23.4835 31.7787L23.4149 31.8477C23.1602 32.1339 22.9659 32.469 22.8436 32.8328C22.7212 33.1967 22.6735 33.5817 22.7032 33.9646C22.733 34.3475 22.8395 34.7204 23.0165 35.0608C23.1935 35.4011 23.4372 35.7018 23.733 35.9448C24.1722 36.3059 24.7043 36.5343 25.2674 36.6036C25.1421 37.0092 25.0934 37.4348 25.1239 37.8584C25.1838 38.6912 25.5546 39.4704 26.162 40.0395C26.7695 40.6087 27.5684 40.9255 28.3985 40.9265C28.675 40.9243 28.9499 40.8842 29.2156 40.8073C29.3557 41.5548 29.7521 42.2292 30.3356 42.713C30.9191 43.1968 31.6529 43.4594 32.4091 43.455C32.6634 43.452 32.9165 43.4204 33.1638 43.3609C33.2712 43.9149 33.5252 44.4294 33.899 44.8503C34.2728 45.2711 34.7525 45.5828 35.2877 45.7524C35.8228 45.9219 36.3935 45.9432 36.9396 45.8138C37.4857 45.6845 37.987 45.4093 38.3907 45.0173L39.4573 46.0463C40.0918 46.6577 40.9363 46.9994 41.815 47C42.1902 46.9982 42.5628 46.9368 42.919 46.818C43.7208 46.5546 44.3909 45.9906 44.7902 45.2432C45.2165 45.413 45.6672 45.5126 46.125 45.5381H46.4119C47.6593 45.5381 49.3621 45.0173 50.778 42.7461H51.0711C51.4321 42.7467 51.7919 42.7067 52.144 42.6268C52.9049 42.4542 53.6093 42.0886 54.1902 41.5647C54.771 41.0408 55.2089 40.3762 55.4622 39.634C55.6718 39.6308 55.8806 39.6077 56.0859 39.565C56.6554 39.4342 57.1824 39.16 57.6177 38.7682C58.053 38.3764 58.3823 37.8799 58.5746 37.3251C58.755 36.8183 58.8027 36.2733 58.7132 35.7425C58.6236 35.2118 58.3997 34.7132 58.0632 34.2946L57.7451 33.8931L62.8721 32.2492L63.6518 34.0876L71.6605 30.9505L74.7792 38.6552C74.848 38.8281 74.9668 38.9762 75.1203 39.0802C75.2738 39.1843 75.4548 39.2395 75.6399 39.2387C75.7592 39.2398 75.8777 39.2186 75.9892 39.176L82.4074 36.6161C82.5821 36.5459 82.7319 36.4248 82.8375 36.2682C82.9431 36.1117 82.9997 35.9269 83 35.7377V2.72885C83.0013 2.57491 82.9644 2.42308 82.8925 2.28718C82.8206 2.15129 82.716 2.03566 82.5883 1.95084ZM41.5343 14.1731C42.7506 13.6335 43.8982 13.7276 45.6946 14.0978L56.2169 16.6075L58.1567 21.1752L59.9032 25.2848C58.7368 26.0457 57.4101 26.5224 56.0285 26.677C54.6469 26.8317 53.2485 26.6601 51.9444 26.1757L51.1522 25.8432C50.7449 25.6585 50.3491 25.449 49.9671 25.2158C48.2367 24.1108 46.7316 22.6841 45.5324 21.012C44.391 19.4435 43.1747 18.6466 41.9023 18.6466H41.6528C39.582 18.816 38.4094 21.0309 38.2784 21.2818L38.2472 21.3508C37.6235 22.9131 36.8376 23.8605 35.9456 24.2182C35.5942 24.3329 35.2227 24.372 34.8552 24.3331C34.4878 24.2942 34.1325 24.1781 33.8125 23.9923C33.6509 23.9055 33.5248 23.7643 33.4563 23.5933C33.3879 23.4224 33.3815 23.2327 33.4382 23.0574L34.561 19.2176C34.7631 18.5149 35.1165 17.8656 35.5962 17.3158C36.0759 16.766 36.6701 16.3293 37.3366 16.0365L41.5343 14.1731ZM6.8361 35.2985L1.84625 33.3221V2.33985L17.6391 8.77096L6.8361 35.2985ZM18.3439 29.8901L12.063 27.4306L18.4375 11.745L24.8931 14.5119L18.3439 29.8901ZM24.5813 33.8366C24.5723 33.7071 24.5892 33.5771 24.631 33.4542C24.6727 33.3314 24.7386 33.2182 24.8245 33.1213L24.968 32.9582L26.6084 34.2946L26.5335 34.3762C26.3351 34.6028 26.0566 34.7426 25.7573 34.766C25.4581 34.7894 25.1615 34.6946 24.9306 34.5017C24.8291 34.4217 24.7456 34.3212 24.6854 34.2066C24.6253 34.092 24.5898 33.9659 24.5813 33.8366ZM27.4879 38.6929C27.3457 38.5722 27.2294 38.4238 27.1457 38.2567C27.0621 38.0895 27.013 37.9071 27.0013 37.7204C26.9765 37.3472 27.0999 36.9794 27.3444 36.6977L28.2363 35.6561C28.9349 36.2836 29.6647 36.8734 30.4069 37.5384L29.4464 38.5799C29.2001 38.8538 28.8566 39.0192 28.4901 39.0403C28.1236 39.0615 27.7636 38.9367 27.4879 38.6929ZM31.4735 41.2026C31.3379 41.077 31.2282 40.9257 31.1508 40.7574C31.0733 40.5891 31.0296 40.4072 31.022 40.2219C31.0145 40.0366 31.0433 39.8516 31.1069 39.6776C31.1704 39.5035 31.2675 39.3437 31.3924 39.2074L31.8103 38.7494C32.4881 39.3601 33.1784 39.9875 33.8811 40.6316L33.4382 41.1085C33.1884 41.3801 32.8425 41.5421 32.475 41.5597C32.1075 41.5773 31.7479 41.4491 31.4735 41.2026ZM35.3718 43.6621C35.1429 43.4457 35.0035 43.1505 34.9815 42.8353C34.9596 42.5201 35.0566 42.2081 35.2533 41.9618C35.7273 42.4135 36.2014 42.8778 36.6817 43.3484L37.0559 43.7123C36.8197 43.9172 36.5159 44.0257 36.2042 44.0164C35.8924 44.0071 35.5955 43.8807 35.3718 43.6621ZM56.6036 35.4428C56.7426 35.6164 56.8345 35.8231 56.8706 36.043C56.9067 36.2629 56.8856 36.4884 56.8095 36.6977C56.7189 36.9581 56.5632 37.1906 56.3574 37.3729C56.1516 37.5552 55.9026 37.6811 55.6343 37.7385C55.3661 37.7958 55.0877 37.7827 54.8259 37.7004C54.5642 37.6182 54.3279 37.4694 54.1399 37.2686L45.5823 28.1333C45.4119 27.9511 45.1766 27.8444 44.928 27.8368C44.6794 27.8291 44.438 27.9211 44.2569 28.0925C44.0757 28.2639 43.9697 28.5007 43.9621 28.7507C43.9545 29.0008 44.0459 29.2436 44.2163 29.4258L52.7739 38.5799C53.0107 38.827 53.2817 39.0383 53.5785 39.2074C53.4113 39.6091 53.1507 39.9647 52.8186 40.2442C52.4865 40.5237 52.0926 40.7189 51.6699 40.8136C51.193 40.9263 50.6951 40.9114 50.2257 40.7705C49.7563 40.6296 49.3317 40.3676 48.9941 40.0105L41.79 32.4249C41.6171 32.2519 41.3839 32.1536 41.14 32.1511C40.8961 32.1485 40.6609 32.2418 40.4844 32.4112C40.308 32.5805 40.2042 32.8125 40.1953 33.0576C40.1863 33.3028 40.2729 33.5418 40.4365 33.7237L47.6593 41.303C48.0035 41.668 48.4036 41.9752 48.8444 42.2127C48.577 42.6622 48.1961 43.0325 47.7404 43.286C47.2846 43.5394 46.7703 43.667 46.2497 43.6558C45.5067 43.5913 44.8189 43.2352 44.3348 42.6645L38.3595 36.0075C38.1932 35.8288 37.9645 35.7218 37.7215 35.709C37.4785 35.6961 37.24 35.7784 37.0559 35.9385C36.9638 36.0208 36.8888 36.1207 36.8354 36.2324C36.782 36.3441 36.7512 36.4653 36.7448 36.5891C36.7384 36.7129 36.7566 36.8367 36.7982 36.9534C36.8398 37.07 36.9041 37.1772 36.9873 37.2686L42.9439 43.9256C43.0375 44.026 43.131 44.1264 43.2308 44.2205C43.1509 44.4119 43.031 44.5838 42.8792 44.7245C42.7275 44.8652 42.5475 44.9715 42.3514 45.0362C42.0855 45.1275 41.7996 45.143 41.5255 45.081C41.2514 45.019 40.9997 44.8819 40.7983 44.6848L38.0164 41.9994C32.7847 36.8629 27.1942 32.1095 21.288 27.7757L26.7581 14.9135C29.5685 14.7473 32.388 14.8271 35.1847 15.1519C34.0159 16.0369 33.1626 17.2781 32.7521 18.6906L31.6357 22.5367C31.4612 23.1363 31.5011 23.7784 31.7484 24.3515C31.9956 24.9246 32.4346 25.3924 32.9892 25.6738C33.5398 25.9733 34.1467 26.1537 34.7708 26.2034C35.3949 26.2531 36.0224 26.1711 36.613 25.9624C37.9915 25.4354 39.108 24.1366 39.9625 22.0912C40.187 21.6708 40.9355 20.5791 41.8337 20.5101C42.7319 20.4411 43.4928 21.3383 44.0292 22.0724C45.6741 24.3432 47.8281 26.1919 50.3164 27.4682C50.3164 27.5059 50.3663 27.5498 50.3913 27.5812L55.4373 33.9433L55.824 34.4954H55.8614L56.6036 35.4428ZM62.1299 30.4862L56.5163 32.2806L53.853 28.516C56.227 28.8799 58.6515 28.3649 60.6766 27.0667L60.8887 27.5686L62.1299 30.4862ZM64.6623 31.6783L62.0052 25.4856L58.1193 16.2938L64.5812 13.5582L70.9495 29.2439L64.6623 31.6783ZM81.1475 35.104L76.1576 37.0867L65.3795 10.5528L81.1475 4.12801V35.104Z" fill="currentColor"/>
</svg>
