<svg width="59" height="60" viewBox="0 0 59 60" xmlns="http://www.w3.org/2000/svg">
<g clip-path="url(#clip0)">
<path d="M24.4005 33.0417V30.7858L27.567 27.4857L31.5037 28.6314C31.9661 28.7595 32.3943 28.9899 32.7572 29.3056C33.4472 29.8828 33.9198 30.6808 34.0963 31.5665L35.0427 36.3367C35.0765 36.5094 35.1687 36.6649 35.3037 36.7768C35.4386 36.8886 35.6079 36.9499 35.7827 36.9501C35.8329 36.9551 35.8835 36.9551 35.9337 36.9501C36.1303 36.9097 36.303 36.7927 36.4143 36.6247C36.5255 36.4566 36.5663 36.251 36.5277 36.0528L35.5763 31.2826C35.3389 30.0503 34.6863 28.9384 33.7288 28.1346C33.2007 27.6693 32.5712 27.3359 31.8913 27.1613L27.8036 25.9599C27.7881 25.9503 27.7754 25.9369 27.7666 25.9209C27.7577 25.9049 27.7532 25.8869 27.7533 25.8686L27.6123 24.6672C28.6348 23.7326 29.3894 22.5386 29.7971 21.21C30.2543 20.9736 30.6329 20.6077 30.886 20.1573C31.1392 19.7069 31.2559 19.1917 31.2218 18.6753C31.24 18.222 31.1477 17.771 30.9529 17.3618C30.758 16.9527 30.4667 16.5978 30.1042 16.3283C30.0737 15.437 29.9247 14.5538 29.6612 13.7024V13.6669C29.3698 12.7081 28.8673 11.8278 28.1912 11.0917C27.6021 10.4918 26.8943 10.0235 26.1138 9.71691C25.3332 9.41038 24.4974 9.27255 23.6605 9.31237C22.8242 9.27379 21.9892 9.4117 21.2089 9.71725C20.4287 10.0228 19.7205 10.4892 19.1298 11.0866C18.4371 11.8387 17.921 12.7378 17.6196 13.7176C17.6217 13.7276 17.6217 13.738 17.6196 13.748C17.3554 14.5977 17.2047 15.4791 17.1715 16.3688C16.8214 16.6418 16.5421 16.9959 16.3571 17.4011C16.1722 17.8062 16.0872 18.2503 16.1093 18.6956C16.0758 19.2119 16.1928 19.7268 16.4459 20.1771C16.699 20.6273 17.0772 20.9934 17.534 21.2302C17.9419 22.5576 18.6944 23.7511 19.7138 24.6875L19.5527 25.8534C19.5527 25.894 19.5275 25.9244 19.462 25.965L15.475 27.1309C14.7708 27.3107 14.1199 27.6585 13.5771 28.1447C12.6167 28.942 11.9588 30.0485 11.7145 31.2776L10.7681 36.0477C10.7295 36.246 10.7703 36.4515 10.8816 36.6196C10.9928 36.7877 11.1656 36.9046 11.3621 36.945H11.5081C11.6829 36.9448 11.8522 36.8836 11.9872 36.7717C12.1221 36.6598 12.2143 36.5043 12.2481 36.3316L13.1946 31.5614C13.3738 30.6757 13.848 29.8781 14.5387 29.3005C14.9148 28.967 15.3657 28.7305 15.8526 28.6111L19.7238 27.4807L22.8903 30.7808V33.0366C22.8903 33.2383 22.9698 33.4317 23.1115 33.5743C23.2531 33.7169 23.4451 33.797 23.6454 33.797C23.8457 33.797 24.0377 33.7169 24.1794 33.5743C24.321 33.4317 24.4005 33.2383 24.4005 33.0366V33.0417ZM27.0636 12.1309C27.4357 12.5328 27.737 12.9957 27.9546 13.4996C27.1863 13.755 26.3703 13.8313 25.5684 13.7226C24.703 13.5812 23.8695 13.286 23.1068 12.8507L22.3818 12.5009C21.7529 12.193 21.0671 12.0203 20.3682 11.994C21.2712 11.186 22.4541 10.7689 23.6605 10.8332C24.286 10.8009 24.9114 10.8995 25.4971 11.1229C26.0828 11.3462 26.6162 11.6895 27.0636 12.1309ZM18.8428 20.3938L18.7069 19.8869L18.2035 19.8362C17.9166 19.8362 17.6145 19.3293 17.6145 18.7007C17.6145 18.0721 17.8864 17.6463 18.1481 17.5702H18.2186L18.274 17.5449L18.3545 17.4942L18.3948 17.4688L18.4703 17.4029L18.5005 17.3725C18.5233 17.3476 18.5435 17.3204 18.5609 17.2914C18.5721 17.2799 18.5807 17.2661 18.5861 17.2509C18.6025 17.2254 18.616 17.1982 18.6264 17.1698C18.6282 17.1529 18.6282 17.1359 18.6264 17.1191C18.6288 17.0904 18.6288 17.0616 18.6264 17.0329V16.9721C18.6291 16.9434 18.6291 16.9145 18.6264 16.8859C18.6264 16.8859 18.6264 16.8504 18.6264 16.8301C18.6182 15.9592 18.7439 15.0922 18.9989 14.26C19.1721 13.971 19.4387 13.7509 19.754 13.6365C20.4149 13.474 21.1125 13.5738 21.7022 13.9153L22.3919 14.2498C23.3129 14.7618 24.3169 15.1051 25.357 15.2637C25.6662 15.2995 25.9771 15.3181 26.2883 15.3195C26.992 15.323 27.6912 15.2082 28.3574 14.9798C28.4855 15.5844 28.5447 16.2018 28.5335 16.82C28.5305 16.92 28.5459 17.0196 28.5789 17.114L28.6242 17.2052C28.6447 17.2213 28.6689 17.2318 28.6946 17.2357L28.745 17.3066L28.7802 17.3522C28.7962 17.3717 28.8148 17.3888 28.8356 17.4029L28.8859 17.4536C28.9249 17.4837 28.9671 17.5092 29.0118 17.5297C29.0554 17.551 29.1009 17.568 29.1477 17.5804C29.4145 17.6513 29.6914 18.0873 29.6914 18.7159C29.6914 19.3445 29.3793 19.8261 29.1024 19.8514L28.599 19.897L28.4631 20.404C28.1434 21.7221 27.4044 22.8988 26.3588 23.7547L26.0215 24.0184L26.2581 26.0461C26.2765 26.2137 26.3242 26.3767 26.3991 26.5276L23.6605 29.4019L20.927 26.5479C20.9985 26.3869 21.046 26.216 21.0679 26.041L21.2995 24.0133L20.9673 23.7497C19.9138 22.895 19.1676 21.7162 18.8428 20.3938Z" fill="currentColor" stroke="currentColor" stroke-width="0.5"/>
<path d="M47.0439 24.6165C47.0478 19.9548 45.6785 15.3968 43.1092 11.519C40.5399 7.64127 36.886 4.61813 32.61 2.83211C28.3339 1.04609 23.6278 0.577481 19.0872 1.48557C14.5465 2.39366 10.3754 4.63763 7.10168 7.93355C3.8279 11.2295 1.59859 15.4292 0.695823 20.0013C-0.206945 24.5735 0.257404 29.3125 2.03011 33.6189C3.80283 37.9252 6.80423 41.6052 10.6545 44.1933C14.5048 46.7814 19.031 48.1612 23.6603 48.1582C29.8583 48.1488 35.7998 45.6657 40.1829 41.253C44.566 36.8402 47.0332 30.8577 47.0439 24.6165ZM1.76186 24.6165C1.75787 20.2567 3.03797 15.9937 5.44023 12.3666C7.84249 8.73945 11.259 5.91121 15.2576 4.23956C19.2563 2.5679 23.6574 2.12793 27.9044 2.97528C32.1514 3.82263 36.0534 5.91925 39.117 8.99995C42.1806 12.0806 44.268 16.007 45.1154 20.2825C45.9627 24.558 45.5318 28.9904 43.8773 33.0193C42.2228 37.0482 39.4188 40.4924 35.8202 42.9165C32.2216 45.3405 27.9899 46.6354 23.6603 46.6374C17.8585 46.6348 12.2947 44.3148 8.18938 40.1865C4.08406 36.0583 1.77252 30.4588 1.76186 24.6165Z" fill="currentColor" stroke="currentColor" stroke-width="0.5"/>
<path d="M57.2028 53.0652L45.569 41.3501C49.0511 36.7061 50.9319 31.0439 50.9253 25.2247C50.9253 25.0231 50.8457 24.8297 50.7041 24.6871C50.5625 24.5445 50.3704 24.4644 50.1702 24.4644C49.9699 24.4644 49.7778 24.5445 49.6362 24.6871C49.4946 24.8297 49.415 25.0231 49.415 25.2247C49.415 28.5533 48.764 31.8492 47.499 34.9244C46.2341 37.9996 44.38 40.7937 42.0427 43.1474C39.7054 45.501 36.9306 47.368 33.8768 48.6418C30.8229 49.9155 27.5498 50.5711 24.2444 50.5711C24.0441 50.5711 23.852 50.6513 23.7104 50.7939C23.5688 50.9365 23.4893 51.1299 23.4893 51.3315C23.4893 51.5332 23.5688 51.7266 23.7104 51.8692C23.852 52.0118 24.0441 52.0919 24.2444 52.0919C30.0287 52.099 35.657 50.2033 40.2731 46.6932L51.9069 58.4032C52.613 59.0966 53.5618 59.482 54.5481 59.476C55.5343 59.4701 56.4785 59.0731 57.1762 58.3712C57.8739 57.6693 58.2689 56.7189 58.2758 55.7258C58.2827 54.7327 57.9008 53.7769 57.2129 53.0652H57.2028ZM56.1356 57.3285C55.9275 57.5385 55.6803 57.7051 55.4082 57.8188C55.1361 57.9324 54.8444 57.9909 54.5498 57.9909C54.2553 57.9909 53.9636 57.9324 53.6915 57.8188C53.4193 57.7051 53.1722 57.5385 52.9641 57.3285L41.451 45.7351C42.5928 44.761 43.652 43.6927 44.6175 42.5414L56.1356 54.1399C56.5552 54.5629 56.7909 55.1363 56.7909 55.7342C56.7909 56.3321 56.5552 56.9055 56.1356 57.3285Z" fill="currentColor" stroke="currentColor" stroke-width="0.5"/>
</g>
<defs>
<clipPath id="clip0">
<rect width="59" height="60" fill="white"/>
</clipPath>
</defs>
</svg>
