<svg width="72" height="61" viewBox="0 0 72 61" xmlns="http://www.w3.org/2000/svg">
<path d="M70.6089 4.03145C70.6075 3.28435 70.3116 2.56832 69.7861 2.04053C69.2606 1.51273 68.5485 1.21631 67.806 1.21631H11.6074C10.9088 1.26089 10.2522 1.56793 9.76786 2.07658C9.28351 2.58524 9.00671 3.2584 8.99229 3.96271C8.97787 4.66701 9.22689 5.35107 9.69001 5.87937C10.1531 6.40766 10.7966 6.74164 11.4928 6.81514V18.1753C11.4928 18.3839 11.5752 18.5839 11.7217 18.7313C11.8683 18.8788 12.067 18.9617 12.2743 18.9617C12.4816 18.9617 12.6803 18.8788 12.8269 18.7313C12.9734 18.5839 13.0558 18.3839 13.0558 18.1753V6.85184H66.3629V38.5681H31.6601C31.4529 38.5681 31.2541 38.6509 31.1075 38.7984C30.961 38.9458 30.8786 39.1459 30.8786 39.3544C30.8786 39.563 30.961 39.763 31.1075 39.9104C31.2541 40.0579 31.4529 40.1408 31.6601 40.1408H67.9258V6.81514C68.6424 6.78561 69.3203 6.48031 69.8196 5.96228C70.3189 5.44425 70.6015 4.75306 70.6089 4.03145ZM67.806 5.27913H11.6074C11.4382 5.29019 11.2685 5.26619 11.1088 5.20862C10.9492 5.15106 10.803 5.06114 10.6792 4.94445C10.5555 4.82775 10.4568 4.68675 10.3894 4.53016C10.322 4.37357 10.2872 4.20473 10.2872 4.03407C10.2872 3.86342 10.322 3.69457 10.3894 3.53799C10.4568 3.3814 10.5555 3.2404 10.6792 3.1237C10.803 3.007 10.9492 2.91709 11.1088 2.85952C11.2685 2.80196 11.4382 2.77796 11.6074 2.78901H67.806C67.9752 2.77796 68.1449 2.80196 68.3046 2.85952C68.4642 2.91709 68.6105 3.007 68.7342 3.1237C68.858 3.2404 68.9566 3.3814 69.024 3.53799C69.0915 3.69457 69.1263 3.86342 69.1263 4.03407C69.1263 4.20473 69.0915 4.37357 69.024 4.53016C68.9566 4.68675 68.858 4.82775 68.7342 4.94445C68.6105 5.06114 68.4642 5.15106 68.3046 5.20862C68.1449 5.26619 67.9752 5.29019 67.806 5.27913Z" fill="currentColor" stroke="currentColor" stroke-width="0.5"/>
<path d="M27.784 58.4468H25.7782C25.6975 57.4596 25.3773 56.5073 24.8456 55.6736C24.5016 55.1311 24.047 54.6683 23.5119 54.3158C22.298 53.5347 21.5061 52.5177 21.3915 51.6003C21.1206 49.4457 23.0743 47.8206 23.0899 47.8048C23.1825 47.73 23.2568 47.6349 23.3074 47.5268C23.3579 47.4187 23.3833 47.3004 23.3817 47.181L23.2983 45.1941C25.9422 42.4136 27.9935 39.1186 29.3261 35.5115C36.6772 35.0554 37.3805 26.7882 37.3857 26.7044C37.3951 26.596 37.3818 26.4869 37.3468 26.384C37.3119 26.2811 37.2559 26.1866 37.1825 26.1067C37.1088 26.0281 37.02 25.9653 36.9215 25.922C36.8231 25.8788 36.7169 25.856 36.6095 25.8551H31.259C31.3247 24.5135 31.2811 23.1687 31.1287 21.8342C31.1013 21.6466 31.0078 21.4752 30.8653 21.3511C30.7229 21.227 30.5409 21.1584 30.3524 21.158H7.81467C7.62684 21.1586 7.44552 21.2273 7.30392 21.3515C7.16232 21.4757 7.06991 21.6471 7.04362 21.8342C6.8881 23.1685 6.84453 24.5135 6.91337 25.8551H1.56286C1.45499 25.8555 1.34836 25.8783 1.24959 25.9219C1.15082 25.9656 1.06204 26.0292 0.988744 26.1089C0.915452 26.1885 0.859224 26.2825 0.823552 26.3849C0.78788 26.4874 0.773528 26.5961 0.781388 26.7044C0.781388 26.7882 1.49514 35.0554 8.84622 35.5115C10.1797 39.1206 12.2348 42.4161 14.8844 45.1941L14.7959 47.181C14.7971 47.3021 14.8259 47.4213 14.8801 47.5295C14.9342 47.6376 15.0124 47.7318 15.1084 47.8048C15.1084 47.8048 17.0621 49.4195 16.7912 51.6003C16.6766 52.5177 15.8795 53.5347 14.6708 54.3158C14.1357 54.6683 13.6811 55.1311 13.3371 55.6736C12.8067 56.5083 12.4849 57.4598 12.3993 58.4468H10.3727C10.1654 58.4468 9.96667 58.5296 9.82012 58.6771C9.67356 58.8246 9.59123 59.0246 9.59123 59.2332C9.59123 59.4417 9.67356 59.6417 9.82012 59.7892C9.96667 59.9367 10.1654 60.0195 10.3727 60.0195H27.784C27.9913 60.0195 28.19 59.9367 28.3366 59.7892C28.4831 59.6417 28.5655 59.4417 28.5655 59.2332C28.5655 59.0246 28.4831 58.8246 28.3366 58.6771C28.19 58.5296 27.9913 58.4468 27.784 58.4468ZM31.1339 27.4278H35.7029C35.5105 28.4377 35.1735 29.4142 34.7027 30.3268C34.2514 31.2716 33.5746 32.0892 32.7328 32.7066C31.891 33.3241 30.9103 33.7222 29.8783 33.8654C30.5187 31.7695 30.9395 29.6119 31.1339 27.4278ZM8.53884 22.7097H29.6231C29.821 25.4252 29.9878 35.8156 22.2303 44.0041H15.9264C8.18978 35.8365 8.33566 25.4514 8.53884 22.7307V22.7097ZM2.44854 27.4278H7.02278C7.21706 29.6101 7.63788 31.766 8.27835 33.8602C4.02712 33.2206 2.78718 29.2155 2.44854 27.4278ZM13.9519 58.4468C14.0277 57.7657 14.2576 57.1112 14.6239 56.5333C14.8463 56.1763 15.1431 55.8722 15.494 55.6421C16.2598 55.1179 18.0728 53.7811 18.3177 51.7995C18.6251 49.3618 17.0621 47.5322 16.3744 46.8612L16.4317 45.6083H21.751L21.8031 46.8664C21.1102 47.5375 19.5316 49.3671 19.839 51.81C20.0891 53.7916 21.9229 55.1546 22.6679 55.6526C23.0176 55.8841 23.3142 56.1879 23.538 56.5438C23.902 57.1228 24.1317 57.7768 24.21 58.4573L13.9519 58.4468Z" fill="currentColor" stroke="currentColor" stroke-width="0.5"/>
<path d="M49.1289 19.3966L39.6783 28.8957C39.5691 29.0057 39.4948 29.1457 39.4647 29.2982C39.4346 29.4506 39.4501 29.6086 39.5092 29.7522C39.5682 29.8958 39.6683 30.0186 39.7967 30.105C39.9251 30.1914 40.076 30.2376 40.2305 30.2378C40.4373 30.2359 40.6354 30.1532 40.7827 30.0071L49.1185 21.6193L53.0311 25.5616L61.148 17.394V19.3966H62.711V14.6785H58.0221V16.2512H60.0331L53.0415 23.3231L49.1289 19.3966Z" fill="currentColor" stroke="currentColor" stroke-width="0.5"/>
</svg>
