<svg width="67" height="53" viewBox="0 0 67 53" xmlns="http://www.w3.org/2000/svg">
<path d="M37.7246 25.8985H41.2155C41.4057 25.8985 41.5881 25.823 41.7227 25.6887C41.8572 25.5545 41.9327 25.3723 41.9327 25.1824C41.9327 24.9925 41.8572 24.8103 41.7227 24.676C41.5881 24.5418 41.4057 24.4663 41.2155 24.4663H37.7246C37.5344 24.4663 37.3519 24.5418 37.2174 24.676C37.0829 24.8103 37.0073 24.9925 37.0073 25.1824C37.0073 25.3723 37.0829 25.5545 37.2174 25.6887C37.3519 25.823 37.5344 25.8985 37.7246 25.8985Z" fill="currentColor" stroke="currentColor" stroke-width="0.5"/>
<path d="M33.2441 13.6249C35.9554 13.6249 38.1599 10.9944 38.1599 7.76249C38.1599 4.53055 35.9554 1.90967 33.2441 1.90967C30.5327 1.90967 28.333 4.53532 28.333 7.76249C28.333 10.9897 30.5375 13.6249 33.2441 13.6249ZM33.2441 3.34184C35.1569 3.34184 36.7253 5.32779 36.7253 7.76726C36.7253 10.2067 35.1616 12.1975 33.2441 12.1975C31.3265 12.1975 29.7676 10.2115 29.7676 7.76726C29.7676 5.32302 31.3265 3.34184 33.2441 3.34184Z" fill="currentColor" stroke="currentColor" stroke-width="0.5"/>
<path d="M51.5493 15.5724C53.706 15.5724 55.461 13.4958 55.461 10.9417C55.461 8.38769 53.706 6.31104 51.5493 6.31104C49.3927 6.31104 47.6377 8.38769 47.6377 10.9417C47.6377 13.4958 49.3927 15.5724 51.5493 15.5724ZM51.5493 7.74321C52.917 7.74321 54.0264 9.17538 54.0264 10.9417C54.0264 12.7081 52.917 14.1403 51.5493 14.1403C50.1817 14.1403 49.0723 12.7081 49.0723 10.9417C49.0723 9.17538 50.1817 7.74321 51.5493 7.74321Z" fill="currentColor" stroke="currentColor" stroke-width="0.5"/>
<path d="M14.939 15.5724C17.0956 15.5724 18.8506 13.4958 18.8506 10.9417C18.8506 8.38769 17.0956 6.31104 14.939 6.31104C12.7823 6.31104 11.0273 8.38769 11.0273 10.9417C11.0273 13.4958 12.7823 15.5724 14.939 15.5724ZM14.939 7.74321C16.3066 7.74321 17.416 9.17538 17.416 10.9417C17.416 12.7081 16.3066 14.1403 14.939 14.1403C13.5713 14.1403 12.4619 12.7081 12.4619 10.9417C12.4619 9.17538 13.5761 7.74321 14.939 7.74321Z" fill="currentColor" stroke="currentColor" stroke-width="0.5"/>
<path d="M60.6735 28.5671C60.5157 26.7912 59.8749 20.7666 59.6645 18.7472C59.6501 18.6203 59.6022 18.4996 59.5258 18.3972C59.4493 18.2949 59.347 18.2147 59.2293 18.1648L54.8395 16.3173C54.7276 16.2709 54.6058 16.2536 54.4853 16.267C54.3649 16.2803 54.2499 16.3239 54.1509 16.3936L51.5543 18.2221L48.9577 16.3936C48.8587 16.3239 48.7436 16.2803 48.6232 16.267C48.5028 16.2536 48.381 16.2709 48.2691 16.3173L44.3718 17.9499L38.117 13.8444C37.9864 13.7545 37.8291 13.7117 37.6709 13.723C37.5127 13.7342 37.3631 13.799 37.2467 13.9064L33.2537 17.5824L29.2608 13.9064C29.1444 13.799 28.9947 13.7342 28.8366 13.723C28.6784 13.7117 28.521 13.7545 28.3905 13.8444L22.1166 17.9499L18.2288 16.3173C18.1162 16.2705 17.9935 16.253 17.8723 16.2663C17.751 16.2797 17.6351 16.3235 17.5354 16.3936L14.9388 18.2221L12.3422 16.3936C12.2435 16.3235 12.1284 16.2796 12.0079 16.2663C11.8874 16.2529 11.7654 16.2705 11.6536 16.3173L7.25902 18.1648C7.14135 18.2141 7.03922 18.2943 6.96346 18.3968C6.8877 18.4993 6.84111 18.6204 6.82864 18.7472C6.60867 20.7666 5.96789 26.796 5.81009 28.5719C4.59763 28.9452 3.53678 29.6963 2.78296 30.7151C2.02913 31.734 1.62196 32.9671 1.62109 34.2338V51.6681H13.7434V48.5316C13.7446 47.1634 14.2896 45.8515 15.2588 44.8839C16.228 43.9164 17.5421 43.3723 18.9126 43.371H47.5757C48.9467 43.3723 50.2613 43.9163 51.2312 44.8836C52.2012 45.851 52.7472 47.1629 52.7498 48.5316V51.6681H64.8673V34.2338C64.8656 32.9661 64.4576 31.7321 63.703 30.7125C62.9484 29.6929 61.8868 28.9411 60.6735 28.5671ZM50.8322 19.468V25.1967C50.8322 25.3867 50.9078 25.5688 51.0423 25.7031C51.1768 25.8374 51.3593 25.9128 51.5495 25.9128C51.7397 25.9128 51.9222 25.8374 52.0567 25.7031C52.1912 25.5688 52.2668 25.3867 52.2668 25.1967V19.468L54.6578 17.7924L58.2921 19.3201C58.622 22.4374 59.0572 26.6289 59.2198 28.3237H58.9472H45.8303C45.682 26.3616 45.1943 21.1007 45.0221 19.2532L48.4508 17.8211L50.8322 19.468ZM37.7775 15.3673L43.5541 19.1386C43.8458 22.2942 44.2427 26.6003 44.3766 28.3093H36.2472L34.9083 23.9508L36.3764 21.2535C36.452 21.1132 36.4789 20.9519 36.453 20.7947C36.427 20.6375 36.3496 20.4933 36.2329 20.3846L34.301 18.6183L37.7775 15.3673ZM32.8712 24.5857H33.6172L34.7457 28.3093H31.7474L32.8712 24.5857ZM34.8653 21.0578L33.7224 23.1535H32.766L31.6279 21.0578L33.2442 19.5731L34.8653 21.0578ZM28.6918 15.3673L32.1874 18.6183L30.2411 20.3846C30.1251 20.4937 30.0482 20.6379 30.0223 20.7949C29.9963 20.9519 30.0228 21.113 30.0976 21.2535L31.5609 23.9508L30.2459 28.3093H22.1166C22.2505 26.6003 22.6426 22.2942 22.9343 19.1386L28.6918 15.3673ZM8.20585 19.3201L11.8401 17.7924L14.2311 19.468V25.1967C14.2311 25.3867 14.3067 25.5688 14.4412 25.7031C14.5757 25.8374 14.7582 25.9128 14.9484 25.9128C15.1386 25.9128 15.3211 25.8374 15.4556 25.7031C15.5901 25.5688 15.6657 25.3867 15.6657 25.1967V19.468L18.0567 17.7924L21.4853 19.2246C21.3132 21.0769 20.8254 26.3377 20.6772 28.295H7.55072H7.27337C7.43595 26.6289 7.87589 22.4374 8.20585 19.3201ZM63.4327 50.2359H54.1844V48.5316C54.1818 46.7831 53.4846 45.1069 52.2456 43.871C51.0067 42.635 49.3272 41.9401 47.5757 41.9389H18.9126C17.1616 41.9401 15.4826 42.6351 14.2444 43.8712C13.0062 45.1074 12.31 46.7835 12.3088 48.5316V50.2359H3.05568V34.2338C3.05694 33.0436 3.53078 31.9024 4.37335 31.0603C5.21593 30.2183 6.35851 29.744 7.55072 29.7415H58.9376C60.1298 29.744 61.2724 30.2183 62.115 31.0603C62.9576 31.9024 63.4314 33.0436 63.4327 34.2338V50.2359Z" fill="currentColor" stroke="currentColor" stroke-width="0.5"/>
<path d="M47.8961 37.7139H18.5923C18.4021 37.7139 18.2196 37.7893 18.0851 37.9236C17.9506 38.0579 17.875 38.24 17.875 38.43C17.875 38.6199 17.9506 38.802 18.0851 38.9363C18.2196 39.0706 18.4021 39.146 18.5923 39.146H47.8961C48.0864 39.146 48.2688 39.0706 48.4033 38.9363C48.5379 38.802 48.6134 38.6199 48.6134 38.43C48.6134 38.24 48.5379 38.0579 48.4033 37.9236C48.2688 37.7893 48.0864 37.7139 47.8961 37.7139Z" fill="currentColor" stroke="currentColor" stroke-width="0.5"/>
</svg>
