<svg width="51" height="62" viewBox="0 0 51 62" xmlns="http://www.w3.org/2000/svg">
<path d="M25.3296 41.6998C25.1621 41.703 24.9996 41.6429 24.8745 41.5314L20.8879 38.0772C20.7515 37.9565 20.6686 37.7866 20.6575 37.6048C20.6464 37.423 20.708 37.2442 20.8287 37.1078C20.9494 36.9714 21.1193 36.8886 21.3011 36.8775C21.4829 36.8664 21.6617 36.928 21.7981 37.0487L25.3296 40.1388L28.8658 37.0714C28.9333 37.0117 29.0119 36.9658 29.0972 36.9364C29.1825 36.907 29.2727 36.8948 29.3627 36.9003C29.4527 36.9057 29.5408 36.9289 29.6218 36.9684C29.7029 37.008 29.7754 37.0631 29.8351 37.1306C29.8949 37.1981 29.9408 37.2768 29.9701 37.362C29.9995 37.4473 30.0118 37.5375 30.0063 37.6275C30.0008 37.7175 29.9776 37.8056 29.9381 37.8867C29.8986 37.9677 29.8435 38.0402 29.776 38.1L25.7893 41.5542C25.6597 41.6585 25.4957 41.7105 25.3296 41.6998Z" fill="currentColor" stroke="currentColor" stroke-width="0.5"/>
<path d="M39.1915 54.7244C39.0104 54.7425 38.8296 54.688 38.6888 54.5727C38.5479 54.4575 38.4587 54.2911 38.4405 54.11C38.4224 53.929 38.477 53.7481 38.5922 53.6073C38.7074 53.4665 38.8739 53.3772 39.0549 53.3591L48.1205 51.516L46.4139 42.9601C46.033 41.0787 45.0196 39.3844 43.5422 38.1588C42.7509 37.4612 41.8059 36.9606 40.7843 36.6979L32.8838 34.4224C32.6468 34.3505 32.4215 34.2448 32.2148 34.1084C31.9283 33.9159 31.6869 33.6637 31.507 33.3691C31.3271 33.0746 31.213 32.7446 31.1726 32.4018L30.7676 28.9066L31.0725 28.6745C33.2371 26.9186 34.7695 24.5042 35.4369 21.798L35.5598 21.3429L36.0149 21.2974C37.057 21.2063 37.8717 19.9002 37.8717 18.3256C37.8717 16.8602 37.1799 15.6268 36.2242 15.3856C36.0486 15.3416 35.8977 15.2296 35.8046 15.0742C35.7116 14.9189 35.6841 14.733 35.7282 14.5573C35.7722 14.3817 35.8842 14.2308 36.0396 14.1378C36.1949 14.0447 36.3808 14.0172 36.5564 14.0613C38.1356 14.4572 39.237 16.2094 39.237 18.3256C39.237 20.4418 38.1402 22.1484 36.6202 22.5716C35.8629 25.2745 34.3202 27.6916 32.1875 29.5165L32.5061 32.2471C32.5255 32.3945 32.5762 32.5361 32.6546 32.6625C32.7331 32.7888 32.8376 32.897 32.9612 32.9798C33.0513 33.0388 33.1494 33.0848 33.2524 33.1163L41.1074 35.3918C42.3239 35.7019 43.4508 36.2926 44.3978 37.1166C46.118 38.5423 47.2971 40.515 47.7382 42.7052L49.7088 52.5718L39.3325 54.7016L39.1915 54.7244Z" fill="currentColor" stroke="currentColor" stroke-width="0.5"/>
<path d="M11.4673 54.7018C11.4204 54.7063 11.3731 54.7063 11.3262 54.7018L1 52.5583L2.97058 42.6918C3.41011 40.4998 4.59138 38.5262 6.31556 37.1032C7.28102 36.264 8.43225 35.6665 9.67419 35.3601L17.4564 33.0846C17.5595 33.0531 17.6575 33.0072 17.7477 32.9481C17.8712 32.8653 17.9757 32.7571 18.0542 32.6308C18.1327 32.5045 18.1833 32.3628 18.2028 32.2154L18.5168 29.4848C16.3864 27.6579 14.8441 25.2416 14.0841 22.54C12.5595 22.1213 11.4673 20.3965 11.4673 18.2939C11.4673 16.1913 12.5322 14.4893 14.0568 14.0569C14.1441 14.0276 14.2365 14.0163 14.3283 14.0237C14.4202 14.031 14.5096 14.0569 14.5911 14.0997C14.6727 14.1425 14.7448 14.2013 14.803 14.2727C14.8612 14.3441 14.9044 14.4266 14.9299 14.5151C14.9554 14.6036 14.9627 14.6964 14.9514 14.7878C14.9401 14.8792 14.9104 14.9674 14.8642 15.0471C14.8179 15.1267 14.756 15.1962 14.6821 15.2513C14.6083 15.3064 14.5241 15.3459 14.4345 15.3676C13.5061 15.6407 12.8326 16.874 12.8326 18.2939C12.8326 19.8686 13.6427 21.1747 14.6803 21.2657L15.1581 21.3112L15.281 21.7663C15.9488 24.4808 17.4863 26.9022 19.6591 28.6611L19.9594 28.8932L19.5498 32.402C19.5101 32.7456 19.3963 33.0764 19.2164 33.3718C19.0365 33.6672 18.7947 33.9202 18.5077 34.1132C18.302 34.2513 18.0764 34.3572 17.8387 34.4272L10.011 36.7027C8.96458 36.9636 7.99564 37.4707 7.1848 38.1817C5.70705 39.3981 4.69171 41.085 4.30857 42.9603L2.6065 51.5161L11.6038 53.3821C11.7849 53.4002 11.9513 53.4894 12.0665 53.6303C12.1817 53.7711 12.2363 53.9519 12.2182 54.133C12.2001 54.314 12.1108 54.4805 11.97 54.5957C11.8292 54.7109 11.6483 54.7655 11.4673 54.7474V54.7018Z" fill="currentColor" stroke="currentColor" stroke-width="0.5"/>
<path d="M14.2434 15.4039C14.0675 15.404 13.8984 15.3357 13.7718 15.2134C13.6453 15.0911 13.5713 14.9244 13.5653 14.7485C13.5653 14.4846 13.315 8.19512 17.1515 4.18569C19.1722 2.06948 21.9346 1 25.3433 1C28.752 1 31.5327 2.07403 33.5351 4.18569C37.3488 8.19512 37.0803 14.4709 37.0667 14.7349C37.0576 14.9159 36.977 15.086 36.8426 15.2076C36.7082 15.3292 36.5309 15.3925 36.3499 15.3834C36.1688 15.3744 35.9988 15.2938 35.8772 15.1593C35.7556 15.0249 35.6923 14.8477 35.7014 14.6666C35.7014 14.6075 35.9471 8.70028 32.5157 5.10955C30.8227 3.2755 28.397 2.3653 25.3615 2.3653C22.326 2.3653 19.9003 3.2755 18.1391 5.12775C14.6985 8.73669 14.9261 14.653 14.9261 14.6894C14.9304 14.7791 14.9169 14.8687 14.8865 14.9532C14.8561 15.0376 14.8094 15.1153 14.7489 15.1816C14.6885 15.248 14.6155 15.3018 14.5342 15.3399C14.453 15.3781 14.365 15.3998 14.2753 15.4039H14.2434Z" fill="currentColor" stroke="currentColor" stroke-width="0.5"/>
<path d="M30.5815 10.9578C30.0081 10.9574 29.4353 10.924 28.8657 10.8577C26.7859 10.6301 25.052 9.78817 23.3727 8.969C22.9176 8.7551 22.4625 8.5139 22.0074 8.32731C20.2598 7.53088 18.7853 7.33974 17.6248 7.76298C16.7897 8.05253 16.0954 8.64769 15.6815 9.42865C15.6449 9.51354 15.5914 9.59011 15.5243 9.65371C15.4572 9.71731 15.3779 9.76661 15.2911 9.79863C15.2044 9.83065 15.1121 9.84472 15.0197 9.83999C14.9274 9.83525 14.837 9.8118 14.754 9.77107C14.671 9.73034 14.5971 9.67318 14.5369 9.60305C14.4766 9.53291 14.4313 9.45127 14.4035 9.36308C14.3758 9.27488 14.3662 9.18197 14.3755 9.08997C14.3847 8.99798 14.4126 8.90883 14.4573 8.82791C15.0211 7.71777 15.9934 6.86948 17.1697 6.4614C18.6761 5.91073 20.501 6.11552 22.5808 7.06668C23.0359 7.28058 23.491 7.52178 23.9461 7.72657C25.5936 8.523 27.1318 9.28301 28.9932 9.48326C31.1397 9.79184 33.3292 9.43776 35.269 8.46839C35.4301 8.38571 35.6175 8.37042 35.7899 8.4259C35.9623 8.48138 36.1056 8.60307 36.1883 8.7642C36.271 8.92533 36.2863 9.11271 36.2308 9.28512C36.1753 9.45752 36.0536 9.60082 35.8925 9.6835C34.2515 10.5323 32.4289 10.9696 30.5815 10.9578Z" fill="currentColor" stroke="currentColor" stroke-width="0.5"/>
<path d="M22.6941 18.9124H17.688C17.3529 18.9112 17.0317 18.7776 16.7947 18.5405C16.5577 18.3035 16.4241 17.9824 16.4229 17.6473V14.8529C16.4229 14.5174 16.5561 14.1956 16.7934 13.9583C17.0307 13.7211 17.3525 13.5878 17.688 13.5878H22.6941C23.0297 13.5878 23.3515 13.7211 23.5887 13.9583C23.826 14.1956 23.9593 14.5174 23.9593 14.8529V17.6473C23.9581 17.9824 23.8244 18.3035 23.5874 18.5405C23.3504 18.7776 23.0293 18.9112 22.6941 18.9124ZM17.7745 17.5471H22.594V14.9531H17.7745V17.5471Z" fill="currentColor" stroke="currentColor" stroke-width="0.5"/>
<path d="M33.0442 18.9124H28.0381C27.872 18.9124 27.7075 18.8797 27.554 18.8161C27.4005 18.7526 27.261 18.6594 27.1435 18.5419C27.026 18.4244 26.9328 18.2849 26.8693 18.1314C26.8057 17.9779 26.773 17.8134 26.773 17.6473V14.853C26.7724 14.6866 26.8047 14.5219 26.868 14.3681C26.9314 14.2143 27.0246 14.0746 27.1422 13.957C27.2598 13.8394 27.3995 13.7462 27.5533 13.6829C27.707 13.6195 27.8718 13.5872 28.0381 13.5878H33.0442C33.3798 13.5878 33.7016 13.7211 33.9388 13.9583C34.1761 14.1956 34.3094 14.5174 34.3094 14.853V17.6473C34.3082 17.9824 34.1745 18.3035 33.9375 18.5406C33.7005 18.7776 33.3794 18.9112 33.0442 18.9124ZM28.1292 17.5471H32.9441V14.9531H28.1292V17.5471Z" fill="currentColor" stroke="currentColor" stroke-width="0.5"/>
<path d="M27.4453 16.4095H23.2993C23.1183 16.4095 22.9447 16.3376 22.8166 16.2095C22.6886 16.0815 22.6167 15.9079 22.6167 15.7268C22.6167 15.5458 22.6886 15.3722 22.8166 15.2441C22.9447 15.1161 23.1183 15.0442 23.2993 15.0442H27.4681C27.6491 15.0442 27.8227 15.1161 27.9508 15.2441C28.0788 15.3722 28.1507 15.5458 28.1507 15.7268C28.1507 15.9079 28.0788 16.0815 27.9508 16.2095C27.8227 16.3376 27.6491 16.4095 27.4681 16.4095H27.4453Z" fill="currentColor" stroke="currentColor" stroke-width="0.5"/>
<path d="M17.0927 16.2275C16.9971 16.2275 16.9024 16.2074 16.8151 16.1683L13.9616 14.894C13.8779 14.8588 13.802 14.8073 13.7384 14.7423C13.6748 14.6774 13.6249 14.6005 13.5914 14.516C13.558 14.4315 13.5417 14.3412 13.5436 14.2504C13.5455 14.1596 13.5655 14.07 13.6025 13.987C13.6394 13.904 13.6926 13.8292 13.7588 13.767C13.8251 13.7048 13.9031 13.6565 13.9882 13.6248C14.0734 13.5932 14.164 13.5788 14.2548 13.5826C14.3456 13.5864 14.4347 13.6083 14.5169 13.647L17.384 14.9213C17.5268 14.985 17.6434 15.0957 17.7143 15.2351C17.7853 15.3744 17.8062 15.5338 17.7737 15.6867C17.7412 15.8397 17.6572 15.9768 17.5358 16.0752C17.4143 16.1736 17.2627 16.2274 17.1064 16.2275H17.0927Z" fill="currentColor" stroke="currentColor" stroke-width="0.5"/>
<path d="M33.6268 16.2275C33.4701 16.2285 33.3178 16.1755 33.1955 16.0774C33.0732 15.9794 32.9884 15.8422 32.9553 15.689C32.9222 15.5358 32.9429 15.3759 33.0138 15.2361C33.0847 15.0963 33.2015 14.9852 33.3446 14.9214L36.1344 13.6471C36.216 13.6098 36.3041 13.5888 36.3938 13.5855C36.4834 13.5823 36.5729 13.5967 36.657 13.6279C36.7411 13.6592 36.8182 13.7067 36.8839 13.7678C36.9496 13.8289 37.0027 13.9023 37.04 13.9839C37.0774 14.0655 37.0983 14.1536 37.1016 14.2433C37.1049 14.3329 37.0905 14.4224 37.0592 14.5065C37.0279 14.5905 36.9804 14.6677 36.9193 14.7334C36.8583 14.7991 36.7848 14.8522 36.7033 14.8895L33.9135 16.1638C33.8233 16.2043 33.7257 16.226 33.6268 16.2275Z" fill="currentColor" stroke="currentColor" stroke-width="0.5"/>
<path d="M25.3616 37.9997C25.1938 37.9999 25.0318 37.9383 24.9065 37.8267L18.4987 32.0879C18.4318 32.0282 18.3773 31.9558 18.3383 31.875C18.2993 31.7941 18.2767 31.7064 18.2716 31.6168C18.2665 31.5272 18.2792 31.4375 18.3088 31.3528C18.3384 31.2681 18.3843 31.1901 18.4441 31.1231C18.5039 31.0562 18.5762 31.0017 18.6571 30.9627C18.7379 30.9237 18.8256 30.9011 18.9152 30.896C19.0048 30.8909 19.0945 30.9035 19.1792 30.9331C19.2639 30.9627 19.342 31.0087 19.4089 31.0685L25.3616 36.3977L31.3143 31.0685C31.4495 30.9478 31.6271 30.8857 31.808 30.896C31.989 30.9062 32.1584 30.9879 32.2791 31.1231C32.3998 31.2583 32.4619 31.4359 32.4516 31.6168C32.4414 31.7978 32.3597 31.9672 32.2245 32.0879L25.8167 37.8267C25.6914 37.9383 25.5294 37.9999 25.3616 37.9997Z" fill="currentColor" stroke="currentColor" stroke-width="0.5"/>
<path d="M25.3301 61C25.2748 60.9991 25.2198 60.9915 25.1663 60.9772L11.2994 57.5139C11.1519 57.478 11.0208 57.3933 10.9274 57.2735C10.8341 57.1537 10.784 57.0059 10.7852 56.854V40.8983C10.7849 40.7945 10.8083 40.6921 10.8535 40.5987C10.8988 40.5054 10.9647 40.4236 11.0463 40.3595C11.1279 40.2955 11.2231 40.2509 11.3245 40.2291C11.4259 40.2073 11.531 40.2089 11.6317 40.2338L25.494 43.6971C25.6453 43.731 25.7808 43.8151 25.8783 43.9358C25.9758 44.0564 26.0296 44.2065 26.031 44.3616V60.3173C26.0298 60.498 25.9575 60.671 25.8297 60.7987C25.702 60.9265 25.529 60.9988 25.3484 61H25.3301ZM12.1323 56.3216L24.6657 59.4436V44.8804L12.1505 41.7721L12.1323 56.3216Z" fill="currentColor" stroke="currentColor" stroke-width="0.5"/>
<path d="M25.3296 61C25.1489 60.9988 24.976 60.9265 24.8482 60.7987C24.7205 60.671 24.6482 60.498 24.647 60.3173V44.3616C24.6474 44.2089 24.6986 44.0608 24.7925 43.9404C24.8865 43.8201 25.0178 43.7345 25.1658 43.6971L39.0281 40.2338C39.1288 40.2089 39.2339 40.2073 39.3353 40.2291C39.4367 40.2509 39.5318 40.2955 39.6134 40.3595C39.695 40.4236 39.761 40.5054 39.8062 40.5987C39.8515 40.6921 39.8749 40.7945 39.8746 40.8983V56.854C39.8758 57.0059 39.8257 57.1537 39.7323 57.2735C39.639 57.3933 39.5079 57.478 39.3603 57.5139L25.4935 60.9772C25.44 60.9915 25.385 60.9991 25.3296 61ZM26.0305 44.894V59.4572L38.5275 56.3352V41.7721L26.0305 44.894Z" fill="currentColor" stroke="currentColor" stroke-width="0.5"/>
<path d="M28.8513 49.7638C28.6703 49.7843 28.4885 49.7321 28.3459 49.6186C28.2034 49.5051 28.1118 49.3396 28.0913 49.1585C28.0708 48.9775 28.123 48.7957 28.2365 48.6532C28.35 48.5107 28.5155 48.4191 28.6966 48.3985L35.8007 46.7329C35.9714 46.707 36.1456 46.7463 36.2886 46.843C36.4316 46.9397 36.533 47.0867 36.5726 47.2548C36.6122 47.4228 36.587 47.5996 36.5022 47.75C36.4173 47.9004 36.279 48.0133 36.1147 48.0663L29.006 49.7274C28.9557 49.7444 28.9039 49.7566 28.8513 49.7638Z" fill="currentColor" stroke="currentColor" stroke-width="0.5"/>
<path d="M28.8513 52.881C28.7617 52.8912 28.6709 52.8836 28.5842 52.8587C28.4975 52.8337 28.4165 52.792 28.3459 52.7358C28.2754 52.6796 28.2165 52.61 28.1729 52.5311C28.1292 52.4522 28.1014 52.3654 28.0913 52.2757C28.0811 52.1861 28.0887 52.0953 28.1136 52.0086C28.1386 51.9219 28.1803 51.8409 28.2365 51.7704C28.2927 51.6998 28.3623 51.641 28.4412 51.5973C28.5202 51.5536 28.6069 51.5259 28.6966 51.5157L35.8007 49.8501C35.9768 49.8104 36.1615 49.8416 36.3147 49.937C36.468 50.0324 36.5776 50.1842 36.6198 50.3598C36.6408 50.4467 36.6443 50.537 36.6302 50.6253C36.6162 50.7137 36.5847 50.7984 36.5378 50.8745C36.4908 50.9507 36.4293 51.0168 36.3567 51.069C36.284 51.1213 36.2018 51.1586 36.1147 51.1789L29.006 52.8446C28.9557 52.8616 28.9039 52.8738 28.8513 52.881Z" fill="currentColor" stroke="currentColor" stroke-width="0.5"/>
</svg>
