<svg width="52" height="61" viewBox="0 0 52 61" xmlns="http://www.w3.org/2000/svg">
<path d="M25.9223 19.0804C22.1145 19.0797 18.3299 18.4893 14.7037 17.3304C14.5198 17.2721 14.3668 17.1433 14.2781 16.9724C14.1895 16.8015 14.1725 16.6025 14.231 16.4192C14.2895 16.2358 14.4187 16.0832 14.5901 15.9948C14.7614 15.9064 14.961 15.8895 15.1449 15.9478C22.1521 18.1909 29.6877 18.1909 36.6949 15.9478C36.8788 15.8895 37.0783 15.9064 37.2497 15.9948C37.4211 16.0832 37.5503 16.2358 37.6088 16.4192C37.6673 16.6025 37.6503 16.8015 37.5617 16.9724C37.473 17.1433 37.3199 17.2721 37.1361 17.3304C33.5115 18.489 29.7285 19.0793 25.9223 19.0804Z" fill="currentColor" stroke="currentColor" stroke-width="0.5"/>
<path d="M49.8236 60.1668H2.17601C2.00452 60.1665 1.83512 60.1292 1.67945 60.0574C1.52379 59.9857 1.38556 59.8811 1.27426 59.751C1.15899 59.6123 1.07683 59.4493 1.034 59.2742C0.991164 59.0992 0.988773 58.9168 1.02701 58.7407L2.90808 49.343C3.36225 47.0924 4.57942 45.0661 6.35511 43.6048C7.34916 42.7405 8.53599 42.1256 9.81669 41.8113L17.8161 39.4909C17.9187 39.4628 18.0155 39.417 18.1022 39.3555C18.2255 39.2733 18.3296 39.1655 18.4074 39.0396C18.4852 38.9136 18.5349 38.7724 18.553 38.6256L18.873 35.8072C16.6892 33.9361 15.1073 31.4642 14.3255 28.701C12.7644 28.2562 11.6396 26.4821 11.6396 24.3502C11.6396 22.2183 12.7401 20.4297 14.3206 19.9994C14.4126 19.9734 14.5088 19.9657 14.6038 19.9767C14.6988 19.9878 14.7907 20.0174 14.8742 20.0639C14.9577 20.1103 15.0312 20.1727 15.0905 20.2475C15.1499 20.3223 15.1938 20.408 15.2199 20.4997C15.246 20.5915 15.2538 20.6874 15.2427 20.7822C15.2316 20.8769 15.2019 20.9685 15.1553 21.0517C15.1087 21.135 15.0461 21.2083 14.9711 21.2675C14.8961 21.3266 14.8102 21.3705 14.7182 21.3965C13.7776 21.643 13.1183 22.8951 13.1183 24.3502C13.1183 25.9503 13.9425 27.2749 14.9945 27.3716L15.5036 27.4199L15.6345 27.9033C16.3192 30.672 17.8922 33.1418 20.1141 34.9371L20.4341 35.1885L20.022 38.7754C19.9802 39.1318 19.8615 39.4749 19.674 39.7812C19.4865 40.0874 19.2348 40.3496 18.936 40.5496C18.7228 40.6951 18.4869 40.8045 18.2379 40.8735L10.1754 43.2036C9.09929 43.4684 8.10205 43.9855 7.26656 44.7118C5.74891 45.9613 4.7096 47.6942 4.32374 49.6185L2.51538 58.7165H49.4793L47.6564 49.6185C47.2706 47.6942 46.2313 45.9613 44.7136 44.7118C43.8938 43.9972 42.9175 43.4839 41.8629 43.2132L33.7762 40.8735C33.5287 40.8045 33.2945 40.6951 33.0829 40.5496C32.7895 40.3478 32.5431 40.0853 32.3607 39.78C32.1783 39.4746 32.0642 39.1336 32.026 38.7803L31.6091 35.1933L31.9339 34.9419C34.1468 33.143 35.7111 30.6736 36.3894 27.9082L36.5202 27.4247L37.0051 27.3764C38.062 27.2797 38.8861 25.9551 38.8861 24.355C38.8861 22.9048 38.2026 21.6479 37.2572 21.382C37.1652 21.3556 37.0793 21.3115 37.0044 21.252C36.9295 21.1926 36.8671 21.119 36.8207 21.0355C36.7271 20.8669 36.7044 20.6681 36.7578 20.4828C36.8112 20.2976 36.9362 20.141 37.1053 20.0476C37.2744 19.9543 37.4738 19.9317 37.6596 19.9849C39.2352 20.4345 40.3406 22.2328 40.3406 24.3357C40.3406 26.4386 39.2158 28.2611 37.6547 28.6865C36.8808 31.4526 35.3057 33.9296 33.1266 35.8072L33.4465 38.5966C33.4631 38.7439 33.5121 38.8857 33.59 39.0119C33.668 39.1381 33.7729 39.2455 33.8974 39.3265C33.9841 39.3879 34.0809 39.4338 34.1834 39.4619L42.2071 41.8113C43.4633 42.1315 44.6261 42.7426 45.6008 43.5951C47.394 45.0526 48.6271 47.0831 49.0915 49.343L50.9774 58.7649C51.0112 58.9339 51.007 59.1082 50.9651 59.2754C50.9232 59.4426 50.8446 59.5984 50.735 59.7317C50.6245 59.8666 50.4855 59.9755 50.328 60.0507C50.1704 60.1259 49.9982 60.1655 49.8236 60.1668Z" fill="currentColor" stroke="currentColor" stroke-width="0.5"/>
<path d="M14.5209 21.4061C14.3333 21.405 14.1533 21.3322 14.0179 21.2027C13.8826 21.0732 13.8023 20.8968 13.7936 20.71C13.7697 19.2855 13.9096 17.863 14.2106 16.4704C14.2511 16.2819 14.365 16.1172 14.5273 16.0125C14.6896 15.9078 14.887 15.8716 15.076 15.912C15.265 15.9524 15.4302 16.066 15.5352 16.2278C15.6402 16.3896 15.6764 16.5864 15.6359 16.7749C15.3606 18.0453 15.2305 19.3427 15.2481 20.6423C15.2587 20.8318 15.1939 21.0178 15.0677 21.16C14.9415 21.3021 14.7642 21.3888 14.5742 21.4012L14.5209 21.4061Z" fill="currentColor" stroke="currentColor" stroke-width="0.5"/>
<path d="M37.2946 21.3824H37.2606C37.1653 21.378 37.0718 21.3549 36.9855 21.3144C36.8991 21.2738 36.8217 21.2166 36.7577 21.146C36.6937 21.0754 36.6444 20.9929 36.6125 20.9032C36.5807 20.8135 36.567 20.7184 36.5722 20.6234C36.5928 19.3343 36.4692 18.0469 36.2037 16.785C36.1619 16.5966 36.197 16.3993 36.3011 16.2365C36.4052 16.0738 36.5698 15.959 36.7588 15.9173C36.9479 15.8756 37.1457 15.9105 37.3089 16.0144C37.4721 16.1182 37.5873 16.2824 37.6291 16.4708C37.9228 17.8529 38.0546 19.2642 38.0218 20.6766C38.0167 20.8655 37.9379 21.045 37.8021 21.1769C37.6662 21.3087 37.4841 21.3824 37.2946 21.3824Z" fill="currentColor" stroke="currentColor" stroke-width="0.5"/>
<path d="M25.9411 48.3767C25.8432 48.3772 25.7463 48.3577 25.6563 48.3194C25.5662 48.2812 25.485 48.225 25.4175 48.1543L17.9659 40.4534C17.8389 40.3137 17.7714 40.1302 17.7778 39.9417C17.7841 39.7533 17.8639 39.5747 18.0001 39.4439C18.1364 39.3131 18.3183 39.2403 18.5074 39.2411C18.6966 39.2418 18.8779 39.316 19.0131 39.4479L26.4647 47.1294C26.6009 47.2654 26.6774 47.4497 26.6774 47.6419C26.6774 47.834 26.6009 48.0183 26.4647 48.1543C26.3973 48.225 26.316 48.2812 26.226 48.3194C26.1359 48.3577 26.039 48.3772 25.9411 48.3767Z" fill="currentColor" stroke="currentColor" stroke-width="0.5"/>
<path d="M25.9411 48.3763C25.7985 48.3762 25.6591 48.3343 25.5402 48.2559C25.4213 48.1774 25.3281 48.0658 25.2723 47.9349C25.2165 47.8041 25.2006 47.6597 25.2264 47.5199C25.2522 47.3801 25.3187 47.2509 25.4175 47.1484L32.8497 39.4475C32.9151 39.3757 32.9943 39.3176 33.0826 39.2768C33.1709 39.236 33.2665 39.2133 33.3638 39.21C33.4611 39.2067 33.558 39.223 33.6489 39.2577C33.7398 39.2925 33.8227 39.3451 33.8928 39.4124C33.9629 39.4797 34.0187 39.5604 34.057 39.6496C34.0953 39.7388 34.1152 39.8348 34.1156 39.9319C34.116 40.0289 34.0968 40.125 34.0593 40.2146C34.0217 40.3041 33.9665 40.3852 33.8969 40.4531L26.4647 48.1346C26.399 48.2088 26.3185 48.2686 26.2284 48.3102C26.1382 48.3519 26.0404 48.3743 25.9411 48.3763Z" fill="currentColor" stroke="currentColor" stroke-width="0.5"/>
<path d="M25.9416 53.4139C25.7487 53.4139 25.5637 53.3375 25.4274 53.2016C25.291 53.0656 25.2144 52.8811 25.2144 52.6888V47.6322C25.2144 47.4399 25.291 47.2555 25.4274 47.1195C25.5637 46.9835 25.7487 46.9071 25.9416 46.9071C26.1344 46.9071 26.3194 46.9835 26.4558 47.1195C26.5922 47.2555 26.6688 47.4399 26.6688 47.6322V52.6888C26.6688 52.784 26.65 52.8783 26.6134 52.9663C26.5769 53.0543 26.5233 53.1342 26.4558 53.2016C26.3883 53.2689 26.3081 53.3223 26.2199 53.3587C26.1316 53.3952 26.0371 53.4139 25.9416 53.4139Z" fill="currentColor" stroke="currentColor" stroke-width="0.5"/>
<path d="M36.9181 17.3645C36.7253 17.3645 36.5403 17.2882 36.4039 17.1522C36.2675 17.0162 36.1909 16.8317 36.1909 16.6394V9.30594C36.1909 9.11362 36.2675 8.92918 36.4039 8.7932C36.5403 8.65721 36.7253 8.58081 36.9181 8.58081C37.111 8.58081 37.296 8.65721 37.4324 8.7932C37.5687 8.92918 37.6454 9.11362 37.6454 9.30594V16.6394C37.6454 16.8317 37.5687 17.0162 37.4324 17.1522C37.296 17.2882 37.111 17.3645 36.9181 17.3645Z" fill="currentColor" stroke="currentColor" stroke-width="0.5"/>
<path d="M14.926 17.3646C14.7331 17.3646 14.5481 17.2882 14.4117 17.1522C14.2753 17.0162 14.1987 16.8318 14.1987 16.6395V9.31082C14.1987 9.11851 14.2753 8.93407 14.4117 8.79808C14.5481 8.66209 14.7331 8.58569 14.926 8.58569C15.1188 8.58569 15.3038 8.66209 15.4402 8.79808C15.5766 8.93407 15.6532 9.11851 15.6532 9.31082V16.6395C15.6532 16.8318 15.5766 17.0162 15.4402 17.1522C15.3038 17.2882 15.1188 17.3646 14.926 17.3646Z" fill="currentColor" stroke="currentColor" stroke-width="0.5"/>
<path d="M25.9241 12.8257C25.8481 12.8255 25.7727 12.8124 25.7011 12.7871L7.40906 7.28575C7.25602 7.24325 7.12115 7.15195 7.02506 7.02581C6.92897 6.89967 6.87695 6.74562 6.87695 6.58721C6.87695 6.42881 6.92897 6.27476 7.02506 6.14862C7.12115 6.02247 7.25602 5.93117 7.40906 5.88867L25.8126 1.02547C25.9364 0.991511 26.067 0.991511 26.1908 1.02547L44.4149 5.88867C44.568 5.93117 44.7028 6.02247 44.7989 6.14862C44.895 6.27476 44.947 6.42881 44.947 6.58721C44.947 6.74562 44.895 6.89967 44.7989 7.02581C44.7028 7.15195 44.568 7.24325 44.4149 7.28575L26.1617 12.7822C26.0859 12.8115 26.0053 12.8263 25.9241 12.8257ZM10.284 6.63314L25.9241 11.3416L41.5691 6.63314L26.0017 2.47573L10.284 6.63314Z" fill="currentColor" stroke="currentColor" stroke-width="0.5"/>
<path d="M44.2228 15.1509C44.03 15.1509 43.845 15.0745 43.7086 14.9385C43.5722 14.8025 43.4956 14.6181 43.4956 14.4257V6.58951C43.4956 6.39719 43.5722 6.21275 43.7086 6.07677C43.845 5.94078 44.03 5.86438 44.2228 5.86438C44.4157 5.86438 44.6007 5.94078 44.737 6.07677C44.8734 6.21275 44.95 6.39719 44.95 6.58951V14.4257C44.95 14.6181 44.8734 14.8025 44.737 14.9385C44.6007 15.0745 44.4157 15.1509 44.2228 15.1509Z" fill="currentColor" stroke="currentColor" stroke-width="0.5"/>
<path d="M42.2354 18.2303C42.0947 18.2293 41.957 18.1891 41.8379 18.1143C41.6765 18.0086 41.5636 17.8436 41.5237 17.6553C41.4837 17.467 41.52 17.2706 41.6246 17.1088L43.6123 14.0536C43.6612 13.9681 43.7271 13.8934 43.8059 13.8341C43.8847 13.7748 43.9748 13.7321 44.0707 13.7086C44.1666 13.6852 44.2663 13.6814 44.3637 13.6976C44.4611 13.7139 44.5542 13.7497 44.6372 13.8029C44.7203 13.8562 44.7916 13.9257 44.8468 14.0073C44.902 14.0889 44.94 14.1809 44.9584 14.2776C44.9768 14.3744 44.9753 14.4738 44.9539 14.5699C44.9325 14.6661 44.8917 14.7568 44.834 14.8367L42.8463 17.9209C42.7772 18.018 42.6855 18.0968 42.5791 18.1507C42.4727 18.2046 42.3548 18.2319 42.2354 18.2303Z" fill="currentColor" stroke="currentColor" stroke-width="0.5"/>
<path d="M46.2173 18.2301C46.097 18.2334 45.9777 18.2068 45.8703 18.1528C45.7628 18.0988 45.6705 18.0191 45.6015 17.9207L43.6138 14.8172C43.5404 14.6572 43.5278 14.4761 43.5784 14.3075C43.629 14.139 43.7393 13.9945 43.8888 13.9011C44.0383 13.8076 44.2167 13.7715 44.3909 13.7995C44.5651 13.8276 44.7231 13.9178 44.8355 14.0534L46.8281 17.1279C46.8982 17.2378 46.9375 17.3643 46.942 17.4944C46.9464 17.6245 46.9159 17.7535 46.8536 17.8679C46.7913 17.9823 46.6995 18.078 46.5876 18.1451C46.4757 18.2122 46.3478 18.2482 46.2173 18.2494V18.2301Z" fill="currentColor" stroke="currentColor" stroke-width="0.5"/>
<path d="M41.8787 53.4138H34.8586C34.6657 53.4138 34.4807 53.3374 34.3443 53.2014C34.208 53.0654 34.1313 52.8809 34.1313 52.6886C34.1313 52.4963 34.208 52.3119 34.3443 52.1759C34.4807 52.0399 34.6657 51.9635 34.8586 51.9635H41.8787C42.0716 51.9635 42.2565 52.0399 42.3929 52.1759C42.5293 52.3119 42.6059 52.4963 42.6059 52.6886C42.6059 52.8809 42.5293 53.0654 42.3929 53.2014C42.2565 53.3374 42.0716 53.4138 41.8787 53.4138Z" fill="currentColor" stroke="currentColor" stroke-width="0.5"/>
</svg>
