<svg width="62" height="62" viewBox="0 0 62 62" xmlns="http://www.w3.org/2000/svg">
<path d="M25.9017 59.5001H10.2227V61.0001H25.9017V59.5001Z" fill="currentColor" stroke="currentColor" stroke-width="0.5"/>
<path d="M18.0498 17.9267C17.1435 17.9267 16.2575 17.6606 15.5042 17.1623C14.751 16.664 14.1643 15.9559 13.8186 15.1276C13.473 14.2994 13.3838 13.3883 13.5625 12.5099C13.7412 11.6315 14.1796 10.8253 14.8223 10.1935C15.465 9.56171 16.2829 9.13275 17.1725 8.96099C18.062 8.78924 18.9831 8.88242 19.8191 9.22872C20.655 9.57503 21.3681 10.1589 21.868 10.9063C22.3679 11.6536 22.6321 12.5309 22.6271 13.4269C22.6191 14.6222 22.1335 15.7659 21.2761 16.6088C20.4187 17.4517 19.259 17.9254 18.0498 17.9267ZM18.0498 10.377C17.4446 10.377 16.853 10.5544 16.3498 10.8868C15.8466 11.2192 15.4544 11.6916 15.2228 12.2443C14.9912 12.797 14.9306 13.4052 15.0487 13.992C15.1668 14.5788 15.4582 15.1177 15.8861 15.5408C16.3141 15.9638 16.8593 16.2519 17.4529 16.3686C18.0465 16.4853 18.6617 16.4254 19.2208 16.1965C19.78 15.9675 20.2579 15.5798 20.5941 15.0824C20.9303 14.585 21.1098 14.0001 21.1098 13.4019C21.1084 12.6 20.7856 11.8314 20.2121 11.2644C19.6385 10.6974 18.861 10.3783 18.0498 10.377Z" fill="currentColor" stroke="currentColor" stroke-width="0.5"/>
<path d="M18.8103 20.446H17.293V26.9308H18.8103V20.446Z" fill="currentColor" stroke="currentColor" stroke-width="0.5"/>
<path d="M24.9286 37.91H11.1816V28.1205H12.699V36.4101H23.4113V28.1205H24.9286V37.91Z" fill="currentColor" stroke="currentColor" stroke-width="0.5"/>
<path d="M7.8142 37.1613H6.29688V25.5018C6.29688 22.0419 8.31997 19.717 11.3546 19.717H24.7323V21.217H11.3748C8.74482 21.217 7.83443 23.5269 7.83443 25.5018L7.8142 37.1613Z" fill="currentColor" stroke="currentColor" stroke-width="0.5"/>
<path d="M29.8038 37.1613H28.2865V25.5018C28.2865 23.5019 27.3559 21.217 24.7461 21.217V19.717C27.7807 19.717 29.8038 22.0419 29.8038 25.5018V37.1613Z" fill="currentColor" stroke="currentColor" stroke-width="0.5"/>
<path d="M29.554 48.5404H25.9529V47.0405H28.5323L30.7375 41.7057H5.35776L7.56293 47.0405H10.1424V48.5404H6.54127L3.81515 41.9357C3.73621 41.7449 3.70605 41.5378 3.72733 41.3327C3.74862 41.1276 3.8207 40.9308 3.9372 40.7598C4.0537 40.5888 4.21103 40.4488 4.39529 40.3521C4.57954 40.2555 4.78503 40.2053 4.9936 40.2058H31.1067C31.3149 40.2061 31.5197 40.2569 31.7033 40.3539C31.8869 40.4509 32.0436 40.591 32.1595 40.7619C32.2754 40.9328 32.347 41.1292 32.3681 41.3339C32.3891 41.5386 32.3589 41.7453 32.2801 41.9357L29.554 48.5404Z" fill="currentColor" stroke="currentColor" stroke-width="0.5"/>
<path d="M26.7145 60.6295H25.1972V45.7502H10.904V60.6295H9.38672V45.3452C9.38672 45.0548 9.50342 44.7763 9.71114 44.5709C9.91886 44.3656 10.2006 44.2502 10.4944 44.2502H25.612C25.9048 44.2516 26.1853 44.3675 26.3919 44.5727C26.5985 44.7779 26.7145 45.0557 26.7145 45.3452V60.6295Z" fill="currentColor" stroke="currentColor" stroke-width="0.5"/>
<path d="M58.5062 37.1259H34.1481C33.9469 37.1259 33.7539 37.0469 33.6116 36.9062C33.4693 36.7656 33.3894 36.5748 33.3894 36.3759C33.3894 36.177 33.4693 35.9863 33.6116 35.8456C33.7539 35.705 33.9469 35.626 34.1481 35.626H56.9888V6.37725H5.23803V17.1768C5.23803 17.3757 5.1581 17.5664 5.01582 17.7071C4.87354 17.8477 4.68057 17.9267 4.47936 17.9267C4.27816 17.9267 4.08519 17.8477 3.94291 17.7071C3.80063 17.5664 3.7207 17.3757 3.7207 17.1768V4.87732H58.5062V37.1259Z" fill="currentColor" stroke="currentColor" stroke-width="0.5"/>
<path d="M58.3962 6.37726H3.83835C3.47148 6.39291 3.10521 6.33499 2.76158 6.20699C2.41796 6.07899 2.1041 5.88356 1.83891 5.63247C1.57371 5.38139 1.36267 5.07983 1.2185 4.74598C1.07433 4.41213 1 4.05288 1 3.68988C1 3.32688 1.07433 2.96763 1.2185 2.63378C1.36267 2.29993 1.57371 1.99838 1.83891 1.74729C2.1041 1.4962 2.41796 1.30077 2.76158 1.17277C3.10521 1.04477 3.47148 0.986854 3.83835 1.0025H58.3962C59.0969 1.03238 59.7589 1.32858 60.244 1.82929C60.7292 2.33 61 2.99655 61 3.68988C61 4.38321 60.7292 5.04976 60.244 5.55047C59.7589 6.05118 59.0969 6.34738 58.3962 6.37726ZM3.83835 2.50243C3.67405 2.49189 3.50931 2.51478 3.35431 2.56968C3.19932 2.62458 3.05736 2.71033 2.93722 2.82163C2.81709 2.93293 2.72133 3.06741 2.65586 3.21675C2.5904 3.36609 2.55662 3.52712 2.55662 3.68988C2.55662 3.85264 2.5904 4.01367 2.65586 4.16301C2.72133 4.31235 2.81709 4.44683 2.93722 4.55813C3.05736 4.66943 3.19932 4.75518 3.35431 4.81008C3.50931 4.86499 3.67405 4.88787 3.83835 4.87733H58.3962C58.7013 4.85775 58.9875 4.72412 59.1965 4.50359C59.4056 4.28305 59.522 3.99213 59.522 3.68988C59.522 3.38763 59.4056 3.09671 59.1965 2.87617C58.9875 2.65564 58.7013 2.52202 58.3962 2.50243H3.83835Z" fill="currentColor" stroke="currentColor" stroke-width="0.5"/>
<path d="M44.1772 26.9606L38.7401 22.0308L35.1441 25.4707C35.0723 25.5393 34.9876 25.5933 34.8948 25.6295C34.802 25.6658 34.7028 25.6836 34.603 25.682C34.5032 25.6803 34.4047 25.6593 34.3132 25.62C34.2216 25.5808 34.1387 25.5241 34.0693 25.4532C33.9999 25.3823 33.9453 25.2985 33.9086 25.2068C33.872 25.115 33.8539 25.017 33.8556 24.9183C33.8572 24.8197 33.8785 24.7223 33.9182 24.6318C33.9579 24.5412 34.0153 24.4593 34.087 24.3907L38.7098 19.9709L44.1115 24.8707L53.094 15.7911C53.1611 15.7119 53.244 15.6473 53.3376 15.6012C53.4312 15.5552 53.5333 15.5288 53.6377 15.5236C53.7421 15.5185 53.8464 15.5347 53.9441 15.5713C54.0419 15.6078 54.1309 15.664 54.2057 15.7361C54.2804 15.8083 54.3393 15.895 54.3786 15.9907C54.4179 16.0864 54.4367 16.1891 54.434 16.2924C54.4312 16.3957 54.4069 16.4973 54.3626 16.5908C54.3183 16.6844 54.2549 16.7679 54.1764 16.836L44.1772 26.9606Z" fill="currentColor" stroke="currentColor" stroke-width="0.5"/>
</svg>
