<svg width="40" height="40" fill="none" xmlns="http://www.w3.org/2000/svg"><rect x="1.25" y="1.25" width="37.5" height="37.5" rx="18.75" stroke="currentColor" stroke-width="2.5"/><path fill-rule="evenodd" clip-rule="evenodd" d="M30 14.7769a7.9999 7.9999 0 0 1-2.2393.595c.805-.4683 1.4229-1.2121 1.7121-2.0964a7.9507 7.9507 0 0 1-2.4746.9201C26.2867 13.4601 25.2748 13 24.1523 13c-2.1514 0-3.8975 1.697-3.8975 3.7879 0 .2975.034.5868.1021.8622-3.2399-.157-6.1113-1.6666-8.0332-3.9586-.3344.5592-.5272 1.2093-.5272 1.9035 0 1.3141.6888 2.4739 1.7348 3.1516a3.975 3.975 0 0 1-1.766-.4739v.0469c0 1.8347 1.3436 3.3664 3.1265 3.7135a4.0546 4.0546 0 0 1-1.0261.1322c-.2522 0-.496-.0248-.7341-.0689.496 1.5042 1.936 2.6006 3.6395 2.6309-1.335 1.0165-3.0131 1.6226-4.8414 1.6226A8.6271 8.6271 0 0 1 11 26.2975C12.7234 27.3719 14.7728 28 16.9752 28c7.1686 0 11.0888-5.7713 11.0888-10.7769 0-.1652-.0028-.3278-.0113-.4903a7.7647 7.7647 0 0 0 1.9445-1.9615l.0028.0056z" fill="currentColor"/></svg>