<svg width="40" height="40" fill="none" xmlns="http://www.w3.org/2000/svg"><rect x="1.25" y="1.25" width="37.5" height="37.5" rx="18.75" stroke="currentColor" stroke-width="2.5"/><path fill-rule="evenodd" clip-rule="evenodd" d="M19.764 25.9493h1.3156s.3967-.0417.5992-.2512c.1869-.1916.1806-.5519.1806-.5519s-.0249-1.6867.7933-1.9349c.8068-.2452 1.8442 1.6301 2.9427 2.3508.8317.546 1.462.4269 1.462.4269l2.9386-.0397s1.5367-.0903.8078-1.2459c-.0592-.0943-.4247-.8548-2.1847-2.4164-1.842-1.6351-1.5949-1.371.6241-4.1984 1.3508-1.7224 1.8918-2.7737 1.7226-3.2234-.161-.4299-1.1547-.3157-1.1547-.3157l-3.3082.0198s-.245-.0327-.4267.0715c-.1776.1023-.2918.3395-.2918.3395s-.5244 1.3323-1.2221 2.466c-1.4735 2.3916-2.0622 2.5177-2.3031 2.3688-.5597-.3455-.4195-1.3899-.4195-2.1315 0-2.3181.3665-3.284-.7165-3.5342-.3592-.0834-.624-.138-1.544-.1469-1.1806-.011-2.1795.0039-2.7443.268-.377.1767-.6667.5689-.4901.5917.218.0278.7133.1281.976.4696.3395.4407.3271 1.4305.3271 1.4305s.1952 2.7281-.4548 3.0676c-.4455.2323-1.0581-.2422-2.3706-2.4124-.6728-1.1108-1.1806-2.3399-1.1806-2.3399s-.0986-.2293-.2731-.3524c-.2118-.1479-.5077-.1956-.5077-.1956l-3.1441.0199s-.4715.0119-.6448.2084c-.1548.1748-.0125.5361-.0125.5361s2.4609 5.5049 5.2478 8.2776c2.5554 2.5445 5.4565 2.3777 5.4565 2.3777z" fill="currentColor"/></svg>